<svg width="110" height="34" viewBox="0 0 110 34" fill="none" xmlns="http://www.w3.org/2000/svg">
<g id="Airbnb Logo" clip-path="url(#clip0_209_2389)">
<path id="Vector" d="M58.2941 8.5423C58.2941 9.76752 57.3084 10.7545 56.0848 10.7545C54.8612 10.7545 53.8755 9.76752 53.8755 8.5423C53.8755 7.31707 54.8272 6.33009 56.0848 6.33009C57.3424 6.36412 58.2941 7.35111 58.2941 8.5423ZM49.1849 13.0008C49.1849 13.205 49.1849 13.5453 49.1849 13.5453C49.1849 13.5453 48.1313 12.1839 45.888 12.1839C42.1831 12.1839 39.294 15.0088 39.294 18.9227C39.294 22.8026 42.1491 25.6614 45.888 25.6614C48.1653 25.6614 49.1849 24.266 49.1849 24.266V24.8446C49.1849 25.1169 49.3889 25.3211 49.6608 25.3211H52.4139V12.5243C52.4139 12.5243 49.8987 12.5243 49.6608 12.5243C49.3889 12.5243 49.1849 12.7625 49.1849 13.0008ZM49.1849 21.203C48.6751 21.9517 47.6554 22.5984 46.4318 22.5984C44.2565 22.5984 42.591 21.237 42.591 18.9227C42.591 16.6084 44.2565 15.247 46.4318 15.247C47.6214 15.247 48.7091 15.9277 49.1849 16.6424V21.203ZM54.4533 12.5243H57.7163V25.3211H54.4533V12.5243ZM103.194 12.1839C100.951 12.1839 99.8971 13.5453 99.8971 13.5453V6.36412H96.6341V25.3211C96.6341 25.3211 99.1493 25.3211 99.3873 25.3211C99.6592 25.3211 99.8631 25.0828 99.8631 24.8446V24.266C99.8631 24.266 100.917 25.6614 103.16 25.6614C106.865 25.6614 109.754 22.8026 109.754 18.9227C109.754 15.0428 106.865 12.1839 103.194 12.1839ZM102.65 22.5643C101.393 22.5643 100.407 21.9177 99.8971 21.1689V16.6084C100.407 15.9277 101.495 15.213 102.65 15.213C104.826 15.213 106.491 16.5743 106.491 18.8886C106.491 21.203 104.826 22.5643 102.65 22.5643ZM94.9346 17.7315V25.3551H91.6717V18.1059C91.6717 15.9958 90.9919 15.1449 89.1564 15.1449C88.1708 15.1449 87.1511 15.6554 86.5053 16.4042V25.3211H83.2423V12.5243H85.8255C86.0974 12.5243 86.3013 12.7625 86.3013 13.0008V13.5453C87.253 12.5583 88.5107 12.1839 89.7683 12.1839C91.1958 12.1839 92.3854 12.5923 93.3371 13.4092C94.4928 14.3621 94.9346 15.5873 94.9346 17.7315ZM75.3228 12.1839C73.0795 12.1839 72.0258 13.5453 72.0258 13.5453V6.36412H68.7628V25.3211C68.7628 25.3211 71.278 25.3211 71.516 25.3211C71.7879 25.3211 71.9918 25.0828 71.9918 24.8446V24.266C71.9918 24.266 73.0455 25.6614 75.2888 25.6614C78.9936 25.6614 81.8827 22.8026 81.8827 18.9227C81.9167 15.0428 79.0276 12.1839 75.3228 12.1839ZM74.7789 22.5643C73.5213 22.5643 72.5356 21.9177 72.0258 21.1689V16.6084C72.5356 15.9277 73.6233 15.213 74.7789 15.213C76.9543 15.213 78.6197 16.5743 78.6197 18.8886C78.6197 21.203 76.9543 22.5643 74.7789 22.5643ZM65.9417 12.1839C66.9274 12.1839 67.4372 12.3541 67.4372 12.3541V15.3831C67.4372 15.3831 64.7181 14.4642 63.0186 16.4042V25.3551H59.7556V12.5243C59.7556 12.5243 62.2709 12.5243 62.5088 12.5243C62.7807 12.5243 62.9846 12.7625 62.9846 13.0008V13.5453C63.5964 12.8306 64.922 12.1839 65.9417 12.1839ZM32.0543 24.1639C31.8843 23.7555 31.7144 23.3131 31.5444 22.9387C31.2725 22.3261 31.0006 21.7475 30.7627 21.203L30.7287 21.1689C28.3834 16.0638 25.8682 10.8906 23.217 5.78554L23.1151 5.58134C22.8432 5.07083 22.5713 4.52628 22.2993 3.98174C21.9594 3.36913 21.6195 2.72248 21.0757 2.10987C19.9881 0.748505 18.4245 -0.000244141 16.7591 -0.000244141C15.0596 -0.000244141 13.5301 0.748505 12.4084 2.0418C11.8986 2.65441 11.5247 3.30106 11.1848 3.91367C10.9129 4.45821 10.641 5.00276 10.3691 5.51327L10.2671 5.71747C7.64991 10.8226 5.10071 15.9958 2.75544 21.1009L2.72145 21.1689C2.48353 21.7135 2.21161 22.292 1.9397 22.9047C1.76975 23.279 1.5998 23.6874 1.42986 24.1299C0.987994 25.3891 0.852036 26.5803 1.02198 27.8056C1.39587 30.3581 3.09534 32.5023 5.4406 33.4552C6.32433 33.8296 7.24204 33.9998 8.19374 33.9998C8.46566 33.9998 8.80555 33.9657 9.07747 33.9317C10.1991 33.7956 11.3548 33.4212 12.4764 32.7745C13.87 31.9917 15.1956 30.8686 16.6911 29.235C18.1866 30.8686 19.5462 31.9917 20.9058 32.7745C22.0274 33.4212 23.1831 33.7956 24.3047 33.9317C24.5766 33.9657 24.9165 33.9998 25.1884 33.9998C26.1401 33.9998 27.0918 33.8296 27.9416 33.4552C30.3208 32.5023 31.9863 30.3241 32.3602 27.8056C32.6321 26.6144 32.4961 25.4232 32.0543 24.1639ZM16.7251 25.9337C14.8897 23.6194 13.7 21.4412 13.2922 19.6034C13.1222 18.8206 13.0882 18.1399 13.1902 17.5273C13.2582 16.9827 13.4621 16.5063 13.734 16.0979C14.3798 15.1789 15.4675 14.6004 16.7251 14.6004C17.9827 14.6004 19.1043 15.1449 19.7161 16.0979C19.9881 16.5063 20.192 16.9827 20.26 17.5273C20.3619 18.1399 20.328 18.8546 20.158 19.6034C19.7501 21.4072 18.5605 23.5853 16.7251 25.9337ZM30.2868 27.5333C30.0489 29.3031 28.8593 30.8346 27.1938 31.5153C26.3781 31.8556 25.4943 31.9577 24.6106 31.8556C23.7609 31.7535 22.9111 31.4812 22.0274 30.9707C20.8038 30.29 19.5802 29.235 18.1526 27.6694C20.3959 24.9127 21.7555 22.3942 22.2653 20.1479C22.5033 19.0928 22.5373 18.1399 22.4353 17.255C22.2993 16.4042 21.9934 15.6214 21.5176 14.9407C20.4639 13.4092 18.6965 12.5243 16.7251 12.5243C14.7537 12.5243 12.9862 13.4432 11.9326 14.9407C11.4567 15.6214 11.1508 16.4042 11.0149 17.255C10.8789 18.1399 10.9129 19.1269 11.1848 20.1479C11.6946 22.3942 13.0882 24.9467 15.2975 27.7035C13.904 29.269 12.6464 30.3241 11.4227 31.0048C10.539 31.5153 9.68928 31.7875 8.83954 31.8896C7.92183 31.9917 7.0381 31.8556 6.25635 31.5493C4.59087 30.8686 3.40124 29.3371 3.16331 27.5673C3.06135 26.7165 3.12932 25.8656 3.46922 24.9127C3.57119 24.5723 3.74113 24.232 3.91108 23.8236C4.14901 23.279 4.42092 22.7005 4.69284 22.1219L4.72683 22.0538C7.07209 16.9827 9.58731 11.8096 12.2045 6.77253L12.3065 6.56832C12.5784 6.05781 12.8503 5.51327 13.1222 5.00276C13.3941 4.45821 13.7 3.9477 14.0739 3.50526C14.7877 2.68844 15.7394 2.246 16.7931 2.246C17.8467 2.246 18.7984 2.68844 19.5122 3.50526C19.8861 3.9477 20.192 4.45821 20.4639 5.00276C20.7358 5.51327 21.0077 6.05781 21.2797 6.56832L21.3816 6.77253C23.9648 11.8436 26.48 17.0168 28.8253 22.0878V22.1219C29.0972 22.6664 29.3351 23.279 29.6071 23.8236C29.777 24.232 29.9469 24.5723 30.0489 24.9127C30.3208 25.7976 30.4228 26.6484 30.2868 27.5333Z" fill="#ADB5BD"/>
</g>
<defs>
<clipPath id="clip0_209_2389">
<rect width="108.8" height="34" fill="white" transform="translate(0.955078 -0.000244141)"/>
</clipPath>
</defs>
</svg>
