<svg width="32" height="32" viewBox="0 0 32 32" fill="none" xmlns="http://www.w3.org/2000/svg">
<g clip-path="url(#clip0_310_2642)">
<path d="M32 16C32 19.34 30.98 22.44 29.23 25.01C28.66 25.83 28.02 26.6 27.31 27.31C24.42 30.21 20.42 32 16 32C11.58 32 7.58 30.21 4.68 27.31C3.97 26.6 3.34 25.83 2.77 25.01C1.02 22.44 0 19.34 0 16C0 11.58 1.79 7.58 4.68 4.69C7.57 1.8 11.58 0 16 0C24.83 0 32 7.16 32 16Z" fill="#F3F4F6"/>
<path d="M16 20C12.89 20 9.83002 20.72 7.05002 22.11C5.50002 22.89 4.06002 23.86 2.77002 25.01C3.34002 25.83 3.97002 26.6 4.68002 27.31C7.58002 30.21 11.58 32 16 32C20.42 32 24.42 30.21 27.31 27.31C28.02 26.6 28.66 25.83 29.23 25.01C25.7 21.89 21.07 20 16 20ZM19.77 8.22998C18.77 7.22998 17.41 6.66998 16 6.66998C14.59 6.66998 13.23 7.22998 12.23 8.22998C11.23 9.22998 10.67 10.59 10.67 12C10.67 13.41 11.23 14.77 12.23 15.77C13.23 16.77 14.58 17.33 16 17.33C17.42 17.33 18.77 16.77 19.77 15.77C20.77 14.77 21.33 13.41 21.33 12C21.33 10.59 20.77 9.22998 19.77 8.22998Z" fill="#29ABE2"/>
</g>
<defs>
<clipPath id="clip0_310_2642">
<rect width="32" height="32" fill="white"/>
</clipPath>
</defs>
</svg>
