<svg width="24" height="24" viewBox="0 0 24 24" fill="none" xmlns="http://www.w3.org/2000/svg">
<g id="beachfront">
<path id="Vector" d="M1.31348 20.3308C1.31348 20.7235 1.6319 21.042 2.02474 21.042C2.41758 21.042 2.736 20.7236 2.736 20.3308V18.695H21.2635V20.3308C21.2635 20.7235 21.582 21.042 21.9748 21.042C22.3676 21.042 22.6861 20.7236 22.6861 20.3308V17.9837C22.6861 17.5909 22.3676 17.2724 21.9748 17.2724H18.6764L22.1997 16.098C22.4901 16.0012 22.686 15.7294 22.686 15.4232V13.0762C22.686 12.8475 22.5761 12.6329 22.3906 12.4992C22.2052 12.3655 21.9667 12.3293 21.7499 12.4014L14.8181 14.712H12.1242V10.249H19.6277C20.0204 10.249 20.3389 9.9306 20.3389 9.53776V8.36429C20.3389 8.10904 20.2022 7.87337 19.9806 7.74679L11.7658 3.05262C11.5471 2.92777 11.2787 2.92777 11.0601 3.05262L2.84539 7.74679C2.62374 7.87344 2.48702 8.10904 2.48702 8.36429V9.53783C2.48702 9.9306 2.80545 10.2491 3.19828 10.2491H10.7017V14.7121H2.02474C1.63198 14.7121 1.31348 15.0305 1.31348 15.4233V20.3308ZM3.90947 8.77699L11.4129 4.48933L18.9164 8.77699V8.82657H15.6448V8.36429C15.6448 7.97153 15.3263 7.65303 14.9335 7.65303C14.5407 7.65303 14.2222 7.97145 14.2222 8.36429V8.82657H3.90947V8.77699ZM21.2635 14.9106L14.8181 17.0591H2.73593V16.1344H14.9336C15.0101 16.1344 15.086 16.1221 15.1584 16.098L21.2635 14.0629V14.9106Z" fill="#29ABE2"/>
</g>
</svg>
