<svg width="22" height="22" viewBox="0 0 22 22" fill="none" xmlns="http://www.w3.org/2000/svg">
<g id="Group 31">
<path id="Vector" d="M6.16982 9.70563L10.9998 10.9996L15.8298 12.2936L20.6593 13.5876C21.8283 9.22513 19.9238 4.76263 16.2728 2.49963C15.4395 1.9838 14.5348 1.5933 13.5878 1.34063C12.5009 1.0479 11.3723 0.941057 10.2498 1.02463C6.13132 1.33463 2.46982 4.19563 1.34082 8.41113L6.17032 9.70513L6.16982 9.70563Z" stroke="#29ABE2" stroke-width="2" stroke-linecap="round" stroke-linejoin="round"/>
<path id="Vector_2" d="M7.1365 9.96384C7.1365 9.96384 7.542 7.48434 9.155 5.32834C10.768 3.17234 13.588 1.33984 13.588 1.33984C13.588 1.33984 15.1145 4.33734 15.4335 7.01084C15.7525 9.68434 14.8635 12.0343 14.8635 12.0343M1.341 8.41134L6.1705 9.70534L11 10.9993M11 10.9993L15.829 12.2933L20.659 13.5873M11 10.9993L8.25 20.9993M1 20.9993H21" stroke="#29ABE2" stroke-width="2" stroke-linecap="round" stroke-linejoin="round"/>
<path id="Vector_3" d="M10.25 1.02484C11.3725 0.940949 12.501 1.04745 13.588 1.33984C14.535 1.59283 15.4397 1.98367 16.273 2.49984" stroke="#29ABE2" stroke-width="2" stroke-linecap="round" stroke-linejoin="round"/>
</g>
</svg>
