<svg width="96" height="94" viewBox="0 0 96 94" fill="none" xmlns="http://www.w3.org/2000/svg">
<path id="Vector" d="M48.0003 0C22.0892 0 0.88916 21.15 0.88916 47C0.88916 72.85 22.0892 94 48.0003 94C73.9114 94 95.1114 72.85 95.1114 47C95.1114 21.15 73.9114 0 48.0003 0ZM48.0003 84.6C27.2243 84.6 10.3114 67.727 10.3114 47C10.3114 26.273 27.2243 9.4 48.0003 9.4C68.7763 9.4 85.6892 26.273 85.6892 47C85.6892 67.727 68.7763 84.6 48.0003 84.6ZM69.6243 26.226L38.578 57.199L26.3763 45.073L19.7336 51.7L38.578 70.5L76.2669 32.9L69.6243 26.226Z" fill="#29ABE2"/>
</svg>
