<svg width="130" height="22" viewBox="0 0 130 22" fill="none" xmlns="http://www.w3.org/2000/svg">
<g id="Group">
<g id="Group 691315075">
<g id="Clip path group">
<mask id="mask0_356_3095" style="mask-type:luminance" maskUnits="userSpaceOnUse" x="0" y="0" width="130" height="22">
<g id="a">
<path id="Vector" d="M0.583984 0H129.771V22H0.583984V0Z" fill="white"/>
</g>
</mask>
<g mask="url(#mask0_356_3095)">
<g id="Group_2">
<g id="Clip path group_2">
<mask id="mask1_356_3095" style="mask-type:luminance" maskUnits="userSpaceOnUse" x="0" y="0" width="130" height="22">
<g id="b">
<path id="Vector_2" d="M0.583984 22H129.771V0H0.583984V22Z" fill="white"/>
</g>
</mask>
<g mask="url(#mask1_356_3095)">
<g id="Group_3">
<path id="Vector_3" d="M51.2441 2.40789C51.2441 1.88536 51.451 1.38423 51.8191 1.01475C52.1873 0.64527 52.6866 0.437696 53.2073 0.437696C53.7279 0.437696 54.2272 0.64527 54.5954 1.01475C54.9635 1.38423 55.1703 1.88536 55.1703 2.40789C55.1514 2.91769 54.9363 3.40027 54.5702 3.75421C54.2041 4.10816 53.7156 4.30591 53.2073 4.30591C52.699 4.30591 52.2104 4.10816 51.8443 3.75421C51.4782 3.40027 51.2631 2.91769 51.2441 2.40789Z" fill="#ADB5BD"/>
<path id="Vector_4" d="M82.2168 15.5477C82.2168 14.4542 83.0944 13.5706 84.1758 13.5706C84.6979 13.5706 85.1986 13.7788 85.5678 14.1493C85.937 14.5198 86.1443 15.0223 86.1443 15.5463C86.1443 16.0703 85.937 16.5728 85.5678 16.9433C85.1986 17.3138 84.6979 17.522 84.1758 17.522C83.0958 17.522 82.2168 16.637 82.2168 15.5463" fill="#ADB5BD"/>
<path id="Vector_5" d="M19.0258 14.6928C17.3361 14.6928 16.1604 13.3455 16.1604 11.4192C16.1604 9.4943 17.3361 8.14837 19.0271 8.14837C20.7264 8.14837 21.9144 9.4943 21.9144 11.4192C21.9144 13.3757 20.7524 14.6928 19.0258 14.6928ZM19.0258 5.27129C15.4496 5.27129 12.8535 7.8575 12.8535 11.4192C12.8535 14.9823 15.4509 17.5671 19.0258 17.5671C22.6171 17.5671 25.2226 14.9823 25.2226 11.4206C25.2226 7.8575 22.6157 5.27129 19.0258 5.27129ZM47.4414 11.7279C47.317 11.4863 47.1597 11.2633 46.9739 11.0652L46.8646 10.9514L46.9794 10.8416C47.1435 10.6674 47.3116 10.4616 47.4729 10.2228L50.6308 5.51413H46.7976L44.4257 9.19795C44.2917 9.39551 44.0211 9.4943 43.6151 9.4943H43.0751V2.53003C43.0751 1.13745 42.2098 0.948116 41.2761 0.948116H39.6766L39.6806 17.386H43.0764V12.4551H43.395C43.7819 12.4551 44.0443 12.5003 44.166 12.7116L46.0388 16.2596C46.5624 17.2228 47.0833 17.386 48.0648 17.386H50.6664L48.7279 14.1701L47.4429 11.7279M63.9255 5.24384C62.1976 5.24384 61.0957 6.01491 60.4777 6.66661L60.2727 6.87515L60.1989 6.59115C60.0184 5.8928 59.406 5.51001 58.486 5.51001H56.9644L56.974 17.3819H60.3465V11.9104C60.3465 11.3753 60.4148 10.9116 60.557 10.4876C60.9316 9.20481 61.9788 8.40767 63.287 8.40767C64.3397 8.40767 64.7512 8.96608 64.7512 10.4067V15.5777C64.7512 16.8071 65.3185 17.3819 66.5447 17.3819H68.1497L68.1443 9.83044C68.1443 6.83125 66.6856 5.24384 63.9255 5.24384ZM53.2474 5.51413H51.6493L51.6602 14.6942V17.386H53.3649L53.4251 17.3888L54.2208 17.386H55.0109V17.3819H55.0163L55.0232 7.31831C55.0232 6.10409 54.445 5.5155 53.2488 5.5155M32.2712 14.6928C30.5815 14.6928 29.4045 13.3455 29.4045 11.4192C29.4045 9.4943 30.5816 8.14837 32.2726 8.14837C33.9678 8.14837 35.1599 9.4943 35.1599 11.4192C35.1599 13.3757 33.9979 14.6928 32.2726 14.6928H32.2712ZM32.2712 5.27129C28.6922 5.27129 26.0948 7.8575 26.0948 11.4192C26.0948 14.9823 28.6923 17.5671 32.2726 17.5671C35.8584 17.5671 38.4694 14.9823 38.4694 11.4206C38.4694 7.8575 35.8584 5.27129 32.2726 5.27129" fill="#ADB5BD"/>
</g>
</g>
</g>
</g>
</g>
</g>
<g id="Clip path group_3">
<mask id="mask2_356_3095" style="mask-type:luminance" maskUnits="userSpaceOnUse" x="0" y="0" width="130" height="22">
<g id="c">
<path id="Vector_6" d="M0.583984 0H129.771V22H0.583984V0Z" fill="white"/>
</g>
</mask>
<g mask="url(#mask2_356_3095)">
<g id="Group_4">
<g id="Clip path group_4">
<mask id="mask3_356_3095" style="mask-type:luminance" maskUnits="userSpaceOnUse" x="0" y="0" width="130" height="22">
<g id="d">
<path id="Vector_7" d="M0.583984 0.433556H129.744V21.9712H0.583984V0.433556Z" fill="white"/>
</g>
</mask>
<g mask="url(#mask3_356_3095)">
<g id="Group_5">
<g id="Clip path group_5">
<mask id="mask4_356_3095" style="mask-type:luminance" maskUnits="userSpaceOnUse" x="0" y="0" width="130" height="22">
<g id="e">
<path id="Vector_8" d="M0.583984 22H129.771V0H0.583984V22Z" fill="white"/>
</g>
</mask>
<g mask="url(#mask4_356_3095)">
<g id="Group_6">
<path id="Vector_9" d="M104.554 14.6928C102.864 14.6928 101.686 13.3455 101.686 11.4192C101.686 9.4943 102.864 8.14836 104.554 8.14836C106.252 8.14836 107.443 9.4943 107.443 11.4192C107.443 13.3757 106.28 14.6928 104.554 14.6928ZM104.554 5.27129C100.975 5.27129 98.3789 7.8575 98.3789 11.4192C98.3789 14.9823 100.975 17.5671 104.554 17.5671C108.141 17.5671 110.751 14.9823 110.751 11.4206C110.751 7.8575 108.14 5.27129 104.554 5.27129Z" fill="#ADB5BD"/>
<path id="Vector_10" d="M75.253 14.1702C73.4088 14.1702 72.7526 12.5567 72.7526 11.0434C72.7526 10.3766 72.9207 8.2047 75.0766 8.2047C76.147 8.2047 77.5728 8.51203 77.5728 11.1545C77.5728 13.6474 76.3111 14.1702 75.253 14.1702ZM79.324 5.48266C78.6842 5.48266 78.1921 5.73922 77.9447 6.20707L77.8517 6.38818L77.6959 6.25098C77.1518 5.77901 76.1757 5.21786 74.5913 5.21786C71.4375 5.21786 69.3145 7.59554 69.3145 11.1312C69.3145 14.6654 71.5113 17.135 74.6542 17.135C75.7273 17.135 76.5762 16.8826 77.2488 16.3722L77.5086 16.176V16.5053C77.5086 18.0913 76.4874 18.9667 74.635 18.9667C73.7341 18.9667 72.9153 18.7471 72.3657 18.5468C71.6521 18.3301 71.231 18.5098 70.9426 19.2301L70.6747 19.8941L70.2959 20.8655L70.5297 20.9904C71.7163 21.6215 73.2598 21.9988 74.6542 21.9988C77.525 21.9988 80.8797 20.5239 80.8797 16.3722L80.8921 5.48266H79.324Z" fill="#ADB5BD"/>
</g>
</g>
</g>
</g>
</g>
</g>
</g>
</g>
</g>
<g id="Clip path group_6">
<mask id="mask5_356_3095" style="mask-type:luminance" maskUnits="userSpaceOnUse" x="0" y="0" width="130" height="22">
<g id="f">
<path id="Vector_11" d="M0.583984 0H129.771V22H0.583984V0Z" fill="white"/>
</g>
</mask>
<g mask="url(#mask5_356_3095)">
<g id="Group_7">
<g id="Clip path group_7">
<mask id="mask6_356_3095" style="mask-type:luminance" maskUnits="userSpaceOnUse" x="0" y="0" width="130" height="22">
<g id="g">
<path id="Vector_12" d="M0.583984 22H129.771V0H0.583984V22Z" fill="white"/>
</g>
</mask>
<g mask="url(#mask6_356_3095)">
<g id="Group_8">
<path id="Vector_13" d="M6.46917 14.5568L3.72412 14.5541V11.2613C3.72412 10.5561 3.99616 10.1911 4.5963 10.1061H6.46917C7.80478 10.1061 8.66875 10.9512 8.67011 12.3191C8.66875 13.724 7.82666 14.5555 6.46917 14.5555V14.5568ZM3.72412 5.67178V4.80467C3.72412 4.04596 4.04402 3.68512 4.74532 3.63847H6.15068C7.35506 3.63847 8.07686 4.36152 8.07686 5.57299C8.07686 6.49498 7.58197 7.57199 6.1944 7.57199H3.72412V5.67178ZM9.97434 8.95909L9.47805 8.6792L9.91143 8.30739C10.4159 7.87246 11.2594 6.89423 11.2594 5.20667C11.2594 2.62182 9.26346 0.95347 6.17254 0.95347H2.24358C1.80149 0.969648 1.38257 1.15591 1.0736 1.47366C0.764631 1.79141 0.589308 2.21629 0.583984 2.66024V17.3269H6.24221C9.67763 17.3269 11.895 15.45 11.895 12.5427C11.895 10.9773 11.1787 9.6396 9.97434 8.95909Z" fill="#ADB5BD"/>
<path id="Vector_14" d="M125.816 5.28398C125.12 5.28656 124.433 5.44607 123.807 5.75075C123.18 6.05543 122.63 6.49748 122.196 7.04426L121.953 7.35433L121.762 7.00721C121.136 5.86434 120.061 5.28398 118.567 5.28398C116.999 5.28398 115.948 6.16206 115.46 6.68342L115.14 7.03054L115.017 6.57366C114.839 5.9151 114.255 5.55427 113.372 5.55427H111.954L111.941 17.3809H115.16V12.1604C115.16 11.7022 115.218 11.2508 115.331 10.7775C115.639 9.51523 116.484 8.15832 117.904 8.29415C118.779 8.37921 119.208 9.05835 119.208 10.37V17.3809H122.451V12.1604C122.451 11.5883 122.504 11.1603 122.633 10.7322C122.892 9.52758 123.775 8.29278 125.145 8.29278C126.138 8.29278 126.504 8.8553 126.504 10.37V15.6522C126.504 16.8458 127.035 17.3809 128.225 17.3809H129.74L129.743 9.83079C129.743 6.81376 128.419 5.28398 125.816 5.28398ZM96.5149 13.2745C96.5053 13.2869 95.1205 14.7521 93.2955 14.7521C91.6331 14.7521 89.9544 13.7286 89.9544 11.4443C89.9544 9.47132 91.2558 8.09247 93.1205 8.09247C93.7248 8.09247 94.4138 8.30924 94.5218 8.67556L94.5368 8.7373C94.6057 8.9895 94.7556 9.21184 94.9632 9.36986C95.1708 9.52787 95.4245 9.61273 95.6851 9.61127L97.4486 9.61401V8.0664C97.4486 6.02486 94.8608 5.28398 93.1205 5.28398C89.3966 5.28398 86.6953 7.88529 86.6953 11.469C86.6953 15.0499 89.3666 17.6484 93.0522 17.6484C96.2484 17.6484 97.9873 15.5397 98.0037 15.5191L98.0966 15.4038L96.6994 13.0783L96.5149 13.2745Z" fill="#ADB5BD"/>
</g>
</g>
</g>
</g>
</g>
</g>
</g>
</g>
</svg>
