<svg width="16" height="17" viewBox="0 0 16 17" fill="none" xmlns="http://www.w3.org/2000/svg">
<g id="Icon">
<path id="Vector" d="M14.7196 9.30691L14.6129 9.25358V4.61358C14.6129 3.97358 14.3818 3.41358 13.9196 2.93358C13.4574 2.45358 12.9062 2.21358 12.2663 2.21358H3.73292C3.09292 2.21358 2.54181 2.45358 2.07958 2.93358C1.61736 3.41358 1.38625 3.97358 1.38625 4.61358V9.25358L1.33292 9.30691C1.04847 9.59136 0.90625 9.92914 0.90625 10.3202V14.1069C0.90625 14.2136 0.950694 14.3202 1.03958 14.4269C1.12847 14.5336 1.24403 14.5869 1.38625 14.5869H3.73292C3.91069 14.5869 4.03514 14.5158 4.10625 14.3736L4.95958 13.1469H11.0929L11.8929 14.3736C11.964 14.5158 12.0885 14.5869 12.2663 14.5869H14.6663C14.7729 14.5869 14.8707 14.5336 14.9596 14.4269C15.0485 14.3202 15.0929 14.2136 15.0929 14.1069V10.3202C15.0929 9.92914 14.9685 9.59136 14.7196 9.30691ZM3.73292 3.17358H12.2663C12.6574 3.17358 12.9951 3.3158 13.2796 3.60025C13.564 3.88469 13.7063 4.22247 13.7063 4.61358V7.44025C13.4929 7.1558 13.2174 6.92469 12.8796 6.74691C12.5418 6.56914 12.1774 6.49802 11.7863 6.53358H4.21292C3.53736 6.49802 2.98625 6.71136 2.55958 7.17358L2.29292 7.49358V4.61358C2.29292 4.22247 2.43514 3.88469 2.71958 3.60025C3.00403 3.3158 3.34181 3.17358 3.73292 3.17358ZM13.2263 8.88025H2.77292C2.77292 8.48914 2.91514 8.15136 3.19958 7.86691C3.48403 7.58247 3.82181 7.44025 4.21292 7.44025H11.7863C12.1774 7.44025 12.5151 7.58247 12.7996 7.86691C13.084 8.15136 13.2263 8.48914 13.2263 8.88025ZM14.1863 13.6269H12.5329L11.7329 12.4002C11.6263 12.258 11.484 12.1869 11.3063 12.1869H4.69292C4.51514 12.1869 4.37292 12.258 4.26625 12.4002L3.46625 13.6269H1.81292V10.3202C1.81292 10.178 1.86625 10.0625 1.97292 9.97358C2.07958 9.88469 2.18625 9.84025 2.29292 9.84025H13.7063C13.8129 9.84025 13.9196 9.88469 14.0262 9.97358C14.1329 10.0625 14.1863 10.178 14.1863 10.3202V13.6269Z" fill="#29ABE2"/>
</g>
</svg>
