<svg width="27" height="27" viewBox="0 0 27 27" fill="none" xmlns="http://www.w3.org/2000/svg">
<g id="heroicons:calendar">
<path id="Vector" d="M7.33864 3.66211V6.10826M18.754 3.66211V6.10826M3.26172 20.7852V8.55442C3.26172 7.90566 3.51944 7.28347 3.97818 6.82473C4.43692 6.36598 5.05911 6.10826 5.70787 6.10826H20.3848C21.0336 6.10826 21.6557 6.36598 22.1145 6.82473C22.5732 7.28347 22.831 7.90566 22.831 8.55442V20.7852M3.26172 20.7852C3.26172 21.4339 3.51944 22.0561 3.97818 22.5149C4.43692 22.9736 5.05911 23.2313 5.70787 23.2313H20.3848C21.0336 23.2313 21.6557 22.9736 22.1145 22.5149C22.5732 22.0561 22.831 21.4339 22.831 20.7852M3.26172 20.7852V12.6313C3.26172 11.9826 3.51944 11.3604 3.97818 10.9016C4.43692 10.4429 5.05911 10.1852 5.70787 10.1852H20.3848C21.0336 10.1852 21.6557 10.4429 22.1145 10.9016C22.5732 11.3604 22.831 11.9826 22.831 12.6313V20.7852" stroke="#0A2252" stroke-width="2.17436" stroke-linecap="round" stroke-linejoin="round"/>
</g>
</svg>
