<svg width="108" height="16" viewBox="0 0 108 16" fill="none" xmlns="http://www.w3.org/2000/svg">
<g id="Group 2">
<g id="Layer 3">
<g id="Group">
<path id="Vector" d="M6.80759 2.6686C9.1907 2.6686 10.5519 4.03441 10.2118 4.71731C9.53079 6.08312 7.14851 5.74207 7.14851 5.74207C8.1696 6.42498 10.5527 7.10788 11.9139 4.71731C12.8235 3.12095 10.5527 0.960938 7.14851 0.960938C4.08521 0.960938 0 3.00966 0 8.4729C0 13.2532 3.66944 15.3019 6.80759 15.3019C8.16878 15.3019 10.892 15.302 13.6152 13.2532C15.0268 12.1911 17.0194 10.8627 18.5213 10.5534C18.5213 10.5534 15.9153 10.6544 12.5941 12.2285C10.6121 13.1682 8.42019 13.2532 6.80759 13.2532C5.19499 13.2532 1.7021 12.5703 1.7021 8.4729C1.7021 4.03362 5.4464 2.66781 6.80759 2.66781V2.6686Z" fill="#212529"/>
<path id="Vector_2" d="M23.5454 14.7646C22.3087 14.1707 21.273 13.7168 20.151 13.7168C19.3195 13.7168 18.5571 14.0078 17.6686 14.4434L17.4994 14.5269L17.6719 14.6024C18.693 15.046 19.7751 15.2814 20.8898 15.3012C20.9402 15.302 20.9898 15.3028 21.0403 15.3028C21.8873 15.3028 22.7253 15.1764 23.5324 14.9268L23.7448 14.8608L23.5446 14.7646H23.5454Z" fill="#212529"/>
<path id="Vector_3" d="M27.607 13.5959C25.1605 13.5959 23.0638 10.5224 20.5049 10.6417C19.3064 10.6417 17.2968 11.6259 16.0625 12.6125C13.9772 14.2788 11.8805 15.3036 11.8805 15.3036C16.0568 15.3171 18.2634 12.5377 20.4187 12.5377C22.5406 12.5377 25.1857 15.3028 27.6062 15.3028C30.4116 15.3028 32.5335 10.1599 32.9916 9.27347C32.9875 9.25916 30.4018 13.5951 27.6062 13.5951L27.607 13.5959Z" fill="#212529"/>
<path id="Vector_4" d="M14.332 10.5311L14.4142 10.4954C14.9268 10.2712 15.384 10.1519 15.6769 10.0923L15.7819 10.0708L15.7396 9.97464C15.3596 9.12002 15.2026 8.17476 15.2848 7.24302C15.4182 5.73968 16.1423 4.37625 17.3245 3.40555C18.5067 2.43406 20.003 1.97217 21.544 2.10096C24.7204 2.36967 27.0815 5.11242 26.8065 8.2161C26.7081 9.32672 26.2825 10.3729 25.5747 11.2419L25.512 11.3285C25.4884 11.3564 25.4624 11.381 25.438 11.408C25.914 11.6807 26.3973 11.8962 26.8952 11.9995C27.7576 10.8754 28.2596 9.54534 28.3418 8.13422C28.4102 6.96239 28.1783 5.7826 27.673 4.72207L27.6421 4.67438C26.5323 2.39193 24.2501 0.841679 21.6742 0.623848C19.7337 0.457693 17.8404 1.04441 16.3482 2.2703C14.856 3.49619 13.9415 5.21657 13.7739 7.11503C13.6722 8.26539 13.8487 9.38714 14.2987 10.4501L14.3328 10.5311H14.332Z" fill="#212529"/>
<path id="Vector_5" d="M53.2777 13.6252H47.6336V2.72259C47.6336 1.85763 46.9266 1.15405 46.0568 1.15405H45.9697V15.1826L45.9803 15.2677V15.2788H54.3078V14.6492C54.3078 14.0847 53.8456 13.6252 53.2777 13.6252Z" fill="#212529"/>
<path id="Vector_6" d="M44.4101 8.81401L44.4149 8.80607L44.4125 8.78619C44.4141 8.7695 44.4158 8.75359 44.4149 8.75121C44.4182 8.73213 44.419 8.71703 44.4206 8.70192C44.4247 8.66217 44.428 8.62242 44.4288 8.58744L44.4353 8.52622V8.52225C44.4361 8.48091 44.4394 8.44434 44.4426 8.4038L44.4491 8.21299C44.4491 8.20663 44.4491 8.19868 44.4499 8.18755L44.4532 8.11759L44.4491 8.116C44.4491 8.07546 44.4491 8.03571 44.4491 7.99675V7.98324L44.454 7.97767L44.4491 7.9101L44.4507 7.90612V7.89022C44.4402 7.43548 44.3824 6.96961 44.2766 6.49818L44.2709 6.47353C44.2441 6.35508 44.214 6.23821 44.1782 6.11101L44.1196 5.91624C44.109 5.88046 44.0976 5.84389 44.0797 5.79301L44.0618 5.73816C44.0537 5.71669 44.0456 5.69602 44.0382 5.67456L43.9406 5.41062L43.9064 5.32555C43.8999 5.31045 43.8934 5.29614 43.8918 5.29296C43.8853 5.27626 43.8796 5.26275 43.8731 5.24685C43.8592 5.21346 43.8438 5.18006 43.8283 5.14985L43.808 5.10136L43.725 5.1276L43.7998 5.08069C43.7811 5.04412 43.7657 5.00994 43.7494 4.97257L43.6632 4.80085C43.6599 4.79608 43.6566 4.78893 43.6518 4.7778L43.6322 4.73487L43.6469 4.69035L43.5964 4.67285C43.5899 4.66172 43.5834 4.6498 43.5761 4.63867L43.5094 4.51465C43.4955 4.49001 43.4801 4.46616 43.4655 4.44231L43.4044 4.33896C43.3955 4.32306 43.3865 4.30636 43.3768 4.29046L43.393 4.24594L43.3345 4.22606C43.3288 4.21732 43.3214 4.20619 43.3117 4.19188L43.2783 4.13941L43.1978 4.17439L43.2661 4.11635L43.1392 3.92953C43.1262 3.91204 43.1123 3.89534 43.092 3.86354C43.0863 3.85639 43.0814 3.84924 43.0749 3.84208C43.0676 3.82777 43.0586 3.81903 43.0562 3.81664L43.0424 3.80154C43.0342 3.78564 43.0253 3.77371 43.0171 3.76337L42.9879 3.72522C42.9805 3.71488 42.9732 3.70534 42.9651 3.6958L42.9171 3.62584L42.9106 3.62346C42.8943 3.60199 42.878 3.58212 42.8617 3.56224L42.7934 3.61471L42.8414 3.5368L42.6087 3.26412C42.5949 3.24901 42.581 3.23232 42.5672 3.21642C42.5517 3.19893 42.5371 3.18143 42.52 3.16235L42.4842 3.12658C42.4557 3.10035 42.4289 3.07093 42.3963 3.03595L42.3614 3.00018C42.3467 2.98666 42.3321 2.97235 42.3182 2.95725C42.302 2.94135 42.2865 2.92545 42.2727 2.91273L42.0148 2.66389L42.0115 2.67343C42.0115 2.67343 42.0066 2.66946 42.0042 2.66707L41.8829 2.56293C41.7959 2.48899 41.7072 2.41744 41.6047 2.33873L41.5103 2.2656C41.4843 2.24493 41.4582 2.22505 41.4314 2.20518L41.3395 2.1376L41.337 2.14317L41.2703 2.09626L41.2605 2.04538L41.2085 2.05333C41.1483 2.01358 41.0864 1.97542 41.0246 1.93726L40.9302 1.87764C40.9139 1.86651 40.8976 1.85617 40.8773 1.84504L40.8301 1.81483L40.8228 1.76475L40.7602 1.77587L40.7227 1.75521C40.7016 1.74249 40.6796 1.72977 40.6471 1.70989L40.6161 1.69399C40.5803 1.67412 40.5486 1.65742 40.5299 1.64868L40.4461 1.60256C40.4266 1.59302 40.4062 1.58428 40.3786 1.56838C40.3688 1.56361 40.3582 1.55884 40.3468 1.55487C40.3314 1.54533 40.3151 1.53976 40.3013 1.53499C40.2866 1.52386 40.272 1.5175 40.2606 1.51273L40.2166 1.49206C40.2053 1.4865 40.1939 1.48173 40.2012 1.4865L40.1068 1.43641L40.0987 1.438C40.0743 1.42607 40.0507 1.41574 40.0263 1.4062L39.9913 1.48411L39.9962 1.39348L39.5999 1.23448C39.578 1.22573 39.556 1.21699 39.5316 1.20825L39.4828 1.19235C39.4453 1.18201 39.4079 1.16849 39.3623 1.1518L39.2916 1.12954L39.2647 1.21063L39.2696 1.12318C39.2435 1.11444 39.2167 1.10648 39.1939 1.10012L39.1654 1.09217L39.1419 1.17406L39.1402 1.08502L39.1191 1.07866C39.106 1.07389 39.093 1.07151 39.0873 1.06992L38.8481 0.99757L38.8498 1.00791C38.8172 0.999955 38.7839 0.992802 38.7513 0.984852L38.6276 0.956228C38.4421 0.915683 38.2729 0.883089 38.1118 0.857649L37.9938 0.839365V0.844931L37.9613 0.840161H37.9597C37.7904 0.816311 37.6204 0.799615 37.4536 0.78928H37.4446H37.4341C37.4096 0.786895 37.3852 0.785305 37.36 0.78451C37.338 0.783715 37.3153 0.782921 37.2933 0.780536H37.2843L37.2697 0.778149H37.2616C37.2494 0.778149 37.2412 0.778946 37.2404 0.780536L37.1265 0.77497L37.1151 0.772583L37.0752 0.774175L37.0785 0.858445L37.0516 0.774175C37.0394 0.774175 37.0289 0.774174 37.0175 0.773379C37.0012 0.772584 36.9857 0.771789 36.9516 0.773379H36.9369C36.928 0.771789 36.915 0.773379 36.9052 0.773379C36.8995 0.773379 36.8938 0.773379 36.8873 0.773379H36.8442C36.8336 0.773379 36.823 0.774175 36.8263 0.77497L36.7124 0.777353L36.6969 0.775766L36.3674 0.79405C36.343 0.79564 36.3186 0.798026 36.2942 0.800411C36.2722 0.802796 36.2494 0.805178 36.2201 0.807563L36.1884 0.812333C36.164 0.813923 36.1412 0.81631 36.1184 0.818695C36.0973 0.82108 36.0769 0.822671 36.0476 0.825056L35.6815 0.87832C35.6726 0.8815 35.6612 0.883092 35.6465 0.885477C35.6237 0.888657 35.601 0.892628 35.579 0.896603C35.5603 0.899783 35.5424 0.903758 35.5237 0.906143C35.5123 0.907733 35.5017 0.910119 35.47 0.917274C35.1925 0.973719 34.9061 1.04845 34.6181 1.13987L34.5506 1.14464L34.5538 1.17406L34.4904 1.19473C34.4733 1.20029 34.4562 1.20586 34.448 1.20904C34.4415 1.21063 34.4342 1.21301 34.4277 1.2154L34.3756 1.20268L34.3618 1.24004C34.3561 1.24243 34.3496 1.24402 34.3423 1.2472C34.3317 1.24959 34.3219 1.25277 34.2992 1.26231C34.2886 1.26628 34.2788 1.26946 34.2577 1.27979L34.0282 1.36963C34.0201 1.37201 34.0128 1.37599 34.0014 1.38076C33.9778 1.3911 33.9542 1.40063 33.9314 1.40938L33.7711 1.48173L33.8037 1.56043L33.7467 1.49365C33.7312 1.5008 33.7166 1.50796 33.7003 1.51432C33.6881 1.51909 33.6548 1.53579 33.6255 1.55089C33.6238 1.55169 33.6222 1.55248 33.6198 1.55327L33.6108 1.5501L33.575 1.57156C33.575 1.57156 33.523 1.60336 33.4758 1.62483L33.3399 1.69637V1.69796L33.2968 1.72102C33.239 1.75123 33.1804 1.78223 33.1218 1.81562L33.0885 1.83073L33.0812 1.84027C33.069 1.84742 33.0568 1.85458 33.0454 1.86173C33.0266 1.87286 33.0079 1.884 32.9884 1.89433L32.8509 1.98337C32.8444 1.98655 32.8314 1.99212 32.82 2.00325C32.8135 2.00722 32.8078 2.01119 32.8013 2.01437L32.8029 2.01835H32.8013L32.8371 2.09229L32.7817 2.0263L32.7541 2.04538C32.7411 2.05412 32.7313 2.06446 32.7321 2.06128C32.7118 2.07082 32.6963 2.08195 32.6841 2.09229C32.6752 2.09706 32.6662 2.10183 32.6621 2.1066L32.632 2.12885C32.6223 2.13521 32.6093 2.14396 32.5881 2.15827L32.5678 2.17337C32.5604 2.17894 32.5523 2.18451 32.545 2.19007C32.5352 2.19564 32.5271 2.2012 32.5214 2.20597L32.4848 2.23221C32.4571 2.25288 32.4319 2.27195 32.3961 2.29898C32.3896 2.30296 32.3798 2.30932 32.3709 2.31886C32.3318 2.34509 32.296 2.37292 32.2635 2.39995C32.2545 2.40631 32.2472 2.41267 32.2342 2.42539C32.1959 2.45401 32.1585 2.48263 32.1211 2.51523C32.1138 2.52238 32.1064 2.52715 32.0918 2.53828C32.0593 2.5669 32.0275 2.59472 31.995 2.62175C31.9828 2.6305 31.9689 2.64322 31.9559 2.65594C31.938 2.67104 31.9217 2.68695 31.9047 2.70285L31.7867 2.81097C31.7688 2.82687 31.7525 2.84277 31.724 2.86662L31.6036 2.98746C31.5906 2.99938 31.5743 3.01448 31.5743 3.01925C31.554 3.03833 31.5353 3.0606 31.5174 3.08206L31.4881 3.11466C31.4767 3.12658 31.4645 3.1393 31.4588 3.14566C31.4547 3.14884 31.4507 3.15282 31.4474 3.15679L31.4181 3.18939C31.4002 3.20608 31.3856 3.22278 31.3831 3.22993L31.3587 3.25299L31.4287 3.30307L31.3433 3.27127C31.3302 3.2824 31.318 3.29751 31.3099 3.30864C31.2944 3.32454 31.2806 3.34202 31.2554 3.37144L31.2245 3.40562C31.2082 3.42311 31.1919 3.4406 31.1789 3.45571L31.0878 3.57019L31.1057 3.58291L31.1008 3.59802L31.0731 3.58768L30.96 3.73237L30.9348 3.72522L30.9104 3.79279C30.9031 3.80313 30.8966 3.81346 30.8893 3.82379L30.8624 3.85878C30.8624 3.85878 30.825 3.91681 30.8087 3.94066C30.8063 3.94384 30.7892 3.96849 30.7786 3.98359L30.7314 4.05117C30.7005 4.09489 30.6696 4.13862 30.6354 4.19347C30.6281 4.20063 30.6183 4.21176 30.6118 4.22766L30.5386 4.34373L30.5239 4.36837L30.6004 4.40892L30.5125 4.38745L30.4768 4.44151V4.44549L30.4288 4.53373C30.4109 4.55996 30.3978 4.58382 30.3905 4.59972C30.384 4.60926 30.3791 4.618 30.371 4.64106L30.3425 4.68955C30.336 4.6983 30.3311 4.70784 30.3165 4.73566C30.3059 4.75474 30.2953 4.77303 30.2872 4.7929C30.2774 4.80801 30.2758 4.81516 30.279 4.81039L30.2034 4.95747L30.1456 5.09023C30.1301 5.10931 30.1228 5.12919 30.1204 5.13873L30.0512 5.29773C30.0415 5.31919 30.0325 5.34145 30.0236 5.36292C30.0154 5.38279 30.0073 5.40187 29.9967 5.42731L29.9821 5.46627C29.9747 5.48614 29.9674 5.50522 29.9593 5.5243C29.9503 5.54577 29.9422 5.56644 29.9341 5.5887L29.9186 5.63083C29.9113 5.6515 29.9048 5.67297 29.8975 5.69443C29.8909 5.71431 29.8853 5.73339 29.8787 5.75167L29.8478 5.83912C29.8421 5.86297 29.8324 5.8892 29.8185 5.93452C29.8177 5.94167 29.8136 5.94963 29.8096 5.96314L29.7185 6.27717C29.6054 6.71362 29.5362 7.18029 29.5118 7.67001V7.69386L29.5085 7.70499L29.5061 7.8457C29.5061 7.85206 29.5037 7.86399 29.5061 7.86796L29.5037 8.0063C29.5037 8.08182 29.5053 8.15814 29.5077 8.22412V8.25036L29.5045 8.26149L29.524 8.5294C29.5199 8.55246 29.5224 8.57154 29.524 8.58426L29.5346 8.72497L29.5395 8.75518C29.5411 8.77903 29.5435 8.80288 29.5468 8.82673C29.5492 8.8474 29.5517 8.86807 29.5533 8.8951L29.5598 8.93565C29.5631 8.95632 29.5647 8.97699 29.5671 8.99766C29.5696 9.01992 29.572 9.04297 29.5753 9.06603L29.5818 9.11055C29.585 9.13122 29.5891 9.15348 29.594 9.17574C29.598 9.19641 29.6021 9.21628 29.6046 9.23536L29.6192 9.32759C29.6257 9.35144 29.6298 9.37846 29.6395 9.42537C29.6412 9.42934 29.6428 9.44206 29.6452 9.45478L29.7152 9.77358C29.7901 10.0701 29.8909 10.373 30.0236 10.6966L30.0146 10.7013L30.1887 11.0742L30.2733 11.0217C30.7038 10.757 31.0756 10.4318 31.3799 10.055L31.4083 10.02L31.3953 9.97948H31.4002L31.3652 9.87772C31.1569 9.27988 31.052 8.66137 31.0552 8.03173C31.0536 8.0047 31.0552 7.97767 31.0569 7.93077L31.0593 7.84411C31.0601 7.82424 31.0609 7.80675 31.0585 7.80675C31.0593 7.79562 31.0609 7.78369 31.0626 7.77495L31.065 7.75825V7.75666V7.75428V7.73997C31.065 7.72884 31.065 7.71771 31.0658 7.70658C31.0666 7.69068 31.0674 7.67557 31.0658 7.67001L31.0707 7.6239C31.0731 7.59369 31.0756 7.56268 31.0805 7.51419L31.0829 7.49034C31.0853 7.46172 31.087 7.4331 31.0927 7.40209C31.0951 7.38858 31.0984 7.36791 31.0984 7.35042C31.1024 7.32259 31.1065 7.29636 31.1089 7.26853C31.1114 7.25979 31.113 7.24786 31.113 7.23514L31.1374 7.10794C31.1626 6.95451 31.1944 6.80107 31.2359 6.63889L31.2424 6.61822C31.2464 6.60709 31.2497 6.59596 31.2521 6.58562C31.401 6.0323 31.6305 5.5092 31.9331 5.0306C32.0365 4.86286 32.165 4.68637 32.3261 4.49001L32.4254 4.36837C32.462 4.32385 32.4994 4.27854 32.5385 4.23481L32.5718 4.20142C32.6141 4.15531 32.6589 4.11079 32.7036 4.06627L32.7679 4.00187C32.8143 3.95497 32.8607 3.90807 32.9079 3.86434L32.99 3.79279C33.0494 3.74032 33.1096 3.68865 33.1715 3.63856L33.1934 3.62027C33.2 3.61471 33.2065 3.60915 33.2219 3.59802C33.2862 3.54555 33.3513 3.49784 33.4172 3.45014L33.4497 3.42629C33.4766 3.40642 33.5026 3.38654 33.5327 3.36587L33.6816 3.2665C33.7321 3.2339 33.7833 3.20211 33.8362 3.17031C33.8704 3.14884 33.9037 3.12817 33.9493 3.10194C33.9558 3.09796 33.9623 3.09398 33.9859 3.08365C34.0518 3.04469 34.1153 3.00892 34.182 2.97633L34.1999 2.96837C34.2479 2.94293 34.2959 2.91829 34.3431 2.89524C34.4001 2.86821 34.457 2.84197 34.5148 2.81733C34.719 2.72749 34.9094 2.65356 35.0973 2.59314L35.1437 2.57803C35.3772 2.5041 35.6172 2.44447 35.8564 2.39995L35.9272 2.38723C35.9907 2.37689 36.055 2.36656 36.1176 2.35781C36.3267 2.3284 36.5155 2.31011 36.6888 2.30296H36.7132C36.7905 2.29819 36.8629 2.29501 36.9377 2.2966L36.9426 2.29819H36.9581C37.0224 2.29739 37.0866 2.2966 37.1485 2.29819L37.155 2.30137L37.2534 2.30296C37.3405 2.30773 37.4267 2.31329 37.526 2.32283C37.5594 2.32522 37.5935 2.32919 37.6261 2.33317L37.6822 2.33953C37.8864 2.36338 38.0858 2.39757 38.2762 2.43891L38.3079 2.44606C38.3242 2.44924 38.3404 2.45242 38.3746 2.46117C38.425 2.47309 38.4747 2.48661 38.5251 2.50092L38.7586 2.5661C38.8188 2.58518 38.8799 2.60506 38.9393 2.62573C38.971 2.63686 39.0027 2.64799 39.0336 2.65992L39.1117 2.68854C39.1484 2.70205 39.185 2.71477 39.2313 2.73306C39.2671 2.74737 39.3029 2.76247 39.3387 2.77837L39.3794 2.79586C39.4876 2.84277 39.595 2.89126 39.6984 2.94214L39.7179 2.95248C39.8115 2.99938 39.9026 3.05105 39.9929 3.10273L40.1231 3.17905C40.193 3.22119 40.2614 3.2673 40.3306 3.3142L40.4135 3.36985C40.4363 3.38496 40.4591 3.39926 40.4754 3.41039C40.486 3.41993 40.4974 3.42789 40.5275 3.44856L40.5462 3.46287C40.5803 3.48831 40.6129 3.51375 40.6454 3.53919L40.7219 3.59802C40.7764 3.64174 40.8301 3.68547 40.8879 3.73635L40.909 3.75463C40.9188 3.76338 40.9294 3.77212 40.9343 3.7761C41.027 3.85878 41.1149 3.94305 41.1995 4.02334C41.2231 4.04958 41.2491 4.07502 41.2744 4.09887L41.3346 4.03765L41.2906 4.11715C41.3639 4.19427 41.4371 4.27297 41.5095 4.35724L41.5868 4.44787C41.7699 4.67047 41.9236 4.88433 42.0554 5.09898L42.0766 5.13396C42.149 5.25003 42.2214 5.382 42.3052 5.54974C42.3166 5.572 42.328 5.59426 42.3451 5.62924L42.424 5.59347L42.354 5.64991L42.4102 5.77314C42.4354 5.83117 42.4606 5.88841 42.4842 5.94565C42.4924 5.96553 42.4997 5.9862 42.5062 6.00607L42.5241 6.05616C42.5957 6.24537 42.6591 6.4465 42.7128 6.65479L42.7307 6.72316C42.743 6.76848 42.7543 6.813 42.7649 6.85911C42.7926 6.98631 42.817 7.1143 42.8365 7.24309C42.8609 7.40766 42.878 7.58017 42.8878 7.75428C42.8943 7.92282 42.8959 8.05161 42.8918 8.17245L42.8902 8.24559C42.8894 8.29249 42.8886 8.3386 42.8845 8.39584C42.8845 8.40618 42.8845 8.41651 42.8813 8.44275L42.878 8.50794L42.8699 8.58187C42.8699 8.593 42.8699 8.60573 42.865 8.62719L42.8536 8.71464C42.8398 8.8323 42.8219 8.97142 42.7942 9.10975L42.7617 9.25286C42.747 9.31805 42.7291 9.38323 42.712 9.44763L42.7015 9.48499C42.6421 9.70759 42.5672 9.93337 42.4769 10.1536C42.4549 10.2084 42.4321 10.2633 42.4077 10.3182C42.2963 10.571 42.171 10.8095 42.0367 11.0265C41.9366 11.1871 41.8317 11.3389 41.7178 11.4876L41.7869 11.5393L41.7015 11.5083C41.6747 11.5401 41.6494 11.5727 41.625 11.6045L41.4843 11.7682C41.468 11.7881 41.4501 11.8072 41.4257 11.8326C41.4135 11.8461 41.4005 11.8597 41.3883 11.8724L41.3565 11.9058C41.2711 11.9964 41.184 12.0862 41.0937 12.1721L41.1548 12.2333L41.0701 12.1936C40.9644 12.2921 40.8586 12.3844 40.7455 12.475C40.5445 12.6364 40.3232 12.7906 40.0881 12.9321L40.0612 12.9472C39.9937 12.9886 39.9213 13.0267 39.8489 13.0641L39.7708 13.1054C39.7252 13.1301 39.6797 13.1547 39.6325 13.1778L39.5983 13.1945C39.5438 13.2215 39.4901 13.2477 39.4348 13.2764L39.4112 13.2835C39.2362 13.3606 39.0564 13.4234 38.8896 13.4799L38.8302 13.5005C38.8026 13.5109 38.7741 13.5204 38.7383 13.5315L38.6276 13.5625C38.53 13.5896 38.4316 13.6166 38.3315 13.6389C38.2949 13.6476 38.2582 13.6556 38.2208 13.6627C38.1557 13.6762 38.0907 13.6874 38.0256 13.6985L38.002 13.7025C37.8872 13.7223 37.7725 13.7374 37.6529 13.7518C37.5992 13.7581 37.5447 13.7637 37.4894 13.7685C37.4739 13.77 37.4585 13.7716 37.4218 13.7732C37.4113 13.7732 37.3999 13.7732 37.3804 13.778H37.3291C37.2306 13.7852 37.1289 13.7859 37.0281 13.7851H36.9996C36.9052 13.7859 36.81 13.7875 36.7181 13.7828L36.6782 13.7812C36.5976 13.7772 36.5171 13.7708 36.4366 13.7637L36.4032 13.7613C36.3763 13.7589 36.3495 13.7565 36.3235 13.7541C36.2299 13.7438 36.1371 13.7319 36.0273 13.7152L36.0013 13.712C35.9516 13.7041 35.9028 13.6945 35.854 13.6842L35.7523 13.6643C35.7108 13.6564 35.6701 13.6476 35.6278 13.6381C35.5391 13.6182 35.4513 13.5959 35.3593 13.5705C35.3455 13.5657 35.3341 13.5626 35.3186 13.5586C35.2129 13.5284 35.1079 13.491 35.0029 13.4552L34.9061 13.4218C34.8785 13.4123 34.85 13.4036 34.8036 13.3861L34.6189 13.3105C34.6083 13.305 34.5969 13.3002 34.5774 13.2946L34.5522 13.2811C34.5302 13.2732 34.5115 13.2644 34.4814 13.2493C34.4733 13.2461 34.4659 13.243 34.4578 13.2398C34.4497 13.2358 34.4415 13.2326 34.4334 13.2294C34.4285 13.2271 34.4236 13.2239 34.4171 13.2215L34.3626 13.1945C34.2186 13.1245 34.0998 13.0625 33.9875 12.9973L33.9648 12.9854C33.7695 12.8741 33.5791 12.7501 33.3863 12.607C33.2056 12.4726 33.0323 12.3287 32.8729 12.1785C32.7655 12.0775 32.663 11.9678 32.5613 11.8589L32.4791 11.7706L32.4205 11.8756C32.178 12.3057 31.9087 12.6825 31.6207 12.9949L31.5711 13.0577L31.6272 13.115C31.6825 13.1714 31.7411 13.2247 31.8005 13.2787L31.8705 13.3431C31.9584 13.425 32.0479 13.5037 32.1365 13.5777C32.1455 13.5856 32.1544 13.5928 32.1642 13.5999L32.3391 13.7375C32.366 13.7581 32.3928 13.7772 32.4197 13.7971L32.523 13.8734C32.5458 13.8909 32.5686 13.9084 32.5914 13.9251L32.6223 13.9481C32.6442 13.9648 32.6654 13.9807 32.6866 13.9934L32.7142 14.0109C32.737 14.0268 32.7598 14.0411 32.7817 14.0555C32.8053 14.0706 32.8289 14.0857 32.855 14.1039C32.8826 14.1214 32.9103 14.1373 32.938 14.1532L33.0559 14.2264C33.0926 14.2494 33.1284 14.2733 33.1633 14.294C33.191 14.3106 33.2187 14.3258 33.2463 14.3401C33.2691 14.352 33.2911 14.3639 33.3122 14.3766L33.3326 14.3886C33.344 14.3957 33.3545 14.4021 33.3659 14.4084L33.3928 14.4196C33.4188 14.4363 33.4481 14.4506 33.479 14.4649L33.5685 14.5102C33.584 14.5197 33.5978 14.5253 33.6019 14.5253L33.6198 14.5348L33.6173 14.5428L33.6906 14.5746C33.7264 14.5905 33.7654 14.6072 33.8175 14.631L33.8435 14.6453C33.8696 14.6541 33.898 14.6668 33.933 14.6827L33.955 14.6922C33.9672 14.6978 33.9802 14.7042 33.9737 14.6986C33.9884 14.7081 34.003 14.7129 34.0079 14.7137L34.0307 14.7248C34.0445 14.7304 34.0591 14.7352 34.0754 14.7407L34.121 14.7622C34.1438 14.771 34.1674 14.7781 34.1909 14.7853L34.3195 14.8322C34.3602 14.8497 34.4017 14.8671 34.4424 14.8799C34.4773 14.8926 34.5123 14.9061 34.5685 14.9228L34.6197 14.9403C34.6352 14.9466 34.6515 14.9506 34.6685 14.9538L34.7019 14.9649C34.7239 14.9721 34.7458 14.98 34.7678 14.9864C34.9134 15.0301 35.0688 15.0707 35.2544 15.1136C35.2747 15.1192 35.295 15.1223 35.3154 15.1263L35.3585 15.1359C35.3723 15.139 35.3862 15.1414 35.4211 15.1478L35.4944 15.1629C35.5554 15.1764 35.6164 15.1899 35.675 15.1987L35.7946 15.2146C35.8833 15.2305 35.9712 15.244 36.0598 15.2543C36.0932 15.2591 36.1266 15.2623 36.1575 15.2646C36.1851 15.267 36.2128 15.2702 36.2454 15.2742C36.2714 15.2766 36.2966 15.2782 36.3218 15.279L36.426 15.2869C36.5317 15.2964 36.6375 15.306 36.7457 15.31H36.7848C36.797 15.31 36.8084 15.3108 36.8198 15.3116H36.8661C36.8979 15.3139 36.9255 15.3147 36.9678 15.3116C36.9817 15.3131 36.9931 15.3131 37.0167 15.3139C37.0525 15.3123 37.0874 15.3108 37.1216 15.3123L37.1908 15.3108C37.2022 15.3131 37.2144 15.3131 37.2274 15.3108C37.2616 15.3084 37.2974 15.306 37.3486 15.3044L37.3633 15.3068L37.3779 15.3044C37.4064 15.3004 37.4389 15.2988 37.4772 15.2972C37.4861 15.2964 37.4943 15.2956 37.5032 15.2956C37.5154 15.2949 37.5276 15.2941 37.5195 15.2925C37.5439 15.2949 37.5642 15.2925 37.5821 15.2893C37.622 15.2853 37.6635 15.2798 37.7156 15.2734L37.849 15.2591C37.8832 15.2551 37.9173 15.2511 37.9507 15.248L37.9588 15.2511L37.9889 15.2424C37.9971 15.24 38.0052 15.2392 38.0199 15.2384C38.05 15.2368 38.0817 15.2313 38.1118 15.2257L38.2005 15.2114C38.2534 15.2034 38.3071 15.1955 38.3608 15.1859C38.3803 15.182 38.4006 15.178 38.4202 15.1724L38.4885 15.1597L38.4926 15.1581C38.5007 15.1565 38.5097 15.1541 38.5178 15.1518L38.6138 15.1311C38.6944 15.1144 38.7741 15.0977 38.8522 15.0778C38.9059 15.0651 38.9572 15.0508 39.0092 15.0349L39.058 15.0206C39.0727 15.0166 39.0882 15.0134 39.1028 15.0102C39.1256 15.0047 39.1492 14.9999 39.1711 14.9928L39.3949 14.922H39.3965L39.4364 14.9085L39.4282 14.9061L39.4315 14.9045C39.4421 14.9013 39.4535 14.8966 39.4811 14.8862C39.5129 14.8775 39.5413 14.8671 39.5747 14.8552L39.6081 14.8417C39.6276 14.8385 39.6422 14.8322 39.6487 14.829L39.8481 14.7495C39.8595 14.7463 39.8692 14.7431 39.879 14.7391L40.1833 14.6096C40.2101 14.5984 40.237 14.5881 40.263 14.5754L40.2972 14.5579C40.3086 14.5515 40.3208 14.546 40.333 14.5404C40.3476 14.534 40.3623 14.5269 40.3712 14.5213C40.3997 14.5086 40.4241 14.4967 40.4607 14.4752C40.4778 14.4681 40.4892 14.4625 40.5047 14.4545C40.5356 14.4371 40.5665 14.4204 40.6096 14.3989C40.6161 14.3941 40.6202 14.3925 40.6292 14.3886L40.7797 14.3027C40.7797 14.3027 40.7813 14.3019 40.7829 14.3011L40.7846 14.3106L40.9343 14.2105C40.9424 14.2065 40.9497 14.2009 40.9644 14.1914L41.1271 14.0896C41.1596 14.0682 41.1922 14.0467 41.2247 14.0244L41.3004 13.9736L41.3329 13.9497C41.337 13.9457 41.3427 13.941 41.3573 13.933C41.3834 13.9179 41.4086 13.8988 41.4322 13.8805C41.4566 13.8631 41.4794 13.8448 41.5022 13.8265L41.564 13.7804C41.5868 13.7637 41.6104 13.747 41.6372 13.7255C41.6429 13.72 41.6503 13.7152 41.6698 13.7009L41.8146 13.5824C41.8236 13.5753 41.8325 13.5689 41.8349 13.5657C41.8846 13.526 41.935 13.4831 41.9806 13.4409L42.0058 13.4202C42.0148 13.4131 42.0221 13.4067 42.0237 13.4028C42.0465 13.3837 42.0676 13.363 42.0896 13.3423L42.1108 13.3225C42.1303 13.305 42.1506 13.2883 42.171 13.2708C42.2011 13.2453 42.2304 13.2207 42.258 13.1945L42.4289 13.0251H42.424L42.4403 13.0045L42.4557 12.9878C42.4631 12.9798 42.4696 12.9727 42.4907 12.9496L42.5143 12.925C42.5257 12.913 42.5379 12.9011 42.5501 12.8868L42.5664 12.8677L42.4997 12.8129L42.5452 12.8319L42.5672 12.863C42.5827 12.8526 42.5965 12.8399 42.603 12.8304L42.926 12.4464C42.9439 12.4249 42.9602 12.4026 42.9773 12.3804L43.1156 12.1936L43.044 12.1443L43.1367 12.1626L43.1498 12.1443C43.1636 12.1252 43.1782 12.1053 43.1872 12.091L43.3133 11.901L43.3621 11.8223C43.376 11.8064 43.3849 11.7913 43.3947 11.773L43.5126 11.575C43.5265 11.552 43.5362 11.5345 43.5403 11.5234C43.568 11.4797 43.594 11.4312 43.6208 11.3787C43.6282 11.3668 43.6371 11.3525 43.6388 11.3453L43.7706 11.0774C43.7901 11.0376 43.8096 10.9987 43.83 10.9518C43.8324 10.9446 43.8365 10.9375 43.847 10.916L43.9178 10.7451C43.9219 10.7355 43.9268 10.7252 43.9276 10.722C43.952 10.6648 43.9764 10.6036 43.9951 10.5471L43.9154 10.5121L44.0033 10.5272C44.0114 10.5097 44.0163 10.4954 44.0155 10.4931L44.0521 10.3889C44.0618 10.3627 44.0716 10.3356 44.0765 10.3166L44.109 10.2347V10.2299L44.1424 10.113L44.1554 10.0876V10.0781C44.1554 10.0781 44.157 10.0701 44.1587 10.0653L44.1619 10.0566C44.1643 10.0494 44.1676 10.0407 44.1692 10.028C44.1766 10.0105 44.1814 9.99141 44.1855 9.97392C44.1912 9.94848 44.1977 9.92542 44.2067 9.89998L44.2848 9.58516V9.57721C44.2872 9.56847 44.2888 9.55972 44.288 9.55972L44.3409 9.30532L44.2571 9.27909L44.3442 9.28068L44.349 9.25762V9.2449L44.3588 9.19641L44.2726 9.18369L44.3629 9.17335L44.3832 9.05251C44.3848 9.03979 44.3873 9.02389 44.3889 9.00799L44.4036 8.89431V8.85933L44.4141 8.81958V8.81481L44.4101 8.81401ZM32.8688 2.07082L32.8509 2.05651L32.8371 2.02789L32.8688 2.07002V2.07082ZM42.3532 12.9655V12.9639L42.3679 12.975V12.9766L42.354 12.9647L42.3532 12.9655Z" fill="#212529"/>
<path id="Vector_7" d="M64.8775 2.27828L60.6109 12.5624L56.3442 2.27828C56.031 1.52382 55.1197 1.14858 54.3077 1.43876L59.8542 14.8067C59.9779 15.104 60.2871 15.2829 60.6109 15.2742C60.9355 15.2829 61.2447 15.104 61.3675 14.8067L66.914 1.43876C66.102 1.14779 65.1908 1.52382 64.8775 2.27828Z" fill="#212529"/>
<path id="Vector_8" d="M65.5447 13.1412C67.9213 11.7221 68.5445 11.1672 69.6234 10.9446C69.6234 10.9446 68.254 10.8492 66.115 11.5981L65.5447 13.1404V13.1412Z" fill="#212529"/>
<path id="Vector_9" d="M89.973 13.1412C92.3496 11.7221 92.9728 11.1672 94.0517 10.9446C94.0517 10.9446 92.6824 10.8492 90.5434 11.5981L89.973 13.1404V13.1412Z" fill="#212529"/>
<path id="Vector_10" d="M70.0587 1.81005C69.935 1.51272 69.6259 1.33385 69.302 1.34259C68.9774 1.33385 68.6682 1.51272 68.5454 1.81005L62.9989 15.178C63.8109 15.469 64.7222 15.0929 65.0354 14.3385L69.302 4.05434L73.5687 14.3385C73.8819 15.0929 74.7932 15.4682 75.6052 15.178L70.0587 1.81005Z" fill="#212529"/>
<path id="Vector_11" d="M87.2051 12.6228C85.3711 13.2883 83.442 13.3558 81.9775 13.3558C80.3218 13.3558 76.7353 12.6729 76.7353 8.5755C76.7353 4.13622 80.5797 2.7704 81.9775 2.7704C84.4241 2.7704 85.8219 4.13622 85.472 4.81912C84.7731 6.18493 82.3266 5.84388 82.3266 5.84388C83.3753 6.52678 85.8211 7.20969 87.2189 4.81912C88.1529 3.22276 85.8211 1.06274 82.3266 1.06274C79.1811 1.06274 74.9877 3.11146 74.9877 8.5747C74.9877 13.355 78.7548 15.4038 81.9767 15.4038C83.4331 15.4038 85.0066 15.0373 86.4142 14.5269L87.2042 12.6221L87.2051 12.6228Z" fill="#212529"/>
<path id="Vector_12" d="M94.9296 1.81005C94.8059 1.51272 94.4967 1.33385 94.1729 1.34259C93.8483 1.33385 93.5391 1.51272 93.4162 1.81005L87.8698 15.178C88.6817 15.469 89.593 15.0929 89.9062 14.3385L94.1729 4.05434L98.4395 14.3385C98.7528 15.0929 99.6641 15.4682 100.476 15.178L94.9296 1.81005Z" fill="#212529"/>
<path id="Vector_13" d="M107.882 1.31935C106.986 1.29709 106.1 1.65167 105.903 2.11277L103.559 7.59429L101.215 2.11277C101.018 1.65167 100.132 1.29709 99.2361 1.31935L102.729 9.4856C102.735 9.49832 102.741 9.51104 102.749 9.52376C102.746 9.57464 102.763 9.62313 102.796 9.66606V14.6253C102.796 14.9973 103.104 15.2994 103.486 15.2994H103.624C104.005 15.2994 104.314 14.9981 104.314 14.6253V9.67958C104.354 9.63267 104.373 9.57941 104.37 9.52376C104.377 9.51104 104.385 9.49832 104.39 9.4856L107.883 1.31935H107.882Z" fill="#212529"/>
</g>
</g>
</g>
</svg>
