<svg width="167" height="24" viewBox="0 0 167 24" fill="none" xmlns="http://www.w3.org/2000/svg">
<g id="Group 2">
<g id="Layer 3">
<g id="Group">
<path id="Vector" d="M10.4892 3.62798C14.161 3.62798 16.2584 5.77282 15.7344 6.84524C14.6851 8.99009 11.0144 8.4545 11.0144 8.4545C12.5877 9.52693 16.2596 10.5993 18.357 6.84524C19.7585 4.33834 16.2596 0.946289 11.0144 0.946289C6.2945 0.946289 0 4.16357 0 12.743C0 20.2499 5.65389 23.4672 10.4892 23.4672C12.5865 23.4672 16.7824 23.4672 20.9783 20.2499C23.1534 18.582 26.2235 16.4958 28.5377 16.0102C28.5377 16.0102 24.5223 16.1687 19.405 18.6407C16.3511 20.1163 12.9739 20.2499 10.4892 20.2499C8.00445 20.2499 2.6226 19.1775 2.6226 12.743C2.6226 5.77158 8.39182 3.62673 10.4892 3.62673V3.62798Z" fill="white"/>
<path id="Vector_2" d="M36.2786 22.623C34.3731 21.6904 32.7772 20.9775 31.0485 20.9775C29.7673 20.9775 28.5926 21.4345 27.2236 22.1186L26.9629 22.2497L27.2287 22.3683C28.802 23.065 30.4693 23.4345 32.1868 23.4657C32.2645 23.467 32.341 23.4682 32.4187 23.4682C33.7237 23.4682 35.015 23.2697 36.2586 22.8777L36.5858 22.7741L36.2774 22.623H36.2786Z" fill="white"/>
<path id="Vector_3" d="M42.5372 20.7879C38.7675 20.7879 35.5369 15.9614 31.5942 16.1487C29.7476 16.1487 26.6511 17.6942 24.7493 19.2436C21.5363 21.8603 18.3057 23.4696 18.3057 23.4696C24.7406 23.4908 28.1404 19.1262 31.4613 19.1262C34.7308 19.1262 38.8063 23.4683 42.5359 23.4683C46.8584 23.4683 50.1279 15.3921 50.8337 14.0001C50.8274 13.9776 46.8434 20.7867 42.5359 20.7867L42.5372 20.7879Z" fill="white"/>
<path id="Vector_4" d="M22.0827 15.9747L22.2093 15.9186C22.9991 15.5665 23.7036 15.3792 24.1549 15.2856L24.3167 15.2519L24.2515 15.1008C23.666 13.7587 23.4241 12.2743 23.5507 10.8111C23.7563 8.45029 24.872 6.30919 26.6935 4.78483C28.5151 3.25921 30.8205 2.53386 33.1949 2.73611C38.0891 3.15809 41.7271 7.46526 41.3034 12.3392C41.1517 14.0833 40.4961 15.7263 39.4054 17.0909L39.3089 17.2269C39.2725 17.2706 39.2324 17.3093 39.1948 17.3518C39.9282 17.78 40.6728 18.1183 41.44 18.2806C42.7689 16.5153 43.5424 14.4267 43.669 12.2106C43.7743 10.3704 43.417 8.51771 42.6385 6.85227L42.5909 6.77736C40.8809 3.19305 37.3645 0.758556 33.3955 0.416479C30.4056 0.155552 27.4884 1.07691 25.1892 3.00203C22.89 4.92715 21.4809 7.62881 21.2227 10.6101C21.066 12.4166 21.338 14.1782 22.0313 15.8474L22.0839 15.9747H22.0827Z" fill="white"/>
<path id="Vector_5" d="M82.0902 20.8335H73.3938V3.71222C73.3938 2.3539 72.3044 1.24902 70.9642 1.24902H70.8301V23.2793L70.8464 23.4129V23.4303H83.6773V22.4416C83.6773 21.5552 82.9653 20.8335 82.0902 20.8335Z" fill="white"/>
<path id="Vector_6" d="M68.4268 13.2777L68.4343 13.2653L68.4306 13.234C68.4331 13.2078 68.4356 13.1829 68.4343 13.1791C68.4393 13.1492 68.4406 13.1254 68.4431 13.1017C68.4494 13.0393 68.4544 12.9769 68.4556 12.9219L68.4657 12.8258V12.8196C68.4669 12.7546 68.4719 12.6972 68.4769 12.6335L68.487 12.3339C68.487 12.3239 68.487 12.3114 68.4882 12.294L68.4932 12.1841L68.487 12.1816C68.487 12.1179 68.487 12.0555 68.487 11.9943V11.9731L68.4945 11.9644L68.487 11.8582L68.4895 11.852V11.827C68.4732 11.1129 68.3842 10.3813 68.2212 9.64099L68.2124 9.60229C68.1711 9.41627 68.1247 9.23274 68.0695 9.03299L67.9792 8.72712C67.9629 8.67094 67.9454 8.61351 67.9178 8.53361L67.8902 8.44746C67.8777 8.41376 67.8652 8.3813 67.8539 8.34759L67.7035 7.9331L67.6508 7.79952C67.6408 7.77579 67.6307 7.75333 67.6282 7.74833C67.6182 7.72211 67.6094 7.70089 67.5994 7.67592C67.5781 7.62348 67.5543 7.57104 67.5305 7.5236L67.4991 7.44745L67.3712 7.48865L67.4866 7.41499C67.4577 7.35756 67.4339 7.30388 67.4089 7.2452L67.276 6.97554C67.2709 6.96805 67.2659 6.95681 67.2584 6.93933L67.2283 6.87191L67.2509 6.802L67.1732 6.77453C67.1631 6.75705 67.1531 6.73833 67.1418 6.72085L67.039 6.52609C67.0177 6.48739 66.9939 6.44994 66.9713 6.41248L66.8773 6.25019C66.8635 6.22522 66.8497 6.19899 66.8347 6.17402L66.8598 6.10411L66.7695 6.0729C66.7607 6.05917 66.7494 6.04169 66.7344 6.01922L66.683 5.93682L66.5589 5.99175L66.6642 5.90061L66.4686 5.60723C66.4486 5.57976 66.4272 5.55354 66.3959 5.5036C66.3871 5.49237 66.3796 5.48114 66.3696 5.4699C66.3583 5.44743 66.3445 5.43369 66.3408 5.42995L66.3194 5.40623C66.3069 5.38126 66.2931 5.36253 66.2806 5.3463L66.2355 5.28637C66.2242 5.27014 66.2129 5.25516 66.2003 5.24018L66.1264 5.13032L66.1163 5.12657C66.0913 5.09287 66.0662 5.06165 66.0411 5.03044L65.9358 5.11284L66.0098 4.99049L65.6513 4.56227C65.6299 4.53855 65.6086 4.51233 65.5873 4.48737C65.5635 4.4599 65.5409 4.43243 65.5146 4.40246L65.4594 4.34629C65.4156 4.30509 65.3742 4.2589 65.3241 4.20396L65.2701 4.14778C65.2476 4.12656 65.225 4.10409 65.2037 4.08037C65.1786 4.0554 65.1548 4.03043 65.1335 4.01045L64.7361 3.61969L64.7311 3.63467C64.7311 3.63467 64.7236 3.62842 64.7198 3.62468L64.533 3.46113C64.3989 3.34502 64.2622 3.23266 64.1043 3.10907L63.9588 2.99421C63.9187 2.96175 63.8786 2.93054 63.8372 2.89933L63.6956 2.79321L63.6918 2.80195L63.589 2.72829L63.574 2.64839L63.4938 2.66087C63.401 2.59845 63.3057 2.53852 63.2104 2.4786L63.065 2.38496C63.0399 2.36748 63.0149 2.35126 62.9835 2.33378L62.9108 2.28634L62.8995 2.20768L62.803 2.22516L62.7453 2.1927C62.7127 2.17273 62.6789 2.15275 62.6287 2.12154L62.5811 2.09657C62.5259 2.06536 62.477 2.03914 62.4482 2.02541L62.3191 1.95299C62.289 1.93801 62.2577 1.92428 62.215 1.89931C62.2 1.89182 62.1837 1.88433 62.1661 1.87809C62.1423 1.86311 62.1173 1.85437 62.096 1.84688C62.0734 1.8294 62.0508 1.81941 62.0333 1.81192L61.9656 1.77946C61.948 1.77073 61.9305 1.76323 61.9418 1.77072L61.7963 1.69207L61.7838 1.69456C61.7462 1.67584 61.7098 1.65961 61.6722 1.64463L61.6183 1.76698L61.6258 1.62465L61.0153 1.37496C60.9815 1.36123 60.9476 1.3475 60.91 1.33376L60.8348 1.30879C60.7771 1.29256 60.7195 1.27134 60.6493 1.24512L60.5402 1.21017L60.4988 1.33751L60.5063 1.20018C60.4662 1.18645 60.4249 1.17396 60.3898 1.16397L60.3459 1.15149L60.3095 1.28008L60.307 1.14025L60.2744 1.13027C60.2544 1.12278 60.2343 1.11903 60.2255 1.11653L59.857 1.00292L59.8595 1.01915C59.8093 1.00667 59.7579 0.995434 59.7078 0.982949L59.5172 0.937999C59.2314 0.874328 58.9706 0.823142 58.7224 0.783192L58.5406 0.75448V0.76322L58.4905 0.755729H58.488C58.2272 0.718276 57.9652 0.692056 57.7082 0.675826H57.6944H57.6781C57.6405 0.672081 57.6029 0.669584 57.5641 0.668336C57.5302 0.667087 57.4951 0.66584 57.4613 0.662095H57.4475L57.4249 0.658346H57.4124C57.3936 0.658346 57.381 0.659598 57.3798 0.662095L57.2043 0.653355L57.1867 0.649606L57.1253 0.652105L57.1303 0.784441L57.0889 0.652105C57.0701 0.652105 57.0538 0.652104 57.0363 0.650856C57.0112 0.649607 56.9874 0.648359 56.9347 0.650856H56.9122C56.8984 0.648359 56.8783 0.650856 56.8633 0.650856C56.8545 0.650856 56.8457 0.650856 56.8357 0.650856H56.7693C56.753 0.650856 56.7367 0.652107 56.7417 0.653355L56.5662 0.657096L56.5423 0.654605L56.0346 0.683317C55.997 0.685814 55.9594 0.689561 55.9218 0.693307C55.888 0.697052 55.8529 0.700793 55.8077 0.704538L55.7588 0.712029C55.7212 0.714526 55.6861 0.718273 55.651 0.722019C55.6184 0.725764 55.5871 0.728263 55.542 0.732008L54.9778 0.815653C54.964 0.820647 54.9465 0.823147 54.9239 0.826892C54.8888 0.831886 54.8537 0.838123 54.8199 0.844365C54.791 0.849359 54.7635 0.8556 54.7346 0.859346C54.7171 0.861843 54.7008 0.86559 54.6519 0.876826C54.2244 0.965466 53.7831 1.08282 53.3393 1.22639L53.2353 1.23388L53.2403 1.28008L53.1425 1.31254C53.1162 1.32127 53.0898 1.33002 53.0773 1.33501C53.0673 1.33751 53.056 1.34125 53.046 1.345L52.9657 1.32502L52.9444 1.3837C52.9357 1.38744 52.9256 1.38994 52.9143 1.39494C52.898 1.39868 52.883 1.40368 52.8479 1.41866C52.8316 1.4249 52.8166 1.42989 52.784 1.44612L52.4304 1.5872C52.4179 1.59094 52.4066 1.59719 52.3891 1.60468C52.3527 1.62091 52.3164 1.63589 52.2812 1.64962L52.0343 1.76323L52.0844 1.88683L51.9967 1.78196C51.9729 1.79319 51.9503 1.80443 51.9252 1.81442C51.9064 1.82191 51.855 1.84813 51.8099 1.87185C51.8074 1.8731 51.8049 1.87434 51.8011 1.87559L51.7873 1.8706L51.7322 1.90431C51.7322 1.90431 51.6519 1.95425 51.5792 1.98795L51.3699 2.10031V2.10281L51.3034 2.13901C51.2144 2.18645 51.1242 2.23514 51.0339 2.28758L50.9825 2.3113L50.9712 2.32628C50.9524 2.33752 50.9336 2.34876 50.916 2.35999C50.8872 2.37747 50.8584 2.39495 50.8283 2.41118L50.6164 2.55101C50.6064 2.556 50.5863 2.56474 50.5688 2.58222C50.5588 2.58846 50.55 2.5947 50.5399 2.59969L50.5425 2.60594H50.5399L50.5951 2.72205L50.5099 2.61842L50.4672 2.64839C50.4472 2.66212 50.4321 2.67835 50.4334 2.67336C50.4021 2.68834 50.3782 2.70582 50.3594 2.72205C50.3456 2.72954 50.3319 2.73703 50.3256 2.74452L50.2792 2.77947C50.2642 2.78946 50.2441 2.80319 50.2115 2.82566L50.1802 2.84938C50.1689 2.85812 50.1563 2.86687 50.1451 2.8756C50.13 2.88434 50.1175 2.89308 50.1087 2.90058L50.0523 2.94178C50.0097 2.97424 49.9708 3.0042 49.9156 3.04664C49.9056 3.05289 49.8906 3.06287 49.8768 3.07785C49.8166 3.11905 49.7614 3.16275 49.7113 3.2052C49.6975 3.21519 49.6862 3.22518 49.6662 3.24515C49.6073 3.2901 49.5496 3.33504 49.4919 3.38623C49.4806 3.39746 49.4694 3.40495 49.4468 3.42243C49.3966 3.46737 49.3478 3.51107 49.2976 3.55352C49.2788 3.56725 49.2575 3.58722 49.2374 3.6072C49.2098 3.63092 49.1848 3.65589 49.1584 3.68086L48.9767 3.85065C48.9491 3.87562 48.924 3.90059 48.8801 3.93804L48.6946 4.12781C48.6745 4.14654 48.6495 4.17025 48.6495 4.17774C48.6181 4.20771 48.5893 4.24267 48.5617 4.27638L48.5166 4.32756C48.499 4.34629 48.4802 4.36626 48.4715 4.37625C48.4652 4.38125 48.4589 4.38749 48.4539 4.39373L48.4088 4.44491C48.3812 4.47113 48.3586 4.49735 48.3549 4.50859L48.3173 4.54479L48.4251 4.62344L48.2934 4.5735C48.2734 4.59098 48.2546 4.6147 48.242 4.63218C48.2182 4.65715 48.1969 4.68462 48.158 4.73081L48.1104 4.78449C48.0853 4.81196 48.0603 4.83942 48.0402 4.86314L47.8998 5.04292L47.9274 5.0629L47.9199 5.08662L47.8772 5.07039L47.703 5.29761L47.6641 5.28637L47.6265 5.3925C47.6152 5.40873 47.6052 5.42495 47.5939 5.44118L47.5525 5.49611C47.5525 5.49611 47.4949 5.58725 47.4698 5.62471C47.466 5.6297 47.4397 5.6684 47.4234 5.69212L47.3507 5.79824C47.3031 5.86691 47.2554 5.93557 47.2028 6.02172C47.1915 6.03295 47.1765 6.05043 47.1664 6.0754L47.0536 6.25768L47.031 6.29638L47.1489 6.36005L47.0135 6.32634L46.9583 6.41123V6.41747L46.8844 6.55605C46.8568 6.59725 46.8367 6.63471 46.8254 6.65967C46.8154 6.67466 46.8079 6.68839 46.7953 6.7246L46.7515 6.80075C46.7414 6.81448 46.7339 6.82947 46.7114 6.87316C46.6951 6.90313 46.6788 6.93184 46.6662 6.96305C46.6512 6.98677 46.6487 6.99801 46.6537 6.99052L46.5371 7.22148L46.4481 7.42997C46.4243 7.45993 46.413 7.49115 46.4092 7.50613L46.3027 7.75582C46.2876 7.78953 46.2738 7.82449 46.26 7.8582C46.2475 7.88941 46.235 7.91937 46.2187 7.95932L46.1961 8.02049C46.1848 8.05171 46.1736 8.08167 46.161 8.11163C46.1472 8.14534 46.1347 8.1778 46.1221 8.21275L46.0983 8.27893C46.0871 8.31139 46.077 8.34509 46.0657 8.3788C46.0557 8.41001 46.0469 8.43997 46.0369 8.46869L45.9893 8.60602C45.9805 8.64347 45.9655 8.68467 45.9441 8.75583C45.9429 8.76707 45.9366 8.77956 45.9303 8.80078L45.7899 9.29392C45.6157 9.97932 45.5091 10.7122 45.4715 11.4812V11.5187L45.4665 11.5361L45.4627 11.7571C45.4627 11.7671 45.459 11.7858 45.4627 11.7921L45.459 12.0093C45.459 12.1279 45.4615 12.2478 45.4652 12.3514V12.3926L45.4602 12.4101L45.4903 12.8308C45.4841 12.867 45.4878 12.897 45.4903 12.9169L45.5066 13.1379L45.5141 13.1854C45.5166 13.2228 45.5204 13.2603 45.5254 13.2977C45.5292 13.3302 45.5329 13.3626 45.5355 13.4051L45.5455 13.4687C45.5505 13.5012 45.553 13.5337 45.5568 13.5661C45.5605 13.6011 45.5643 13.6373 45.5693 13.6735L45.5793 13.7434C45.5843 13.7759 45.5906 13.8108 45.5981 13.8458C45.6044 13.8782 45.6107 13.9095 45.6144 13.9394L45.637 14.0842C45.647 14.1217 45.6533 14.1641 45.6683 14.2378C45.6708 14.244 45.6734 14.264 45.6771 14.284L45.7849 14.7846C45.9003 15.2503 46.0557 15.726 46.26 16.2341L46.2463 16.2416L46.5145 16.8271L46.6449 16.7447C47.3081 16.329 47.881 15.8183 48.3499 15.2266L48.3937 15.1716L48.3737 15.108H48.3812L48.3273 14.9482C48.0064 14.0093 47.8446 13.038 47.8497 12.0493C47.8471 12.0068 47.8497 11.9644 47.8522 11.8907L47.8559 11.7546C47.8572 11.7234 47.8584 11.6959 47.8547 11.6959C47.8559 11.6785 47.8584 11.6597 47.8609 11.646L47.8647 11.6198V11.6173V11.6135V11.5911C47.8647 11.5736 47.8647 11.5561 47.866 11.5386C47.8672 11.5137 47.8685 11.4899 47.866 11.4812L47.8735 11.4088C47.8772 11.3614 47.881 11.3127 47.8885 11.2365L47.8923 11.1991C47.896 11.1541 47.8985 11.1092 47.9073 11.0605C47.9111 11.0393 47.9161 11.0068 47.9161 10.9793C47.9224 10.9356 47.9286 10.8944 47.9324 10.8507C47.9362 10.837 47.9387 10.8183 47.9387 10.7983L47.9763 10.5986C48.0151 10.3576 48.064 10.1167 48.128 9.86197L48.138 9.8295C48.1443 9.81203 48.1493 9.79454 48.153 9.77831C48.3825 8.90939 48.736 8.08791 49.2023 7.33634C49.3615 7.07291 49.5596 6.79576 49.8078 6.48739L49.9608 6.29638C50.0172 6.22646 50.0749 6.1553 50.135 6.08664L50.1864 6.0342C50.2516 5.96179 50.3206 5.89187 50.3895 5.82196L50.4886 5.72083C50.56 5.64717 50.6315 5.57352 50.7042 5.50485L50.8308 5.3925C50.9223 5.3101 51.0151 5.22895 51.1104 5.1503L51.1442 5.12158C51.1542 5.11284 51.1643 5.1041 51.1881 5.08662C51.2871 5.00422 51.3874 4.92931 51.489 4.8544L51.5391 4.81695C51.5805 4.78574 51.6206 4.75453 51.667 4.72207L51.8964 4.56601C51.9741 4.51482 52.0531 4.46489 52.1346 4.41495C52.1872 4.38124 52.2386 4.34879 52.3088 4.30759C52.3189 4.30135 52.3289 4.2951 52.3652 4.27887C52.4668 4.21769 52.5646 4.16152 52.6674 4.11033L52.695 4.09784C52.7689 4.05789 52.8429 4.01919 52.9156 3.98298C53.0033 3.94054 53.0911 3.89934 53.1801 3.86064C53.4948 3.71956 53.7881 3.60346 54.0777 3.50857L54.1492 3.48485C54.509 3.36875 54.8788 3.27511 55.2474 3.2052L55.3564 3.18522C55.4542 3.16899 55.5532 3.15276 55.6498 3.13903C55.9719 3.09283 56.2628 3.06412 56.5298 3.05288H56.5674C56.6865 3.04539 56.7981 3.0404 56.9134 3.0429L56.9209 3.04539H56.9448C57.0438 3.04414 57.1428 3.0429 57.2381 3.04539L57.2481 3.05039L57.3998 3.05288C57.534 3.06037 57.6669 3.06911 57.8198 3.0841C57.8712 3.08784 57.9239 3.09408 57.974 3.10033L58.0605 3.11032C58.3752 3.14777 58.6823 3.20145 58.9757 3.26637L59.0245 3.27761C59.0496 3.28261 59.0747 3.2876 59.1273 3.30133C59.2051 3.32006 59.2815 3.34128 59.3593 3.36376L59.7191 3.46612C59.8118 3.49609 59.9059 3.5273 59.9974 3.55976C60.0463 3.57723 60.0951 3.59472 60.1428 3.61345L60.2631 3.65839C60.3196 3.67961 60.376 3.69959 60.4474 3.7283C60.5026 3.75077 60.5577 3.7745 60.6129 3.79947L60.6756 3.82693C60.8423 3.90059 61.0078 3.97675 61.167 4.05665L61.1971 4.07288C61.3413 4.14654 61.4817 4.22768 61.6208 4.30883L61.8214 4.42868C61.9292 4.49485 62.0345 4.56726 62.1411 4.64092L62.269 4.72832C62.3041 4.75204 62.3392 4.7745 62.3642 4.79198C62.3805 4.80696 62.3981 4.81945 62.4445 4.85191L62.4733 4.87438C62.5259 4.91433 62.5761 4.95429 62.6262 4.99424L62.7441 5.08662C62.8281 5.15529 62.9108 5.22395 62.9998 5.30385L63.0324 5.33257C63.0475 5.3463 63.0638 5.36003 63.0713 5.36628C63.2142 5.49612 63.3496 5.62845 63.48 5.75454C63.5163 5.79574 63.5564 5.83569 63.5953 5.87315L63.6881 5.77702L63.6204 5.90186C63.7332 6.02296 63.846 6.14656 63.9576 6.2789L64.0767 6.42122C64.3588 6.77079 64.5957 7.10663 64.7988 7.44371L64.8314 7.49864C64.9429 7.68092 65.0545 7.88816 65.1837 8.15158C65.2012 8.18654 65.2188 8.22149 65.2451 8.27643L65.3667 8.22024L65.2589 8.30889L65.3454 8.5024C65.3842 8.59353 65.4231 8.68342 65.4594 8.77331C65.472 8.80452 65.4833 8.83698 65.4933 8.86819L65.5209 8.94685C65.6312 9.24398 65.729 9.55984 65.8117 9.88694L65.8393 9.9943C65.8581 10.0655 65.8757 10.1354 65.892 10.2078C65.9346 10.4075 65.9722 10.6085 66.0023 10.8108C66.0399 11.0692 66.0662 11.3401 66.0813 11.6135C66.0913 11.8782 66.0938 12.0805 66.0875 12.2702L66.085 12.3851C66.0838 12.4587 66.0825 12.5312 66.0762 12.6211C66.0762 12.6373 66.0762 12.6535 66.0712 12.6947L66.0662 12.7971L66.0537 12.9132C66.0537 12.9307 66.0537 12.9506 66.0462 12.9844L66.0286 13.1217C66.0073 13.3065 65.9797 13.5249 65.9371 13.7422L65.8869 13.9669C65.8644 14.0693 65.8368 14.1716 65.8105 14.2728L65.7942 14.3314C65.7027 14.681 65.5873 15.0356 65.4482 15.3814C65.4143 15.4675 65.3792 15.5537 65.3416 15.6398C65.1699 16.0368 64.9768 16.4114 64.7699 16.7522C64.6157 17.0044 64.454 17.2428 64.2785 17.4763L64.3851 17.5574L64.2535 17.5088C64.2121 17.5587 64.1732 17.6099 64.1356 17.6598L63.9187 17.917C63.8937 17.9482 63.8661 17.9782 63.8285 18.0181C63.8097 18.0393 63.7896 18.0606 63.7708 18.0805L63.7219 18.133C63.5903 18.2753 63.4561 18.4164 63.317 18.5512L63.411 18.6474L63.2806 18.5849C63.1177 18.7397 62.9547 18.8846 62.7804 19.0269C62.4708 19.2803 62.1298 19.5225 61.7675 19.7447L61.7261 19.7685C61.6221 19.8334 61.5105 19.8933 61.3989 19.952L61.2786 20.0169C61.2084 20.0556 61.1382 20.0943 61.0655 20.1305L61.0128 20.1567C60.9288 20.1992 60.8461 20.2404 60.7608 20.2853L60.7245 20.2966C60.4549 20.4177 60.1779 20.5163 59.9209 20.6049L59.8294 20.6374C59.7867 20.6536 59.7429 20.6686 59.6877 20.6861L59.5172 20.7348C59.3668 20.7772 59.2151 20.8197 59.0609 20.8546C59.0045 20.8684 58.9481 20.8808 58.8904 20.8921C58.7901 20.9133 58.6898 20.9308 58.5895 20.9483L58.5532 20.9545C58.3764 20.9857 58.1997 21.0094 58.0154 21.0319C57.9326 21.0419 57.8486 21.0506 57.7634 21.0581C57.7396 21.0606 57.7158 21.0631 57.6593 21.0656C57.643 21.0656 57.6255 21.0656 57.5954 21.0731H57.5164C57.3647 21.0843 57.208 21.0856 57.0526 21.0843H57.0087C56.8633 21.0856 56.7166 21.0881 56.5749 21.0806L56.5135 21.0781C56.3894 21.0718 56.2653 21.0619 56.1412 21.0506L56.0898 21.0469C56.0484 21.0431 56.0071 21.0394 55.9669 21.0356C55.8228 21.0194 55.6799 21.0007 55.5106 20.9745L55.4705 20.9695C55.394 20.957 55.3188 20.942 55.2436 20.9258L55.0869 20.8946C55.0229 20.8821 54.9603 20.8684 54.8951 20.8534C54.7584 20.8222 54.623 20.7872 54.4814 20.7473C54.4601 20.7398 54.4425 20.7348 54.4187 20.7285C54.2557 20.6811 54.094 20.6224 53.9323 20.5662L53.7831 20.5138C53.7405 20.4988 53.6966 20.4851 53.6251 20.4576L53.3406 20.339C53.3243 20.3303 53.3067 20.3228 53.2766 20.314L53.2378 20.2928C53.2039 20.2803 53.1751 20.2666 53.1287 20.2429C53.1162 20.2379 53.1049 20.2329 53.0923 20.2279C53.0798 20.2216 53.0673 20.2167 53.0547 20.2117C53.0472 20.2079 53.0397 20.2029 53.0297 20.1992L52.9457 20.1567C52.7238 20.0469 52.5408 19.9495 52.3678 19.8471L52.3327 19.8284C52.0318 19.6536 51.7384 19.4588 51.4413 19.2341C51.163 19.0231 50.896 18.7972 50.6503 18.5612C50.4848 18.4027 50.3268 18.2304 50.1701 18.0593L50.0435 17.9207L49.9533 18.0855C49.5797 18.761 49.1647 19.3527 48.7209 19.8434L48.6445 19.942L48.731 20.0319C48.8162 20.1205 48.9065 20.2042 48.998 20.2891L49.1058 20.3902C49.2412 20.5188 49.3791 20.6424 49.5157 20.7585C49.5295 20.771 49.5433 20.7822 49.5584 20.7934L49.8279 21.0094C49.8693 21.0419 49.9106 21.0718 49.952 21.1031L50.1112 21.2229C50.1463 21.2504 50.1814 21.2778 50.2165 21.3041L50.2642 21.3403C50.298 21.3665 50.3306 21.3915 50.3632 21.4114L50.4058 21.4389C50.4409 21.4639 50.476 21.4863 50.5099 21.5088C50.5462 21.5325 50.5826 21.5562 50.6227 21.585C50.6653 21.6124 50.7079 21.6374 50.7506 21.6624L50.9323 21.7772C50.9888 21.8134 51.0439 21.8509 51.0978 21.8833C51.1404 21.9096 51.1831 21.9333 51.2257 21.9558C51.2608 21.9745 51.2946 21.9932 51.3272 22.0132L51.3586 22.0319C51.3761 22.0431 51.3924 22.0531 51.41 22.0631L51.4513 22.0806C51.4915 22.1068 51.5366 22.1293 51.5842 22.1518L51.7221 22.2229C51.746 22.2379 51.7673 22.2467 51.7735 22.2467L51.8011 22.2616L51.7973 22.2741L51.9102 22.3241C51.9653 22.349 52.0255 22.3752 52.1057 22.4127L52.1459 22.4352C52.186 22.4489 52.2299 22.4689 52.2838 22.4938L52.3176 22.5088C52.3364 22.5176 52.3565 22.5276 52.3464 22.5188C52.369 22.5338 52.3916 22.5413 52.3991 22.5425L52.4342 22.56C52.4555 22.5687 52.4781 22.5762 52.5031 22.585L52.5734 22.6187C52.6085 22.6324 52.6448 22.6437 52.6812 22.6549L52.8792 22.7286C52.9419 22.756 53.0059 22.7835 53.0685 22.8035C53.1224 22.8234 53.1764 22.8447 53.2629 22.8709L53.3418 22.8983C53.3656 22.9083 53.3907 22.9146 53.417 22.9196L53.4684 22.937C53.5023 22.9483 53.5361 22.9608 53.57 22.9708C53.7944 23.0394 54.0338 23.1031 54.3197 23.1705C54.351 23.1792 54.3823 23.1842 54.4137 23.1905L54.4801 23.2055C54.5014 23.2105 54.5228 23.2142 54.5767 23.2242L54.6895 23.2479C54.7835 23.2691 54.8775 23.2904 54.9678 23.3041L55.1521 23.3291C55.2887 23.354 55.4241 23.3753 55.5608 23.3915C55.6122 23.399 55.6636 23.404 55.7112 23.4077C55.7538 23.4115 55.7964 23.4165 55.8466 23.4227C55.8867 23.4264 55.9256 23.4289 55.9644 23.4302L56.1249 23.4427C56.2879 23.4576 56.4508 23.4726 56.6176 23.4789H56.6778C56.6966 23.4789 56.7141 23.4801 56.7316 23.4814H56.8031C56.852 23.4851 56.8946 23.4864 56.9598 23.4814C56.9811 23.4839 56.9987 23.4839 57.035 23.4851C57.0902 23.4826 57.1441 23.4801 57.1967 23.4826L57.3033 23.4801C57.3209 23.4839 57.3397 23.4839 57.3597 23.4801C57.4124 23.4764 57.4675 23.4726 57.5465 23.4701L57.5691 23.4739L57.5916 23.4701C57.6355 23.4639 57.6857 23.4614 57.7446 23.4589C57.7584 23.4576 57.7709 23.4564 57.7847 23.4564C57.8035 23.4551 57.8223 23.4539 57.8098 23.4514C57.8474 23.4552 57.8787 23.4514 57.9063 23.4464C57.9677 23.4402 58.0317 23.4314 58.1119 23.4214L58.3175 23.399C58.3702 23.3927 58.4228 23.3865 58.4742 23.3815L58.4867 23.3865L58.5331 23.3728C58.5457 23.369 58.5582 23.3678 58.5808 23.3665C58.6271 23.364 58.676 23.3553 58.7224 23.3465L58.8591 23.3241C58.9405 23.3116 59.0233 23.2991 59.106 23.2841C59.1361 23.2779 59.1675 23.2716 59.1976 23.2629L59.3029 23.2429L59.3091 23.2404C59.3217 23.2379 59.3354 23.2342 59.348 23.2304L59.4959 23.198C59.62 23.1718 59.7429 23.1455 59.8632 23.1143C59.946 23.0943 60.0249 23.0719 60.1052 23.0469L60.1804 23.0244C60.203 23.0182 60.2268 23.0132 60.2494 23.0082C60.2845 22.9995 60.3208 22.992 60.3547 22.9807L60.6994 22.8696H60.7019L60.7633 22.8484L60.7508 22.8447L60.7558 22.8422C60.7721 22.8372 60.7897 22.8297 60.8323 22.8134C60.8812 22.7997 60.9251 22.7835 60.9764 22.7648L61.0279 22.7435C61.0579 22.7385 61.0805 22.7285 61.0905 22.7236L61.3977 22.5987C61.4152 22.5937 61.4303 22.5887 61.4453 22.5825L61.9142 22.379C61.9555 22.3615 61.9969 22.3453 62.037 22.3253L62.0897 22.2978C62.1072 22.2878 62.126 22.2791 62.1448 22.2704C62.1674 22.2604 62.19 22.2491 62.2038 22.2404C62.2476 22.2204 62.2852 22.2017 62.3417 22.168C62.368 22.1568 62.3855 22.148 62.4094 22.1355C62.457 22.1081 62.5046 22.0819 62.5711 22.0481C62.5811 22.0407 62.5874 22.0382 62.6012 22.0319L62.8331 21.8971C62.8331 21.8971 62.8356 21.8958 62.8381 21.8946L62.8406 21.9096L63.0713 21.7523C63.0838 21.746 63.0951 21.7373 63.1177 21.7223L63.3684 21.5625C63.4185 21.5288 63.4687 21.4951 63.5188 21.4601L63.6354 21.3802L63.6856 21.3428C63.6918 21.3365 63.7006 21.329 63.7232 21.3165C63.7633 21.2928 63.8022 21.2629 63.8385 21.2341C63.8761 21.2067 63.9112 21.178 63.9463 21.1493L64.0416 21.0768C64.0767 21.0506 64.113 21.0244 64.1544 20.9907C64.1632 20.982 64.1745 20.9745 64.2046 20.952L64.4277 20.766C64.4415 20.7547 64.4553 20.7448 64.459 20.7398C64.5355 20.6773 64.6133 20.6099 64.6835 20.5438L64.7223 20.5113C64.7361 20.5001 64.7474 20.4901 64.7499 20.4838C64.785 20.4539 64.8176 20.4214 64.8514 20.3889L64.884 20.3577C64.9141 20.3303 64.9455 20.3041 64.9768 20.2766C65.0232 20.2366 65.0683 20.1979 65.1109 20.1567L65.3742 19.8908H65.3667L65.3918 19.8584L65.4156 19.8321C65.4269 19.8196 65.4369 19.8084 65.4695 19.7722L65.5058 19.7335C65.5234 19.7148 65.5422 19.6961 65.561 19.6736L65.5861 19.6436L65.4833 19.5575L65.5535 19.5874L65.5873 19.6361C65.6111 19.6199 65.6325 19.5999 65.6425 19.5849L66.1402 18.9819C66.1678 18.9482 66.1928 18.9133 66.2192 18.8783L66.4323 18.5849L66.3219 18.5075L66.4649 18.5362L66.4849 18.5075C66.5062 18.4776 66.5288 18.4463 66.5426 18.4239L66.7369 18.1255L66.8121 18.0019C66.8334 17.9769 66.8472 17.9532 66.8623 17.9245L67.044 17.6136C67.0654 17.5774 67.0804 17.55 67.0867 17.5325C67.1293 17.4638 67.1694 17.3877 67.2108 17.3053C67.222 17.2865 67.2359 17.2641 67.2384 17.2528L67.4414 16.8321C67.4715 16.7697 67.5016 16.7085 67.533 16.6348C67.5367 16.6236 67.543 16.6124 67.5593 16.5787L67.6683 16.3102C67.6746 16.2953 67.6821 16.279 67.6834 16.274C67.721 16.1841 67.7586 16.088 67.7875 15.9994L67.6646 15.9444L67.8 15.9682C67.8125 15.9407 67.82 15.9182 67.8188 15.9145L67.8752 15.7509C67.8902 15.7097 67.9053 15.6673 67.9128 15.6373L67.9629 15.5087V15.5012L68.0144 15.3177L68.0344 15.2778V15.2628C68.0344 15.2628 68.0369 15.2503 68.0394 15.2428L68.0444 15.2291C68.0482 15.2178 68.0532 15.2041 68.0557 15.1841C68.067 15.1567 68.0745 15.1267 68.0808 15.0992C68.0896 15.0593 68.0996 15.0231 68.1134 14.9831L68.2337 14.4887V14.4763C68.2375 14.4625 68.24 14.4488 68.2388 14.4488L68.3202 14.0493L68.1911 14.0081L68.3253 14.0106L68.3328 13.9744V13.9544L68.3478 13.8782L68.2149 13.8583L68.3541 13.842L68.3854 13.6523C68.3879 13.6323 68.3917 13.6073 68.3942 13.5824L68.4168 13.4038V13.3489L68.4331 13.2865V13.279L68.4268 13.2777ZM50.644 2.68834L50.6164 2.66587L50.5951 2.62092L50.644 2.68709V2.68834ZM65.2576 19.7972V19.7947L65.2802 19.8122V19.8147L65.2589 19.7959L65.2576 19.7972Z" fill="white"/>
<path id="Vector_7" d="M99.9637 3.01493L93.3896 19.165L86.8156 3.01493C86.3329 1.83015 84.9289 1.24087 83.6777 1.69656L92.2237 22.6893C92.4143 23.1563 92.8907 23.4372 93.3896 23.4234C93.8898 23.4372 94.3662 23.1563 94.5555 22.6893L103.102 1.69656C101.85 1.23963 100.446 1.83015 99.9637 3.01493Z" fill="white"/>
<path id="Vector_8" d="M100.991 20.0738C104.653 17.8453 105.613 16.9739 107.276 16.6243C107.276 16.6243 105.166 16.4745 101.87 17.6506L100.991 20.0726V20.0738Z" fill="white"/>
<path id="Vector_9" d="M138.631 20.0738C142.293 17.8453 143.253 16.9739 144.915 16.6243C144.915 16.6243 142.805 16.4745 139.51 17.6506L138.631 20.0726V20.0738Z" fill="white"/>
<path id="Vector_10" d="M107.947 2.2795C107.757 1.81257 107.28 1.53167 106.781 1.5454C106.281 1.53167 105.805 1.81257 105.615 2.2795L97.0693 23.2723C98.3205 23.7292 99.7245 23.1387 100.207 21.9539L106.781 5.80388L113.355 21.9539C113.838 23.1387 115.242 23.728 116.493 23.2723L107.947 2.2795Z" fill="white"/>
<path id="Vector_11" d="M134.366 19.2593C131.54 20.3042 128.568 20.4103 126.311 20.4103C123.76 20.4103 118.234 19.3379 118.234 12.9034C118.234 5.932 124.157 3.78715 126.311 3.78715C130.081 3.78715 132.234 5.932 131.695 7.00442C130.618 9.14927 126.849 8.61368 126.849 8.61368C128.465 9.68611 132.233 10.7585 134.387 7.00442C135.826 4.49752 132.233 1.10547 126.849 1.10547C122.002 1.10547 115.541 4.32274 115.541 12.9021C115.541 20.4091 121.345 23.6264 126.31 23.6264C128.554 23.6264 130.978 23.0508 133.147 22.2493L134.364 19.258L134.366 19.2593Z" fill="white"/>
<path id="Vector_12" d="M146.267 2.2795C146.077 1.81257 145.6 1.53167 145.102 1.5454C144.601 1.53167 144.125 1.81257 143.936 2.2795L135.39 23.2723C136.641 23.7292 138.045 23.1387 138.527 21.9539L145.102 5.80388L151.676 21.9539C152.158 23.1387 153.562 23.728 154.813 23.2723L146.267 2.2795Z" fill="white"/>
<path id="Vector_13" d="M166.224 1.5084C164.844 1.47344 163.479 2.03026 163.176 2.75436L159.564 11.3625L155.952 2.75436C155.649 2.03026 154.284 1.47344 152.903 1.5084L158.285 14.3325C158.294 14.3525 158.304 14.3725 158.317 14.3925C158.311 14.4724 158.338 14.5485 158.388 14.6159V22.4038C158.388 22.9881 158.863 23.4625 159.451 23.4625H159.664C160.251 23.4625 160.727 22.9893 160.727 22.4038V14.6372C160.789 14.5635 160.819 14.4799 160.814 14.3925C160.825 14.3725 160.836 14.3525 160.845 14.3325L166.227 1.5084H166.224Z" fill="white"/>
</g>
</g>
</g>
</svg>
