<svg width="167" height="24" viewBox="0 0 195 28" fill="none" xmlns="http://www.w3.org/2000/svg">
<g id="Group 2">
<g id="Layer 3">
<g id="Group">
<path id="Vector" d="M12.3048 3.81775C16.6123 3.81775 19.0726 6.33386 18.4579 7.59191C17.227 10.108 12.921 9.47973 12.921 9.47973C14.7666 10.7378 19.0741 11.9958 21.5345 7.59191C23.1786 4.65108 19.0741 0.671875 12.921 0.671875C7.38405 0.671875 0 4.44605 0 14.5105C0 23.3169 6.63255 27.091 12.3048 27.091C14.7651 27.091 19.6874 27.0911 24.6096 23.3169C27.1611 21.3602 30.7627 18.913 33.4775 18.3432C33.4775 18.3432 28.767 18.5292 22.7639 21.4291C19.1815 23.1602 15.2196 23.3169 12.3048 23.3169C9.38999 23.3169 3.07656 22.0588 3.07656 14.5105C3.07656 6.3324 9.84441 3.81629 12.3048 3.81629V3.81775Z" fill="#0071BC"/>
<path id="Vector_2" d="M42.5572 26.1011C40.3218 25.007 38.4497 24.1708 36.4217 24.1708C34.9187 24.1708 33.5407 24.7068 31.9348 25.5094L31.6289 25.6632L31.9407 25.8023C33.7863 26.6195 35.7423 27.053 37.757 27.0896C37.8482 27.0911 37.9379 27.0926 38.0291 27.0926C39.56 27.0926 41.0748 26.8597 42.5337 26.3998L42.9175 26.2783L42.5557 26.1011H42.5572Z" fill="#0071BC"/>
<path id="Vector_3" d="M49.9005 23.9482C45.4783 23.9482 41.6885 18.2862 37.0633 18.5059C34.8971 18.5059 31.2646 20.319 29.0337 22.1365C25.2644 25.2062 21.4746 27.094 21.4746 27.094C29.0234 27.1189 33.0117 21.9988 36.9074 21.9988C40.7428 21.9988 45.5239 27.0926 49.899 27.0926C54.9697 27.0926 58.8052 17.6183 59.6331 15.9854C59.6258 15.959 54.9521 23.9467 49.899 23.9467L49.9005 23.9482Z" fill="#29ABE2"/>
<path id="Vector_4" d="M25.905 18.3023L26.0535 18.2364C26.98 17.8234 27.8065 17.6037 28.336 17.4938L28.5257 17.4543L28.4492 17.2771C27.7624 15.7027 27.4786 13.9613 27.6271 12.2449C27.8683 9.47539 29.1772 6.96367 31.314 5.17544C33.4508 3.38575 36.1553 2.53484 38.9407 2.7721C44.682 3.26712 48.9498 8.31985 48.4528 14.0375C48.2748 16.0835 47.5057 18.0108 46.2262 19.6116L46.113 19.7712C46.0703 19.8225 46.0233 19.8679 45.9791 19.9177C46.8395 20.42 47.713 20.8169 48.613 21.0073C50.1719 18.9364 51.0793 16.4862 51.2278 13.8866C51.3514 11.7279 50.9322 9.55447 50.019 7.60075L49.9631 7.51288C47.9572 3.30813 43.832 0.452239 39.176 0.0509502C35.6685 -0.255143 32.2464 0.825705 29.5492 3.08405C26.8521 5.3424 25.1991 8.51171 24.8961 12.0091C24.7123 14.1283 25.0315 16.1948 25.8447 18.1529L25.9065 18.3023H25.905Z" fill="#0071BC"/>
<path id="Vector_5" d="M96.2991 24.0024H86.0973V3.9174C86.0973 2.32396 84.8193 1.02783 83.2472 1.02783H83.0898V26.8714L83.109 27.0281V27.0486H98.1609V25.8887C98.1609 24.8489 97.3256 24.0024 96.2991 24.0024Z" fill="#0071BC"/>
<path id="Vector_6" d="M80.2716 15.1388L80.2804 15.1242L80.276 15.0876C80.2789 15.0568 80.2819 15.0275 80.2804 15.0231C80.2863 14.988 80.2878 14.9601 80.2907 14.9323C80.2981 14.8591 80.3039 14.7859 80.3054 14.7214L80.3172 14.6087V14.6013C80.3186 14.5252 80.3245 14.4578 80.3304 14.3831L80.3422 14.0316C80.3422 14.0199 80.3422 14.0053 80.3436 13.9847L80.3495 13.8559L80.3422 13.8529C80.3422 13.7782 80.3422 13.705 80.3422 13.6333V13.6084L80.351 13.5981L80.3422 13.4736L80.3451 13.4663V13.437C80.326 12.5993 80.2216 11.741 80.0304 10.8726L80.0201 10.8272C79.9716 10.6089 79.9172 10.3937 79.8525 10.1593L79.7466 9.8005C79.7274 9.7346 79.7069 9.66723 79.6745 9.5735L79.6421 9.47245C79.6274 9.4329 79.6127 9.39482 79.5995 9.35528L79.423 8.86905L79.3613 8.71234C79.3495 8.68451 79.3377 8.65815 79.3348 8.6523C79.323 8.62154 79.3127 8.59664 79.301 8.56735C79.276 8.50584 79.248 8.44432 79.2201 8.38867L79.1833 8.29933L79.0333 8.34766L79.1686 8.26125C79.1348 8.19388 79.1068 8.13091 79.0774 8.06207L78.9215 7.74573C78.9157 7.73695 78.9098 7.72376 78.9009 7.70326L78.8657 7.62417L78.8921 7.54216L78.801 7.50993C78.7892 7.48943 78.7774 7.46746 78.7642 7.44696L78.6436 7.21849C78.6186 7.17309 78.5907 7.12915 78.5642 7.08522L78.4539 6.89483C78.4377 6.86553 78.4215 6.83477 78.4039 6.80548L78.4333 6.72347L78.3274 6.68685C78.3171 6.67074 78.3039 6.65024 78.2862 6.62388L78.2259 6.52722L78.0803 6.59166L78.2039 6.48474L77.9745 6.14057C77.9509 6.10835 77.9259 6.0776 77.8891 6.01901C77.8789 6.00583 77.87 5.99266 77.8583 5.97948C77.845 5.95311 77.8289 5.937 77.8244 5.93261L77.7994 5.90478C77.7847 5.87549 77.7686 5.85352 77.7539 5.83448L77.7009 5.76418C77.6877 5.74514 77.6744 5.72757 77.6597 5.70999L77.573 5.58111L77.5612 5.57672C77.5318 5.53718 77.5024 5.50056 77.473 5.46395L77.3494 5.56061L77.4362 5.41708L77.0156 4.91474C76.9906 4.88691 76.9656 4.85616 76.9406 4.82687C76.9127 4.79465 76.8862 4.76242 76.8553 4.72727L76.7906 4.66137C76.7391 4.61304 76.6906 4.55885 76.6318 4.49441L76.5685 4.42851C76.5421 4.40361 76.5156 4.37725 76.4906 4.34942C76.4612 4.32013 76.4332 4.29084 76.4082 4.26741L75.942 3.809L75.9362 3.82657C75.9362 3.82657 75.9273 3.81925 75.9229 3.81486L75.7038 3.623C75.5464 3.48679 75.3861 3.35498 75.2008 3.20999L75.0302 3.07526C74.9832 3.03718 74.9361 3.00056 74.8876 2.96395L74.7214 2.83946L74.717 2.84972L74.5964 2.7633L74.5788 2.66957L74.4846 2.68422C74.3758 2.61099 74.2641 2.54069 74.1523 2.47039L73.9817 2.36055C73.9523 2.34005 73.9229 2.32101 73.8861 2.30051L73.8008 2.24485L73.7876 2.15259L73.6743 2.17308L73.6067 2.13501C73.5684 2.11158 73.5287 2.08814 73.4699 2.05153L73.414 2.02224C73.3493 1.98562 73.292 1.95487 73.2581 1.93876L73.1067 1.85381C73.0714 1.83623 73.0346 1.82013 72.9846 1.79083C72.9669 1.78205 72.9478 1.77326 72.9272 1.76594C72.8993 1.74836 72.8699 1.73811 72.8449 1.72933C72.8184 1.70882 72.7919 1.6971 72.7714 1.68831L72.6919 1.65024C72.6713 1.63999 72.6508 1.6312 72.664 1.63999L72.4934 1.54772L72.4787 1.55064C72.4346 1.52868 72.3919 1.50964 72.3478 1.49207L72.2846 1.63559L72.2934 1.46863L71.5772 1.17572C71.5375 1.15961 71.4978 1.1435 71.4537 1.12739L71.3654 1.0981C71.2978 1.07906 71.2301 1.05416 71.1478 1.02341L71.0198 0.982404L70.9713 1.13178L70.9801 0.970685C70.9331 0.954575 70.8845 0.939924 70.8434 0.928207L70.7919 0.913565L70.7492 1.06442L70.7463 0.90038L70.7081 0.88867C70.6845 0.879883 70.661 0.875492 70.6507 0.872562L70.2183 0.739283L70.2213 0.758323C70.1625 0.743677 70.1021 0.730499 70.0433 0.715854L69.8198 0.663123C69.4845 0.58843 69.1786 0.528385 68.8874 0.481519L68.6742 0.447837V0.45809L68.6153 0.449303H68.6124C68.3065 0.405366 67.9992 0.374608 67.6977 0.355569H67.6815H67.6624C67.6183 0.351175 67.5741 0.348247 67.5285 0.346782C67.4888 0.345317 67.4477 0.343855 67.408 0.339461H67.3918L67.3653 0.335063H67.3506C67.3285 0.335063 67.3138 0.336532 67.3124 0.339461L67.1065 0.329208L67.0859 0.32481L67.0138 0.327742L67.0197 0.482985L66.9712 0.327742C66.9491 0.327742 66.93 0.327741 66.9094 0.326276C66.88 0.324812 66.8521 0.323347 66.7903 0.326276H66.7638C66.7476 0.323347 66.7241 0.326276 66.7065 0.326276C66.6962 0.326276 66.6859 0.326276 66.6741 0.326276H66.5962C66.5771 0.326276 66.5579 0.327744 66.5638 0.329208L66.3579 0.333597L66.33 0.330674L65.7344 0.364356C65.6903 0.367285 65.6461 0.371681 65.602 0.376075C65.5623 0.380469 65.5211 0.384857 65.4682 0.389251L65.4108 0.398038C65.3667 0.400967 65.3255 0.405363 65.2844 0.409757C65.2461 0.414151 65.2094 0.417082 65.1564 0.421476L64.4946 0.519599C64.4785 0.525457 64.4579 0.52839 64.4314 0.532784C64.3902 0.538642 64.349 0.545958 64.3093 0.553281C64.2755 0.559139 64.2432 0.566461 64.2093 0.570855C64.1887 0.573784 64.1696 0.57818 64.1123 0.591361C63.6108 0.695344 63.0931 0.833011 62.5725 1.00144L62.4504 1.01022L62.4563 1.06442L62.3416 1.10249C62.3107 1.11274 62.2799 1.123 62.2651 1.12886C62.2534 1.13179 62.2401 1.13618 62.2284 1.14057L62.1343 1.11714L62.1093 1.18597C62.099 1.19036 62.0872 1.1933 62.074 1.19916C62.0549 1.20355 62.0372 1.20941 61.996 1.22698C61.9769 1.23431 61.9593 1.24016 61.921 1.2592L61.5063 1.42469C61.4916 1.42909 61.4784 1.43641 61.4578 1.4452C61.4151 1.46424 61.3725 1.48181 61.3313 1.49792L61.0416 1.6312L61.1004 1.77619L60.9975 1.65317C60.9695 1.66635 60.9431 1.67953 60.9136 1.69125C60.8916 1.70003 60.8313 1.73079 60.7783 1.75862C60.7754 1.76008 60.7725 1.76154 60.7681 1.76301L60.7519 1.75715L60.6872 1.7967C60.6872 1.7967 60.593 1.85528 60.5077 1.89482L60.2621 2.02663V2.02956L60.1842 2.07203C60.0798 2.12768 59.9739 2.1848 59.868 2.24631L59.8077 2.27414L59.7945 2.29171C59.7724 2.30489 59.7504 2.31808 59.7298 2.33126C59.696 2.35176 59.6621 2.37227 59.6268 2.39131L59.3783 2.55534C59.3665 2.5612 59.343 2.57145 59.3224 2.59195C59.3106 2.59928 59.3004 2.60659 59.2886 2.61245L59.2915 2.61978H59.2886L59.3533 2.75598L59.2533 2.63442L59.2033 2.66957C59.1798 2.68568 59.1621 2.70472 59.1636 2.69886C59.1268 2.71644 59.0989 2.73694 59.0768 2.75598C59.0606 2.76477 59.0445 2.77356 59.0371 2.78234L58.9827 2.82335C58.9651 2.83506 58.9415 2.85117 58.9033 2.87753L58.8665 2.90536C58.8533 2.91561 58.8386 2.92587 58.8253 2.93612C58.8077 2.94637 58.793 2.95663 58.7827 2.96541L58.7165 3.01375C58.6665 3.05182 58.6209 3.08697 58.5562 3.13676C58.5444 3.14409 58.5268 3.1558 58.5106 3.17338C58.44 3.22171 58.3753 3.27297 58.3165 3.32277C58.3003 3.33448 58.2871 3.3462 58.2636 3.36963C58.1944 3.42236 58.1268 3.47508 58.0591 3.53513C58.0459 3.54831 58.0327 3.55709 58.0062 3.5776C57.9474 3.63032 57.89 3.68158 57.8312 3.73137C57.8091 3.74748 57.7841 3.77092 57.7606 3.79435C57.7282 3.82218 57.6988 3.85147 57.6679 3.88076L57.4547 4.07994C57.4224 4.10923 57.3929 4.13852 57.3415 4.18246L57.1238 4.40508C57.1003 4.42704 57.0709 4.45487 57.0709 4.46365C57.0341 4.4988 57.0003 4.53982 56.9679 4.57936L56.915 4.6394C56.8944 4.66137 56.8723 4.68481 56.862 4.69652C56.8547 4.70238 56.8473 4.70971 56.8415 4.71703L56.7885 4.77707C56.7562 4.80783 56.7297 4.83858 56.7253 4.85177L56.6812 4.89423L56.8076 4.9865L56.6532 4.92792C56.6297 4.94842 56.6076 4.97625 56.5929 4.99676C56.565 5.02605 56.54 5.05826 56.4944 5.11245L56.4385 5.17543C56.4091 5.20765 56.3797 5.23987 56.3562 5.26769L56.1914 5.47859L56.2238 5.50203L56.215 5.52986L56.165 5.51082L55.9605 5.77737L55.915 5.76418L55.8708 5.88867C55.8576 5.90771 55.8458 5.92675 55.8326 5.94579L55.7841 6.01023C55.7841 6.01023 55.7164 6.11714 55.687 6.16108C55.6826 6.16694 55.6517 6.21234 55.6326 6.24016L55.5473 6.36466C55.4914 6.44521 55.4355 6.52575 55.3738 6.62681C55.3605 6.63999 55.3429 6.66049 55.3311 6.68978L55.1988 6.90361L55.1723 6.94901L55.3105 7.02371L55.1517 6.98416L55.087 7.08375V7.09107L55.0002 7.25364C54.9679 7.30197 54.9443 7.34591 54.9311 7.3752C54.9193 7.39277 54.9105 7.40888 54.8958 7.45136L54.8443 7.54069C54.8326 7.5568 54.8238 7.57438 54.7973 7.62564C54.7782 7.66079 54.759 7.69447 54.7443 7.73108C54.7267 7.75891 54.7237 7.7721 54.7296 7.76331L54.5929 8.03425L54.4884 8.27883C54.4605 8.31398 54.4473 8.3506 54.4429 8.36817L54.3179 8.66108C54.3002 8.70063 54.284 8.74163 54.2678 8.78118C54.2531 8.81779 54.2384 8.85294 54.2193 8.89981L54.1928 8.97157C54.1796 9.00818 54.1664 9.04333 54.1517 9.07848C54.1355 9.11802 54.1208 9.1561 54.1061 9.19711L54.0781 9.27473C54.0649 9.31281 54.0531 9.35235 54.0399 9.3919C54.0281 9.42851 54.0178 9.46366 54.0061 9.49734L53.9502 9.65845C53.9399 9.70238 53.9223 9.75071 53.8973 9.83419C53.8958 9.84737 53.8884 9.86202 53.8811 9.88692L53.7164 10.4654C53.5119 11.2695 53.3869 12.1292 53.3428 13.0313V13.0753L53.3369 13.0958L53.3325 13.355C53.3325 13.3667 53.3281 13.3887 53.3325 13.396L53.3281 13.6508C53.3281 13.79 53.3311 13.9306 53.3355 14.0521V14.1004L53.3296 14.121L53.3649 14.6145C53.3575 14.657 53.3619 14.6921 53.3649 14.7156L53.384 14.9748L53.3928 15.0304C53.3958 15.0744 53.4002 15.1183 53.4061 15.1623C53.4105 15.2003 53.4149 15.2384 53.4178 15.2882L53.4296 15.3629C53.4355 15.401 53.4384 15.4391 53.4428 15.4771C53.4472 15.5181 53.4516 15.5606 53.4575 15.6031L53.4693 15.6851C53.4752 15.7232 53.4825 15.7642 53.4914 15.8052C53.4987 15.8433 53.5061 15.8799 53.5105 15.915L53.5369 16.0849C53.5487 16.1289 53.5561 16.1787 53.5737 16.2651C53.5767 16.2724 53.5796 16.2958 53.584 16.3193L53.7105 16.9065C53.8458 17.4528 54.0281 18.0108 54.2678 18.6069L54.2517 18.6157L54.5664 19.3026L54.7193 19.2059C55.4973 18.7182 56.1694 18.1192 56.7194 17.425L56.7709 17.3606L56.7473 17.2859H56.7562L56.6929 17.0984C56.3164 15.9971 56.1267 14.8576 56.1326 13.6977C56.1297 13.6479 56.1326 13.5981 56.1356 13.5117L56.14 13.3521C56.1414 13.3154 56.1429 13.2832 56.1385 13.2832C56.14 13.2627 56.1429 13.2408 56.1458 13.2246L56.1503 13.1939V13.191V13.1866V13.1602C56.1503 13.1397 56.1503 13.1192 56.1517 13.0987C56.1532 13.0694 56.1547 13.0416 56.1517 13.0313L56.1605 12.9464C56.165 12.8907 56.1694 12.8336 56.1782 12.7443L56.1826 12.7003C56.187 12.6476 56.19 12.5949 56.2003 12.5378C56.2047 12.5129 56.2106 12.4748 56.2106 12.4426C56.2179 12.3913 56.2253 12.343 56.2297 12.2917C56.2341 12.2756 56.237 12.2536 56.237 12.2302L56.2811 11.9959C56.3267 11.7132 56.3841 11.4306 56.4591 11.1318L56.4709 11.0937C56.4782 11.0732 56.4841 11.0527 56.4885 11.0337C56.7576 10.0143 57.1724 9.05065 57.7194 8.16898C57.9062 7.85996 58.1386 7.53483 58.4297 7.17309L58.6092 6.94901C58.6753 6.867 58.743 6.78352 58.8136 6.70297L58.8739 6.64145C58.9503 6.55651 59.0312 6.47449 59.1121 6.39247L59.2283 6.27385C59.3121 6.18744 59.396 6.10103 59.4812 6.02048L59.6298 5.88867C59.7371 5.79201 59.846 5.69682 59.9577 5.60455L59.9974 5.57086C60.0092 5.56061 60.021 5.55036 60.0489 5.52986C60.1651 5.4332 60.2827 5.34531 60.4019 5.25744L60.4607 5.21351C60.5092 5.17689 60.5563 5.14028 60.6107 5.1022L60.8798 4.91913C60.971 4.85908 61.0637 4.80051 61.1592 4.74192C61.221 4.70238 61.2813 4.6643 61.3636 4.61597C61.3754 4.60865 61.3872 4.60132 61.4298 4.58228C61.549 4.51052 61.6637 4.44462 61.7843 4.38457L61.8166 4.36992C61.9034 4.32305 61.9901 4.27765 62.0754 4.23518C62.1784 4.18539 62.2813 4.13706 62.3857 4.09166C62.7549 3.92616 63.099 3.78996 63.4387 3.67865L63.5225 3.65083C63.9446 3.51462 64.3785 3.40478 64.8108 3.32277L64.9388 3.29933C65.0535 3.28029 65.1696 3.26125 65.2829 3.24514C65.6608 3.19095 66.002 3.15727 66.3153 3.14408H66.3594C66.4991 3.1353 66.63 3.12945 66.7653 3.13238L66.7741 3.1353H66.8021C66.9182 3.13383 67.0344 3.13237 67.1462 3.1353L67.1579 3.14116L67.3359 3.14408C67.4933 3.15287 67.6491 3.16312 67.8286 3.1807C67.8889 3.18509 67.9506 3.19242 68.0094 3.19974L68.1109 3.21146C68.48 3.25539 68.8404 3.31837 69.1845 3.39453L69.2418 3.40771C69.2712 3.41357 69.3007 3.41943 69.3624 3.43554C69.4536 3.45751 69.5433 3.48241 69.6345 3.50877L70.0566 3.62885C70.1654 3.664 70.2757 3.70062 70.383 3.7387C70.4404 3.7592 70.4977 3.77971 70.5536 3.80168L70.6948 3.8544C70.761 3.8793 70.8272 3.90273 70.911 3.93642C70.9757 3.96278 71.0404 3.99061 71.1051 4.0199L71.1786 4.05211C71.3742 4.13852 71.5684 4.22786 71.7551 4.3216L71.7904 4.34064C71.9596 4.42704 72.1243 4.52223 72.2875 4.61743L72.5228 4.75803C72.6493 4.83565 72.7728 4.9206 72.8978 5.00701L73.0478 5.10953C73.089 5.13736 73.1302 5.16371 73.1596 5.18421C73.1787 5.20179 73.1993 5.21644 73.2537 5.25452L73.2875 5.28088C73.3493 5.32775 73.4081 5.37461 73.467 5.42148L73.6052 5.52986C73.7037 5.61041 73.8008 5.69096 73.9052 5.78469L73.9434 5.81837C73.9611 5.83448 73.9802 5.85059 73.989 5.85792C74.1567 6.01023 74.3155 6.16547 74.4685 6.31339C74.5111 6.36172 74.5582 6.40859 74.6038 6.45253L74.7126 6.33975L74.6332 6.48621C74.7655 6.62827 74.8979 6.77326 75.0288 6.92851L75.1685 7.09547C75.4994 7.50555 75.7773 7.89951 76.0156 8.29494L76.0538 8.35938C76.1847 8.57321 76.3156 8.81632 76.4671 9.12535C76.4876 9.16635 76.5082 9.20736 76.5391 9.2718L76.6818 9.20589L76.5553 9.30988L76.6568 9.53689C76.7023 9.6438 76.7479 9.74924 76.7906 9.85469C76.8053 9.89131 76.8185 9.92939 76.8303 9.966L76.8626 10.0583C76.9921 10.4068 77.1068 10.7774 77.2038 11.1611L77.2362 11.287C77.2583 11.3705 77.2789 11.4525 77.298 11.5375C77.348 11.7718 77.3921 12.0076 77.4274 12.2449C77.4715 12.548 77.5024 12.8658 77.52 13.1866C77.5318 13.497 77.5347 13.7343 77.5274 13.9569L77.5244 14.0917C77.523 14.1781 77.5215 14.263 77.5141 14.3685C77.5141 14.3875 77.5141 14.4065 77.5083 14.4549L77.5024 14.575L77.4877 14.7112C77.4877 14.7317 77.4877 14.7551 77.4789 14.7947L77.4583 14.9558C77.4333 15.1725 77.4009 15.4288 77.3509 15.6836L77.2921 15.9473C77.2656 16.0674 77.2333 16.1874 77.2024 16.3061L77.1833 16.3749C77.0759 16.785 76.9406 17.2009 76.7774 17.6066C76.7377 17.7077 76.6965 17.8087 76.6524 17.9098C76.4509 18.3755 76.2244 18.8149 75.9817 19.2147C75.8009 19.5105 75.6112 19.7903 75.4053 20.0641L75.5303 20.1593L75.3758 20.1022C75.3273 20.1608 75.2817 20.2208 75.2376 20.2794L74.9832 20.5811C74.9538 20.6177 74.9214 20.6529 74.8773 20.6997C74.8552 20.7246 74.8317 20.7495 74.8097 20.773L74.7523 20.8345C74.5979 21.0015 74.4405 21.1669 74.2773 21.3251L74.3876 21.4379L74.2346 21.3647C74.0434 21.5463 73.8523 21.7162 73.6478 21.8831C73.2846 22.1804 72.8846 22.4645 72.4596 22.7252L72.411 22.7531C72.289 22.8292 72.1581 22.8995 72.0272 22.9684L71.886 23.0445C71.8037 23.0899 71.7213 23.1353 71.636 23.1778L71.5743 23.2085C71.4757 23.2583 71.3787 23.3067 71.2787 23.3594L71.236 23.3726C70.9198 23.5146 70.5948 23.6303 70.2933 23.7343L70.186 23.7724C70.136 23.7914 70.0845 23.809 70.0198 23.8295L69.8198 23.8866C69.6433 23.9364 69.4654 23.9862 69.2845 24.0272C69.2183 24.0433 69.1521 24.058 69.0845 24.0712C68.9668 24.0961 68.8492 24.1166 68.7315 24.1371L68.6889 24.1444C68.4815 24.181 68.2742 24.2088 68.058 24.2352C67.9609 24.2469 67.8624 24.2572 67.7624 24.266C67.7344 24.2689 67.7065 24.2718 67.6403 24.2747C67.6212 24.2747 67.6006 24.2747 67.5653 24.2835H67.4727C67.2947 24.2967 67.1109 24.2982 66.9285 24.2967H66.877C66.7065 24.2982 66.5344 24.3011 66.3682 24.2923L66.2962 24.2894C66.1506 24.2821 66.005 24.2703 65.8594 24.2572L65.7991 24.2528C65.7506 24.2484 65.702 24.244 65.655 24.2396C65.4858 24.2206 65.3182 24.1986 65.1196 24.1678L65.0726 24.162C64.9829 24.1473 64.8946 24.1297 64.8064 24.1107L64.6226 24.0741C64.5476 24.0594 64.474 24.0433 64.3976 24.0258C64.2373 23.9891 64.0784 23.9481 63.9123 23.9013C63.8873 23.8925 63.8667 23.8866 63.8387 23.8793C63.6476 23.8237 63.4578 23.7548 63.2681 23.6889L63.0931 23.6274C63.0431 23.6098 62.9916 23.5937 62.9078 23.5615L62.574 23.4224C62.5549 23.4121 62.5343 23.4033 62.499 23.3931L62.4534 23.3682C62.4137 23.3535 62.3799 23.3374 62.3254 23.3096C62.3107 23.3037 62.2975 23.2979 62.2828 23.292C62.2681 23.2847 62.2534 23.2788 62.2387 23.273C62.2299 23.2686 62.221 23.2627 62.2093 23.2583L62.1107 23.2085C61.8504 23.0797 61.6357 22.9654 61.4328 22.8453L61.3916 22.8234C61.0386 22.6183 60.6945 22.3899 60.346 22.1262C60.0195 21.8787 59.7062 21.6136 59.418 21.3368C59.2239 21.1508 59.0386 20.9487 58.8548 20.7481L58.7062 20.5855L58.6003 20.7788C58.1621 21.5712 57.6753 22.2654 57.1547 22.8409L57.065 22.9566L57.1665 23.0621C57.2665 23.1661 57.3724 23.2642 57.4797 23.3638L57.6062 23.4824C57.765 23.6333 57.9268 23.7782 58.0871 23.9145C58.1033 23.9291 58.1194 23.9423 58.1371 23.9555L58.4533 24.2088C58.5018 24.2469 58.5503 24.2821 58.5989 24.3187L58.7856 24.4593C58.8268 24.4915 58.868 24.5237 58.9092 24.5545L58.9651 24.5969C59.0048 24.6277 59.043 24.657 59.0812 24.6804L59.1312 24.7126C59.1724 24.7419 59.2136 24.7683 59.2533 24.7947C59.2959 24.8225 59.3386 24.8503 59.3857 24.884C59.4357 24.9162 59.4857 24.9455 59.5357 24.9748L59.7489 25.1095C59.8151 25.152 59.8798 25.1959 59.943 25.234C59.993 25.2648 60.043 25.2926 60.093 25.319C60.1342 25.3409 60.1739 25.3629 60.2121 25.3863L60.2489 25.4083C60.2695 25.4215 60.2886 25.4332 60.3092 25.4449L60.3577 25.4654C60.4048 25.4962 60.4578 25.5225 60.5136 25.5489L60.6754 25.6324C60.7033 25.65 60.7283 25.6602 60.7357 25.6602L60.7681 25.6778L60.7636 25.6924L60.896 25.751C60.9607 25.7803 61.0313 25.8111 61.1254 25.855L61.1725 25.8814C61.2195 25.8975 61.271 25.9209 61.3342 25.9502L61.374 25.9678C61.396 25.978 61.4195 25.9897 61.4078 25.9795C61.4342 25.9971 61.4607 26.0058 61.4695 26.0073L61.5107 26.0278C61.5357 26.0381 61.5622 26.0469 61.5916 26.0571L61.674 26.0966C61.7151 26.1128 61.7578 26.1259 61.8004 26.1391L62.0328 26.2255C62.1063 26.2578 62.1813 26.29 62.2549 26.3134C62.3181 26.3368 62.3813 26.3617 62.4828 26.3925L62.5754 26.4247C62.6034 26.4364 62.6328 26.4437 62.6637 26.4496L62.724 26.4701C62.7637 26.4833 62.8034 26.4979 62.8431 26.5097C63.1064 26.5902 63.3872 26.6649 63.7225 26.744C63.7593 26.7542 63.7961 26.7601 63.8328 26.7674L63.9108 26.785C63.9358 26.7909 63.9608 26.7952 64.024 26.807L64.1564 26.8348C64.2667 26.8597 64.377 26.8846 64.4829 26.9007L64.699 26.93C64.8593 26.9593 65.0182 26.9842 65.1785 27.0032C65.2388 27.012 65.2991 27.0179 65.3549 27.0223C65.4049 27.0266 65.455 27.0325 65.5138 27.0398C65.5608 27.0442 65.6064 27.0471 65.652 27.0486L65.8403 27.0633C66.0314 27.0808 66.2226 27.0984 66.4182 27.1057H66.4888C66.5109 27.1057 66.5315 27.1072 66.552 27.1087H66.6359C66.6932 27.113 66.7432 27.1145 66.8197 27.1087C66.8447 27.1116 66.8653 27.1116 66.9079 27.1131C66.9727 27.1101 67.0359 27.1072 67.0976 27.1101L67.2227 27.1072C67.2432 27.1116 67.2653 27.1116 67.2888 27.1072C67.3506 27.1028 67.4153 27.0984 67.508 27.0955L67.5344 27.0999L67.5609 27.0955C67.6124 27.0882 67.6712 27.0852 67.7403 27.0823C67.7565 27.0808 67.7712 27.0794 67.7874 27.0794C67.8094 27.0779 67.8315 27.0764 67.8168 27.0735C67.8609 27.0779 67.8977 27.0735 67.93 27.0677C68.0021 27.0603 68.0771 27.0501 68.1712 27.0384L68.4124 27.012C68.4742 27.0047 68.5359 26.9974 68.5962 26.9915L68.6109 26.9973L68.6653 26.9812C68.68 26.9768 68.6948 26.9754 68.7212 26.9739C68.7756 26.971 68.833 26.9607 68.8874 26.9505L69.0477 26.9241C69.1433 26.9095 69.2404 26.8948 69.3374 26.8773C69.3727 26.8699 69.4095 26.8626 69.4448 26.8524L69.5683 26.8289L69.5757 26.826C69.5904 26.8231 69.6065 26.8187 69.6213 26.8143L69.7948 26.7762C69.9404 26.7455 70.0845 26.7147 70.2257 26.6781C70.3227 26.6546 70.4154 26.6283 70.5095 26.599L70.5978 26.5726C70.6242 26.5653 70.6522 26.5594 70.6786 26.5536C70.7198 26.5433 70.7625 26.5345 70.8022 26.5214L71.2066 26.391H71.2095L71.2816 26.3661L71.2669 26.3617L71.2728 26.3588C71.2919 26.3529 71.3125 26.3442 71.3625 26.3251C71.4198 26.309 71.4713 26.29 71.5316 26.268L71.5919 26.2431C71.6272 26.2372 71.6537 26.2255 71.6654 26.2197L72.0257 26.0732C72.0463 26.0674 72.064 26.0615 72.0816 26.0542L72.6316 25.8155C72.6802 25.795 72.7287 25.7759 72.7758 25.7525L72.8375 25.7203C72.8581 25.7085 72.8802 25.6983 72.9022 25.688C72.9287 25.6763 72.9552 25.6631 72.9714 25.6529C73.0228 25.6295 73.0669 25.6075 73.1331 25.5679C73.164 25.5548 73.1846 25.5445 73.2125 25.5299C73.2684 25.4976 73.3243 25.4669 73.4023 25.4273C73.414 25.4186 73.4214 25.4156 73.4376 25.4083L73.7096 25.2501C73.7096 25.2501 73.7125 25.2487 73.7155 25.2472L73.7184 25.2648L73.989 25.0802C74.0038 25.0729 74.017 25.0627 74.0435 25.0451L74.3376 24.8576C74.3964 24.8181 74.4552 24.7785 74.5141 24.7375L74.6508 24.6438L74.7096 24.5999C74.717 24.5925 74.7273 24.5838 74.7538 24.5691C74.8008 24.5413 74.8464 24.5061 74.8891 24.4725C74.9332 24.4402 74.9744 24.4065 75.0155 24.3729L75.1273 24.2879C75.1685 24.2572 75.2111 24.2264 75.2597 24.1869C75.2699 24.1766 75.2832 24.1678 75.3185 24.1415L75.5803 23.9232C75.5964 23.9101 75.6126 23.8983 75.617 23.8925C75.7067 23.8193 75.7979 23.7402 75.8803 23.6626L75.9259 23.6245C75.942 23.6113 75.9553 23.5996 75.9582 23.5922C75.9994 23.5571 76.0376 23.519 76.0773 23.4809L76.1156 23.4443C76.1509 23.4121 76.1876 23.3814 76.2244 23.3491C76.2788 23.3023 76.3317 23.2569 76.3817 23.2085L76.6906 22.8966H76.6818L76.7112 22.8585L76.7391 22.8278C76.7524 22.8131 76.7641 22.7999 76.8024 22.7575L76.845 22.7121C76.8656 22.6901 76.8877 22.6681 76.9097 22.6418L76.9391 22.6066L76.8185 22.5055L76.9009 22.5407L76.9406 22.5978C76.9685 22.5788 76.9935 22.5553 77.0053 22.5378L77.5892 21.8304C77.6215 21.7908 77.6509 21.7498 77.6818 21.7088L77.9318 21.3647L77.8024 21.2739L77.97 21.3075L77.9936 21.2739C78.0186 21.2387 78.045 21.2021 78.0612 21.1757L78.2892 20.8257L78.3774 20.6807C78.4024 20.6514 78.4186 20.6236 78.4362 20.5899L78.6495 20.2252C78.6745 20.1828 78.6921 20.1505 78.6995 20.13C78.7495 20.0495 78.7965 19.9601 78.8451 19.8635C78.8583 19.8415 78.8745 19.8152 78.8774 19.802L79.1157 19.3084C79.151 19.2352 79.1863 19.1634 79.223 19.077C79.2274 19.0638 79.2348 19.0507 79.2539 19.0111L79.3818 18.6962C79.3892 18.6787 79.398 18.6596 79.3995 18.6538C79.4436 18.5483 79.4877 18.4355 79.5216 18.3316L79.3774 18.2671L79.5363 18.2949C79.551 18.2627 79.5598 18.2364 79.5583 18.232L79.6245 18.0401C79.6421 17.9918 79.6598 17.942 79.6686 17.9068L79.7274 17.756V17.7472L79.7877 17.5319L79.8113 17.485V17.4675C79.8113 17.4675 79.8142 17.4528 79.8172 17.444L79.823 17.4279C79.8274 17.4147 79.8333 17.3986 79.8363 17.3752C79.8495 17.343 79.8583 17.3078 79.8657 17.2756C79.876 17.2288 79.8877 17.1863 79.9039 17.1394L80.0451 16.5594V16.5448C80.0495 16.5287 80.0525 16.5126 80.051 16.5126L80.1466 16.0439L79.9951 15.9956L80.1525 15.9985L80.1613 15.956V15.9326L80.1789 15.8433L80.023 15.8198L80.1863 15.8008L80.223 15.5782C80.226 15.5548 80.2304 15.5255 80.2333 15.4962L80.2598 15.2867V15.2223L80.2789 15.1491V15.1403L80.2716 15.1388ZM59.4107 2.71644L59.3783 2.69008L59.3533 2.63735L59.4107 2.71497V2.71644ZM76.5538 22.7867V22.7838L76.5803 22.8043V22.8072L76.5553 22.7853L76.5538 22.7867Z" fill="#0071BC"/>
<path id="Vector_7" d="M117.267 3.09869L109.555 22.0442L101.843 3.09869C101.277 1.70882 99.6298 1.01755 98.1621 1.55211L108.187 26.1787C108.411 26.7264 108.97 27.0559 109.555 27.0398C110.142 27.0559 110.701 26.7264 110.923 26.1787L120.948 1.55211C119.48 1.01608 117.833 1.70882 117.267 3.09869Z" fill="#29ABE2"/>
<path id="Vector_8" d="M118.473 23.1104C122.768 20.4962 123.895 19.4739 125.845 19.0638C125.845 19.0638 123.37 18.8881 119.504 20.2677L118.473 23.1089V23.1104Z" fill="#29ABE2"/>
<path id="Vector_9" d="M162.627 23.1104C166.923 20.4962 168.049 19.4739 169.999 19.0638C169.999 19.0638 167.524 18.8881 163.658 20.2677L162.627 23.1089V23.1104Z" fill="#29ABE2"/>
<path id="Vector_10" d="M126.632 2.23605C126.408 1.68831 125.849 1.35878 125.264 1.37489C124.677 1.35878 124.118 1.68831 123.896 2.23605L113.871 26.8626C115.339 27.3986 116.986 26.7059 117.552 25.316L125.264 6.3705L132.976 25.316C133.542 26.7059 135.189 27.3972 136.657 26.8626L126.632 2.23605Z" fill="#29ABE2"/>
<path id="Vector_11" d="M157.624 22.1555C154.309 23.3813 150.822 23.5058 148.175 23.5058C145.182 23.5058 138.7 22.2478 138.7 14.6995C138.7 6.52136 145.649 4.00524 148.175 4.00524C152.597 4.00524 155.124 6.52136 154.492 7.77941C153.228 10.2955 148.806 9.66723 148.806 9.66723C150.702 10.9253 155.123 12.1833 157.649 7.77941C159.337 4.83858 155.123 0.859375 148.806 0.859375C143.121 0.859375 135.541 4.63354 135.541 14.698C135.541 23.5044 142.35 27.2785 148.174 27.2785C150.806 27.2785 153.65 26.6034 156.195 25.6631L157.623 22.1541L157.624 22.1555Z" fill="#29ABE2"/>
<path id="Vector_12" d="M171.587 2.23605C171.363 1.68831 170.804 1.35878 170.219 1.37489C169.632 1.35878 169.074 1.68831 168.851 2.23605L158.826 26.8626C160.294 27.3986 161.941 26.7059 162.507 25.316L170.219 6.3705L177.931 25.316C178.497 26.7059 180.144 27.3972 181.612 26.8626L171.587 2.23605Z" fill="#29ABE2"/>
<path id="Vector_13" d="M194.998 1.3324C193.379 1.29139 191.777 1.94459 191.421 2.79403L187.185 12.8922L182.948 2.79403C182.592 1.94459 180.99 1.29139 179.371 1.3324L185.685 16.3763C185.695 16.3998 185.707 16.4232 185.721 16.4466C185.715 16.5404 185.746 16.6297 185.805 16.7088V25.8447C185.805 26.5301 186.362 27.0867 187.052 27.0867H187.302C187.99 27.0867 188.549 26.5316 188.549 25.8447V16.7337C188.621 16.6473 188.657 16.5492 188.651 16.4466C188.664 16.4232 188.677 16.3998 188.688 16.3763L195.001 1.3324H194.998Z" fill="#29ABE2"/>
</g>
</g>
</g>
</svg>
