<svg width="25" height="24" viewBox="0 0 25 24" fill="none" xmlns="http://www.w3.org/2000/svg">
<g id="heroicons:credit-card">
<path id="Vector" d="M2.3877 8.25H21.8877M2.3877 9H21.8877M5.3877 14.25H11.3877M5.3877 16.5H8.3877M4.6377 19.5H19.6377C20.2344 19.5 20.8067 19.2629 21.2287 18.841C21.6506 18.419 21.8877 17.8467 21.8877 17.25V6.75C21.8877 6.15326 21.6506 5.58097 21.2287 5.15901C20.8067 4.73705 20.2344 4.5 19.6377 4.5H4.6377C4.04096 4.5 3.46866 4.73705 3.04671 5.15901C2.62475 5.58097 2.3877 6.15326 2.3877 6.75V17.25C2.3877 17.8467 2.62475 18.419 3.04671 18.841C3.46866 19.2629 4.04096 19.5 4.6377 19.5Z" stroke="#212529" stroke-width="1.5" stroke-linecap="round" stroke-linejoin="round"/>
</g>
</svg>
