<svg width="24" height="25" viewBox="0 0 24 25" fill="none" xmlns="http://www.w3.org/2000/svg">
<g id="Media / Icon/Filled/download">
<path id="Icon" fill-rule="evenodd" clip-rule="evenodd" d="M4.65039 20.1631C4.65039 19.5832 5.12049 19.1131 5.70039 19.1131H18.3004C18.8803 19.1131 19.3504 19.5832 19.3504 20.1631C19.3504 20.743 18.8803 21.2131 18.3004 21.2131H5.70039C5.12049 21.2131 4.65039 20.743 4.65039 20.1631ZM8.10793 12.0706C8.51798 11.6606 9.1828 11.6606 9.59285 12.0706L10.9504 13.4282L10.9504 5.46309C10.9504 4.88319 11.4205 4.41309 12.0004 4.41309C12.5803 4.41309 13.0504 4.88319 13.0504 5.46309L13.0504 13.4282L14.4079 12.0706C14.818 11.6606 15.4828 11.6606 15.8929 12.0706C16.3029 12.4807 16.3029 13.1455 15.8929 13.5555L12.7429 16.7055C12.5459 16.9025 12.2789 17.0131 12.0004 17.0131C11.7219 17.0131 11.4548 16.9025 11.2579 16.7055L8.10793 13.5555C7.69788 13.1455 7.69788 12.4807 8.10793 12.0706Z" fill="#29ABE2"/>
</g>
</svg>
