<svg width="125" height="32" viewBox="0 0 125 32" fill="none" xmlns="http://www.w3.org/2000/svg">
<g id="Expedia logo" clip-path="url(#clip0_583_2310)">
<path id="path4354" d="M60.0831 23.6427H56.1972C56.1726 23.6427 56.1726 23.6427 56.1603 23.6305L52.8155 19.594L49.4707 23.6305C49.4584 23.6427 49.4461 23.6427 49.4338 23.6427H46.3226C46.298 23.6427 46.2857 23.6305 46.2734 23.6184C46.2734 23.6062 46.2734 23.5819 46.2857 23.5697L51.2169 17.5879L46.3472 11.6669C46.3349 11.6426 46.3349 11.6304 46.3349 11.6061C46.3472 11.5939 46.3595 11.5818 46.3718 11.5818H50.2577C50.27 11.5818 50.2823 11.5939 50.2946 11.6061L53.2336 15.2049L56.2218 11.6061C56.2341 11.5939 56.2464 11.5818 56.2587 11.5818H59.419C59.4313 11.5818 59.4559 11.5939 59.4682 11.6061C59.4805 11.6304 59.4682 11.6426 59.4559 11.6669L54.8445 17.1502L60.1323 23.5697C60.1446 23.5819 60.1446 23.6062 60.1446 23.6184C60.12 23.6427 60.1077 23.6427 60.0831 23.6427Z" fill="#ADB5BD"/>
<path id="path4358" d="M81.0996 13.6973C79.378 13.6973 78.2098 14.7307 77.8655 16.5179H83.7189V16.3964C83.7189 14.9739 82.6491 13.6973 81.0996 13.6973ZM86.7317 18.366C86.7194 18.3781 86.7071 18.3903 86.6948 18.3903H77.804C77.9885 20.4329 79.3289 21.6 81.5054 21.6C82.8458 21.6 84.2723 21.1502 86.2767 20.0924C86.3136 20.0681 86.3505 20.1046 86.3505 20.1411V22.8402C86.3505 22.8645 86.3382 22.8767 86.3259 22.8767C84.4567 23.6548 82.5753 24.1897 81.0996 24.1897C77.2752 24.1897 74.4961 21.4298 74.4961 17.6365C74.4961 13.8432 77.2752 11.0833 81.0996 11.0833C84.592 11.0833 86.8301 13.4055 86.8301 16.6031C86.8301 17.1259 86.744 18.3295 86.7317 18.366Z" fill="#ADB5BD"/>
<path id="path4362" d="M104.785 9.07708C103.69 9.07708 102.805 8.21385 102.805 7.15609C102.805 6.06186 103.69 5.17432 104.785 5.17432C105.879 5.17432 106.764 6.06186 106.764 7.15609C106.764 8.21385 105.879 9.07708 104.785 9.07708ZM103.186 23.6425C103.149 23.6425 103.137 23.6304 103.137 23.5939V11.6181C103.137 11.5938 103.149 11.5695 103.174 11.5695H106.383C106.408 11.5695 106.42 11.5938 106.42 11.6181V23.5939C106.42 23.6304 106.395 23.6425 106.371 23.6425H103.186Z" fill="#ADB5BD"/>
<path id="path4366" d="M65.9611 21.8432C65.3831 21.8432 64.7929 21.7581 64.1042 21.5879L64.1165 13.9039C64.9158 13.6486 65.6045 13.5392 66.2931 13.5392C68.5189 13.5392 70.0068 15.1562 70.0068 17.5757C70.0068 20.1654 68.4205 21.8432 65.9611 21.8432ZM66.8342 11.0833C65.9242 11.0833 65.0142 11.2413 64.055 11.5696H60.8578C60.8332 11.5696 60.8086 11.5939 60.8086 11.6182V31.2536C61.7678 31.1199 62.9483 30.7794 64.1042 29.977V24.0074C64.8912 24.1168 65.543 24.1897 66.1701 24.1897C70.5479 24.1897 73.3762 21.6 73.3762 17.5879C73.3762 13.758 70.6832 11.0833 66.8342 11.0833Z" fill="#ADB5BD"/>
<path id="path4370" d="M97.3443 20.8464C96.3482 21.3692 95.4505 21.6123 94.6143 21.6123C92.6345 21.6123 91.4417 20.2263 91.4417 17.9041C91.4417 15.2293 92.9542 13.4907 95.303 13.4907C95.9547 13.4907 96.5819 13.6487 97.3443 13.9892V20.8464ZM97.3443 5.2353V11.4967C96.4097 11.2293 95.5858 11.1077 94.7496 11.1077C90.9375 11.1077 88.0723 13.9405 88.0723 17.7096C88.0723 21.4543 90.6055 24.1777 94.0978 24.1777C95.303 24.1777 96.4343 23.8737 97.7624 23.205V24.2871C98.6355 24.1169 99.6438 23.7765 100.64 23.0713V3.94653C99.6684 4.08027 98.5125 4.40854 97.3443 5.2353Z" fill="#ADB5BD"/>
<path id="path4374" d="M117.547 20.822C116.576 21.3691 115.752 21.6366 115.014 21.6366C112.887 21.6366 111.62 20.2506 111.62 17.9284C111.62 15.2901 113.12 13.515 115.346 13.515C115.936 13.515 116.662 13.746 117.547 14.208V20.822ZM120.843 11.4238C120.843 11.3508 120.782 11.29 120.708 11.29H118.113C118.039 11.29 117.966 11.3508 117.966 11.4238V11.8615H117.904C116.711 11.3387 115.678 11.1077 114.682 11.1077C111.091 11.1077 108.275 14.0499 108.275 17.819C108.275 21.6245 110.796 24.1777 114.547 24.1777C115.543 24.1777 116.834 24.1047 118.039 22.743V24.2871C118.888 24.1047 119.896 23.7521 120.843 23.0713V11.4238Z" fill="#ADB5BD"/>
<path id="path4378" d="M37.444 20.6517H45.4986C45.3756 21.5393 45.0682 22.5849 44.3795 23.6426H36.0052C34.9846 23.6426 34.1361 22.8524 34.0377 21.8675C34.0377 21.8554 34.0254 21.8432 34.0254 21.8189V6.11059C34.0254 6.09843 34.0377 6.08627 34.0377 6.07411C34.1361 5.07714 34.9846 4.28687 36.0052 4.28687H45.4863C45.3633 5.17441 45.0559 6.24433 44.355 7.30209H37.444V11.5818H44.2935C44.3181 11.5818 44.3427 11.6061 44.3427 11.6304V14.597C44.3427 14.6213 44.3181 14.6456 44.2935 14.6456H37.444V20.6517Z" fill="#ADB5BD"/>
<path id="path4382" d="M27.3602 27.734C26.5609 27.734 26.069 27.1139 26.069 26.3601C26.069 25.5577 26.6347 24.9862 27.3602 24.9862C28.0734 24.9862 28.6391 25.5455 28.6391 26.3601C28.6391 27.1747 28.0734 27.734 27.3602 27.734ZM27.3602 24.8403C26.5486 24.8403 25.8477 25.4482 25.8477 26.3601C25.8477 27.2233 26.4748 27.8799 27.3602 27.8799C28.1595 27.8799 28.8604 27.272 28.8604 26.3601C28.8604 25.4482 28.1718 24.8403 27.3602 24.8403Z" fill="#ADB5BD"/>
<path id="path4386" d="M27.0035 26.2385V25.6792H27.3847C27.5815 25.6792 27.8028 25.7036 27.8028 25.9346C27.8028 26.2142 27.5938 26.2264 27.3602 26.2264C27.3479 26.2385 27.0035 26.2385 27.0035 26.2385ZM28.0734 25.971C28.0734 25.6063 27.852 25.4482 27.4093 25.4482H26.7207V27.2476H27.0158V26.4817H27.2987L27.766 27.2476H28.1103L27.6061 26.4574C27.8766 26.4331 28.0734 26.2993 28.0734 25.971Z" fill="#ADB5BD"/>
<path id="path4390" d="M123.499 13.5636C122.7 13.5636 122.208 12.9435 122.208 12.1897C122.208 11.3873 122.773 10.8159 123.499 10.8159C124.212 10.8159 124.778 11.3751 124.778 12.1897C124.778 13.0043 124.212 13.5636 123.499 13.5636ZM123.499 10.6821C122.687 10.6821 121.986 11.29 121.986 12.2019C121.986 13.0651 122.613 13.7217 123.499 13.7217C124.298 13.7217 124.999 13.1138 124.999 12.2019C124.999 11.2779 124.298 10.6821 123.499 10.6821Z" fill="#ADB5BD"/>
<path id="path4394" d="M123.13 12.0682V11.521H123.511C123.708 11.521 123.929 11.5454 123.929 11.7764C123.929 12.056 123.72 12.0682 123.487 12.0682H123.13ZM124.212 11.8128C124.212 11.4481 123.991 11.29 123.548 11.29H122.859V13.0894H123.155V12.3235H123.437L123.905 13.0894H124.249L123.745 12.2992C124.003 12.2748 124.212 12.1411 124.212 11.8128Z" fill="#ADB5BD"/>
<path id="path4398" d="M16.9698 11.1258L16.3918 9.49657L11.4238 2.94333L12.3092 2.72449L20.8557 10.0315L25.8852 8.60903C26.4754 8.46313 27.1518 8.42666 27.656 8.42666C26.0819 5.05885 23.1798 2.28679 19.3677 0.949396C11.8296 -1.71324 3.52906 2.18953 0.848289 9.65463C0.012086 11.9647 -0.17237 14.3477 0.171948 16.6091L12.2108 12.4753L16.9698 11.1258Z" fill="#ADB5BD"/>
<path id="path4402" d="M28.197 9.71558C27.7543 9.99521 27.1026 10.3721 26.4631 10.5788L21.4213 12.0013L18.0642 22.6762L17.1911 22.9558L17.9044 14.8098L17.5109 13.1199L12.7888 14.4573L0.294922 17.3387C1.29099 22.0804 4.68499 26.2263 9.64072 27.965C17.1911 30.6276 25.4794 26.7248 28.1724 19.2597C29.3284 16.0621 29.2546 12.7065 28.197 9.71558Z" fill="#ADB5BD"/>
<path id="path4406" d="M17.4991 13.1076L17.8926 14.7976L17.1793 22.9436L18.0524 22.6639L21.4095 11.9891L26.4514 10.5666C27.0908 10.3599 27.7425 9.99513 28.1852 9.70334C28.0254 9.26564 27.8532 8.84011 27.6565 8.41457C27.14 8.41457 26.4759 8.43889 25.8857 8.59695L20.8562 10.0194L12.3097 2.7124L11.4243 2.93125L16.38 9.48449L16.958 11.1137L12.199 12.4632L0.160156 16.597C0.197048 16.8402 0.246236 17.0955 0.295424 17.3387L12.777 14.4329L17.4991 13.1076Z" fill="white"/>
</g>
<defs>
<clipPath id="clip0_583_2310">
<rect width="125" height="31" fill="white" transform="translate(0 0.5)"/>
</clipPath>
</defs>
</svg>
