<svg width="60" height="61" viewBox="0 0 60 61" fill="none" xmlns="http://www.w3.org/2000/svg">
<g id="Group 691315023">
<g id="Group 691315020">
<circle id="Ellipse 13" cx="30" cy="30.5845" r="30" fill="#29ABE2" fill-opacity="0.1"/>
</g>
<g id="Group 691315085">
<path id="Vector" d="M30.0002 34.14C30.9432 34.14 31.8477 33.7654 32.5145 33.0985C33.1814 32.4317 33.556 31.5272 33.556 30.5842C33.556 29.6411 33.1814 28.7367 32.5145 28.0698C31.8477 27.403 30.9432 27.0283 30.0002 27.0283C29.0571 27.0283 28.1527 27.403 27.4858 28.0698C26.819 28.7367 26.4443 29.6411 26.4443 30.5842C26.4443 31.5272 26.819 32.4317 27.4858 33.0985C28.1527 33.7654 29.0571 34.14 30.0002 34.14Z" stroke="#29ABE2" stroke-width="2" stroke-linecap="round" stroke-linejoin="round"/>
<path id="Vector_2" d="M46 30.5844C46 30.5844 40.6667 41.2511 30 41.2511C19.3333 41.2511 14 30.5844 14 30.5844C14 30.5844 19.3333 19.9177 30 19.9177C40.6667 19.9177 46 30.5844 46 30.5844Z" stroke="#29ABE2" stroke-width="2" stroke-linecap="round" stroke-linejoin="round"/>
</g>
</g>
</svg>
