<svg width="24" height="25" viewBox="0 0 24 25" fill="none" xmlns="http://www.w3.org/2000/svg">
<g id="Media / Icon/Filled/folder-open">
<g id="Icon">
<path fill-rule="evenodd" clip-rule="evenodd" d="M3.59961 8.61294C3.59961 7.45314 4.53981 6.51294 5.69961 6.51294H9.89961L11.9996 8.61294H16.1996C17.3594 8.61294 18.2996 9.55314 18.2996 10.7129V11.7629H9.89961C8.15991 11.7629 6.74961 13.1732 6.74961 14.9129V16.4879C6.74961 17.3578 6.04446 18.0629 5.17461 18.0629C4.30476 18.0629 3.59961 17.3578 3.59961 16.4879V8.61294Z" fill="#29ABE2"/>
<path d="M7.79961 14.9129C7.79961 13.7531 8.73981 12.8129 9.89961 12.8129H18.2996C19.4594 12.8129 20.3996 13.7531 20.3996 14.9129V17.0129C20.3996 18.1727 19.4594 19.1129 18.2996 19.1129H3.59961H5.69961C6.85941 19.1129 7.79961 18.1727 7.79961 17.0129V14.9129Z" fill="#29ABE2"/>
</g>
</g>
</svg>
