<svg width="25" height="25" viewBox="0 0 25 25" fill="none" xmlns="http://www.w3.org/2000/svg">
<g id="Media / Icon/Filled/globe">
<path id="Icon" fill-rule="evenodd" clip-rule="evenodd" d="M12.4996 21.2131C17.1388 21.2131 20.8996 17.4523 20.8996 12.8131C20.8996 8.17389 17.1388 4.41309 12.4996 4.41309C7.86042 4.41309 4.09961 8.17389 4.09961 12.8131C4.09961 17.4523 7.86042 21.2131 12.4996 21.2131ZM6.54799 10.7419C6.9403 9.61437 7.64397 8.63266 8.55603 7.89967C8.83731 8.32923 9.32283 8.61299 9.87462 8.61299C10.7445 8.61299 11.4496 9.31814 11.4496 10.188V10.713C11.4496 11.8728 12.3898 12.813 13.5496 12.813C14.7094 12.813 15.6496 11.8728 15.6496 10.713C15.6496 9.72587 16.3307 8.89782 17.2486 8.67314C18.2145 9.78027 18.7996 11.2283 18.7996 12.813C18.7996 13.1708 18.7698 13.5217 18.7125 13.8632H17.7496C16.5898 13.8632 15.6496 14.8034 15.6496 15.9632V18.2702C14.7229 18.8062 13.647 19.113 12.4995 19.113V17.0131C12.4995 15.8533 11.5593 14.9131 10.3995 14.9131C9.23972 14.9131 8.29952 13.9729 8.29952 12.8131C8.29952 11.772 7.54194 10.9079 6.54799 10.7419Z" fill="#29ABE2"/>
</g>
</svg>
