<svg width="104" height="35" viewBox="0 0 104 35" fill="none" xmlns="http://www.w3.org/2000/svg">
<g id="google logo" clip-path="url(#clip0_583_2325)">
<path id="Vector" d="M26.219 12.6418H14.2245V16.1835H22.7245C22.2995 21.189 18.144 23.314 14.2245 23.314C9.21897 23.314 4.8273 19.3474 4.8273 13.8224C4.8273 8.43902 8.98286 4.28347 14.2245 4.28347C18.2384 4.28347 20.6467 6.83347 20.6467 6.83347L23.1495 4.23625C23.1495 4.23625 19.9384 0.69458 14.1301 0.69458C6.71619 0.741802 0.955078 7.02236 0.955078 13.7751C0.955078 20.4335 6.33841 26.9029 14.319 26.9029C21.3079 26.9029 26.4551 22.0862 26.4551 15.0029C26.4551 13.4918 26.219 12.6418 26.219 12.6418ZM36.0412 10.0918C31.1301 10.0918 27.5884 13.9168 27.5884 18.4501C27.5884 22.9835 30.9884 26.9029 36.0884 26.9029C40.669 26.9029 44.4467 23.3612 44.4467 18.5446C44.494 12.9251 40.1023 10.0918 36.0412 10.0918ZM36.0884 13.3974C38.4967 13.3974 40.8106 15.3335 40.8106 18.4974C40.8106 21.5668 38.544 23.5974 36.0884 23.5974C33.3967 23.5974 31.2717 21.4724 31.2717 18.4974C31.2717 15.5696 33.3967 13.3974 36.0884 13.3974ZM54.4106 10.0918C49.4995 10.0918 45.9579 13.9168 45.9579 18.4501C45.9579 22.9835 49.3579 26.9029 54.4579 26.9029C59.0384 26.9029 62.8162 23.3612 62.8162 18.5446C62.8634 12.9251 58.4717 10.0918 54.4106 10.0918ZM54.4579 13.3974C56.8662 13.3974 59.1801 15.3335 59.1801 18.4974C59.1801 21.5668 56.9134 23.5974 54.4579 23.5974C51.7662 23.5974 49.6412 21.4724 49.6412 18.4974C49.6884 15.5696 51.7662 13.3974 54.4579 13.3974ZM72.4495 10.0918C67.9162 10.0918 64.3745 14.0585 64.3745 18.4974C64.3745 23.5501 68.4828 26.9029 72.3551 26.9029C74.7634 26.9029 76.0384 25.9585 76.9829 24.8724V26.5251C76.9829 29.4057 75.2356 31.1529 72.544 31.1529C69.994 31.1529 68.6717 29.264 68.2467 28.1779L65.0356 29.5474C66.169 31.9557 68.4828 34.5057 72.5912 34.5057C77.0773 34.5057 80.5245 31.6724 80.5245 25.7224V10.6112H76.9829V12.0279C75.8967 10.8474 74.4329 10.0918 72.4495 10.0918ZM72.7801 13.3974C74.9995 13.3974 77.2662 15.2862 77.2662 18.4974C77.2662 21.8029 74.9995 23.5974 72.7329 23.5974C70.3245 23.5974 68.1051 21.6612 68.1051 18.5446C68.0579 15.2862 70.419 13.3974 72.7801 13.3974ZM96.1551 10.0446C91.9051 10.0446 88.3162 13.4446 88.3162 18.4501C88.3162 23.739 92.2829 26.9029 96.5801 26.9029C100.122 26.9029 102.341 24.9668 103.616 23.2196L100.688 21.2835C99.9329 22.464 98.6579 23.5974 96.5801 23.5974C94.219 23.5974 93.1329 22.3224 92.4717 21.0474L103.758 16.3724L103.191 15.0029C102.058 12.3112 99.5079 10.0446 96.1551 10.0446ZM96.2967 13.3029C97.8551 13.3029 98.9412 14.1057 99.4134 15.0974L91.9051 18.2612C91.5745 15.8057 93.8884 13.3029 96.2967 13.3029ZM82.9801 26.3835H86.6634V1.63902H82.9801V26.3835Z" fill="#ADB5BD"/>
</g>
<defs>
<clipPath id="clip0_583_2325">
<rect width="102.944" height="34" fill="white" transform="translate(0.955078 0.600098)"/>
</clipPath>
</defs>
</svg>
