<svg width="13" height="12" viewBox="0 0 13 12" fill="currentColor" xmlns="http://www.w3.org/2000/svg">
<path d="M4.10177 0.530978H12.9878V1.89805H4.10177V0.530978ZM1.70939 2.23982C1.43746 2.23982 1.17667 2.1318 0.984387 1.93952C0.792105 1.74723 0.684082 1.48644 0.684082 1.21451C0.684082 0.942587 0.792105 0.681796 0.984387 0.489514C1.17667 0.297232 1.43746 0.189209 1.70939 0.189209C1.98132 0.189209 2.24211 0.297232 2.43439 0.489514C2.62667 0.681796 2.73469 0.942587 2.73469 1.21451C2.73469 1.48644 2.62667 1.74723 2.43439 1.93952C2.24211 2.1318 1.98132 2.23982 1.70939 2.23982ZM1.70939 7.02458C1.43746 7.02458 1.17667 6.91656 0.984387 6.72428C0.792105 6.53199 0.684082 6.2712 0.684082 5.99928C0.684082 5.72735 0.792105 5.46656 0.984387 5.27427C1.17667 5.08199 1.43746 4.97397 1.70939 4.97397C1.98132 4.97397 2.24211 5.08199 2.43439 5.27427C2.62667 5.46656 2.73469 5.72735 2.73469 5.99928C2.73469 6.2712 2.62667 6.53199 2.43439 6.72428C2.24211 6.91656 1.98132 7.02458 1.70939 7.02458ZM1.70939 11.741C1.43746 11.741 1.17667 11.633 0.984387 11.4407C0.792105 11.2484 0.684082 10.9876 0.684082 10.7157C0.684082 10.4438 0.792105 10.183 0.984387 9.99068C1.17667 9.7984 1.43746 9.69038 1.70939 9.69038C1.98132 9.69038 2.24211 9.7984 2.43439 9.99068C2.62667 10.183 2.73469 10.4438 2.73469 10.7157C2.73469 10.9876 2.62667 11.2484 2.43439 11.4407C2.24211 11.633 1.98132 11.741 1.70939 11.741ZM4.10177 5.31574H12.9878V6.68281H4.10177V5.31574ZM4.10177 10.1005H12.9878V11.4676H4.10177V10.1005Z" fill="currentColor"/>
</svg>
