<svg width="20" height="21" viewBox="0 0 20 21" fill="none" xmlns="http://www.w3.org/2000/svg">
<g id="ri:home-line">
<path id="Vector" d="M18 17.1666C18 17.3877 17.9122 17.5996 17.7559 17.7559C17.5996 17.9122 17.3877 18 17.1667 18H3.83333C3.61232 18 3.40036 17.9122 3.24408 17.7559C3.0878 17.5996 3 17.3877 3 17.1666V8.40832C2.99991 8.28133 3.02885 8.156 3.0846 8.0419C3.14035 7.9278 3.22143 7.82795 3.32167 7.74998L9.98833 2.56498C10.1346 2.45119 10.3147 2.3894 10.5 2.3894C10.6853 2.3894 10.8654 2.45119 11.0117 2.56498L17.6783 7.74998C17.7786 7.82795 17.8597 7.9278 17.9154 8.0419C17.9712 8.156 18.0001 8.28133 18 8.40832V17.1666ZM16.3333 16.3333V8.81498L10.5 4.27832L4.66667 8.81498V16.3333H16.3333Z" fill="#29ABE2"/>
</g>
</svg>
