<svg xmlns="http://www.w3.org/2000/svg" width="13" height="13" viewBox="0 0 13 13" fill="none">
  <path d="M6.48267 3.5918C8.20532 3.5918 9.6272 5.01367 9.6272 6.73633C9.6272 8.48633 8.20532 9.88086 6.48267 9.88086C4.73267 9.88086 3.33813 8.48633 3.33813 6.73633C3.33813 5.01367 4.73267 3.5918 6.48267 3.5918ZM6.48267 8.78711C7.60376 8.78711 8.5061 7.88477 8.5061 6.73633C8.5061 5.61523 7.60376 4.71289 6.48267 4.71289C5.33423 4.71289 4.43188 5.61523 4.43188 6.73633C4.43188 7.88477 5.36157 8.78711 6.48267 8.78711ZM10.4749 3.48242C10.4749 3.89258 10.1467 4.2207 9.73657 4.2207C9.32642 4.2207 8.99829 3.89258 8.99829 3.48242C8.99829 3.07227 9.32642 2.74414 9.73657 2.74414C10.1467 2.74414 10.4749 3.07227 10.4749 3.48242ZM12.553 4.2207C12.6077 5.23242 12.6077 8.26758 12.553 9.2793C12.4983 10.2637 12.2795 11.1113 11.5686 11.8496C10.8577 12.5605 9.98267 12.7793 8.99829 12.834C7.98657 12.8887 4.95142 12.8887 3.9397 12.834C2.95532 12.7793 2.10767 12.5605 1.36938 11.8496C0.658447 11.1113 0.439697 10.2637 0.38501 9.2793C0.330322 8.26758 0.330322 5.23242 0.38501 4.2207C0.439697 3.23633 0.658447 2.36133 1.36938 1.65039C2.10767 0.939453 2.95532 0.720703 3.9397 0.666016C4.95142 0.611328 7.98657 0.611328 8.99829 0.666016C9.98267 0.720703 10.8577 0.939453 11.5686 1.65039C12.2795 2.36133 12.4983 3.23633 12.553 4.2207ZM11.2405 10.3457C11.5686 9.55273 11.4866 7.63867 11.4866 6.73633C11.4866 5.86133 11.5686 3.94727 11.2405 3.12695C11.0217 2.60742 10.6116 2.16992 10.092 1.97852C9.27173 1.65039 7.35767 1.73242 6.48267 1.73242C5.58032 1.73242 3.66626 1.65039 2.87329 1.97852C2.32642 2.19727 1.91626 2.60742 1.69751 3.12695C1.36938 3.94727 1.45142 5.86133 1.45142 6.73633C1.45142 7.63867 1.36938 9.55273 1.69751 10.3457C1.91626 10.8926 2.32642 11.3027 2.87329 11.5215C3.66626 11.8496 5.58032 11.7676 6.48267 11.7676C7.35767 11.7676 9.27173 11.8496 10.092 11.5215C10.6116 11.3027 11.0491 10.8926 11.2405 10.3457Z" fill="#676D73"/>
</svg>