<svg width="14" height="15" viewBox="0 0 14 15" fill="none" xmlns="http://www.w3.org/2000/svg">
<g id="Icon">
<path id="Vector" d="M11.5268 7.52965C11.4646 7.34298 11.3402 7.24965 11.1535 7.24965H8.86683L9.52016 1.92965C9.55127 1.74298 9.48127 1.60298 9.31016 1.50965C9.13905 1.41632 8.97572 1.43187 8.82016 1.55632L2.56683 7.34298C2.44238 7.49854 2.41127 7.66187 2.47349 7.83298C2.53572 8.00409 2.66016 8.08965 2.84683 8.08965H5.13349L4.48016 13.4096C4.44905 13.5963 4.51905 13.7363 4.69016 13.8296C4.86127 13.923 5.02461 13.9074 5.18016 13.783L11.4335 7.94965C11.5579 7.8252 11.5891 7.6852 11.5268 7.52965ZM5.46016 12.383L6.02016 7.71631C6.05127 7.59187 6.02016 7.48298 5.92683 7.38965C5.83349 7.29631 5.72461 7.24965 5.60016 7.24965H3.87349L8.54016 2.95632L7.98016 7.62298C7.94905 7.74743 7.98016 7.85632 8.07349 7.94965C8.16683 8.04298 8.27572 8.08965 8.40016 8.08965H10.1268L5.46016 12.383Z" fill="white"/>
</g>
</svg>
