<svg width="14" height="14" viewBox="0 0 14 14" fill="none" xmlns="http://www.w3.org/2000/svg">
<g id="Link" clip-path="url(#clip0_80_3177)">
<path id="Vector" d="M0.887766 2.42339C0.973099 2.33805 1.07265 2.29539 1.18643 2.29539C1.30021 2.29539 1.38554 2.33805 1.44243 2.42339L6.26377 7.20205C6.3491 7.28739 6.39177 7.38694 6.39177 7.50072C6.39177 7.6145 6.3491 7.71405 6.26377 7.79939L1.44243 12.5781C1.38554 12.6634 1.30021 12.7061 1.18643 12.7061C1.07265 12.7061 0.973099 12.6634 0.887766 12.5781C0.802432 12.4927 0.759766 12.4003 0.759766 12.3007C0.759766 12.2012 0.802432 12.1087 0.887766 12.0234L5.41043 7.50072L0.887766 2.97806C0.802432 2.89272 0.759766 2.80028 0.759766 2.70072C0.759766 2.60117 0.802432 2.50872 0.887766 2.42339Z" fill="#29ABE2"/>
</g>
<defs>
<clipPath id="clip0_80_3177">
<rect width="12.8" height="12.8" fill="white" transform="matrix(1 0 0 -1 0.759766 13.4004)"/>
</clipPath>
</defs>
</svg>
