<svg xmlns="http://www.w3.org/2000/svg" width="13" height="13" viewBox="0 0 13 13" fill="none">
  <path d="M3.09229 12.8613H0.549316V4.68555H3.09229V12.8613ZM1.80713 3.5918C1.01416 3.5918 0.35791 2.9082 0.35791 2.08789C0.35791 1.29492 1.01416 0.638672 1.80713 0.638672C2.62744 0.638672 3.28369 1.29492 3.28369 2.08789C3.28369 2.9082 2.62744 3.5918 1.80713 3.5918ZM12.5806 12.8613H10.0649V8.89648C10.0649 7.93945 10.0376 6.73633 8.7251 6.73633C7.4126 6.73633 7.22119 7.74805 7.22119 8.81445V12.8613H4.67822V4.68555H7.11182V5.80664H7.13916C7.49463 5.17773 8.31494 4.49414 9.54541 4.49414C12.1157 4.49414 12.6079 6.18945 12.6079 8.37695V12.8613H12.5806Z" fill="#676D73"/>
</svg>