<svg width="26" height="28" viewBox="0 0 16 17" fill="none" xmlns="http://www.w3.org/2000/svg">
<g id="location-pin" clip-path="url(#clip0_5_3776)">
<path id="Vector" fill-rule="evenodd" clip-rule="evenodd" d="M2.25 7.0405C2.25 3.7285 4.78 0.958496 8 0.958496C11.22 0.958496 13.75 3.7285 13.75 7.0405C13.75 9.5235 12.35 11.6165 11.053 13.0335C10.1499 14.0168 9.12376 14.8796 8 15.6005C6.87606 14.8798 5.8499 14.017 4.947 13.0335C3.65 11.6165 2.25 9.5235 2.25 7.0405ZM8 13.7885C8.45 13.4505 9.201 12.8365 9.947 12.0215C11.15 10.7065 12.25 8.9655 12.25 7.0415C12.25 4.4645 10.303 2.4595 8 2.4595C5.698 2.4595 3.75 4.4645 3.75 7.0415C3.75 8.9655 4.85 10.7065 6.053 12.0215C6.64767 12.6677 7.2993 13.2591 8 13.7885Z" fill="#212529"/>
<path id="Vector_2" fill-rule="evenodd" clip-rule="evenodd" d="M8 5.4585C7.66848 5.4585 7.35054 5.59019 7.11612 5.82461C6.8817 6.05903 6.75 6.37698 6.75 6.7085C6.75 7.04002 6.8817 7.35796 7.11612 7.59238C7.35054 7.8268 7.66848 7.9585 8 7.9585C8.33152 7.9585 8.64946 7.8268 8.88388 7.59238C9.1183 7.35796 9.25 7.04002 9.25 6.7085C9.25 6.37698 9.1183 6.05903 8.88388 5.82461C8.64946 5.59019 8.33152 5.4585 8 5.4585ZM5.25 6.7085C5.25 5.97915 5.53973 5.27968 6.05546 4.76395C6.57118 4.24823 7.27065 3.9585 8 3.9585C8.72935 3.9585 9.42882 4.24823 9.94454 4.76395C10.4603 5.27968 10.75 5.97915 10.75 6.7085C10.75 7.43784 10.4603 8.13731 9.94454 8.65304C9.42882 9.16876 8.72935 9.4585 8 9.4585C7.27065 9.4585 6.57118 9.16876 6.05546 8.65304C5.53973 8.13731 5.25 7.43784 5.25 6.7085Z" fill="#212529"/>
</g>
<defs>
<clipPath id="clip0_5_3776">
<rect width="16" height="16" fill="white" transform="translate(0 0.208496)"/>
</clipPath>
</defs>
</svg>
