<svg width="21" height="20" viewBox="0 0 21 20" fill="none" xmlns="http://www.w3.org/2000/svg">
<g id="flat-color-icons:google">
<path id="Vector" d="M18.6706 8.36727H17.9993V8.33268H10.4993V11.666H15.2089C14.5218 13.6064 12.6756 14.9993 10.4993 14.9993C7.7381 14.9993 5.49935 12.7606 5.49935 9.99935C5.49935 7.2381 7.7381 4.99935 10.4993 4.99935C11.7739 4.99935 12.9335 5.48018 13.8164 6.2656L16.1735 3.90852C14.6852 2.52143 12.6943 1.66602 10.4993 1.66602C5.89727 1.66602 2.16602 5.39727 2.16602 9.99935C2.16602 14.6014 5.89727 18.3327 10.4993 18.3327C15.1014 18.3327 18.8327 14.6014 18.8327 9.99935C18.8327 9.4406 18.7752 8.89518 18.6706 8.36727Z" fill="#FFC107"/>
<path id="Vector_2" d="M3.12695 6.1206L5.86487 8.12852C6.6057 6.29435 8.39987 4.99935 10.4995 4.99935C11.774 4.99935 12.9336 5.48018 13.8165 6.2656L16.1736 3.90852C14.6853 2.52143 12.6945 1.66602 10.4995 1.66602C7.29862 1.66602 4.52279 3.4731 3.12695 6.1206Z" fill="#FF3D00"/>
<path id="Vector_3" d="M10.5008 18.3336C12.6533 18.3336 14.6091 17.5099 16.0879 16.1703L13.5087 13.9878C12.6439 14.6454 11.5872 15.0011 10.5008 15.0003C8.33328 15.0003 6.49286 13.6182 5.79953 11.6895L3.08203 13.7832C4.4612 16.482 7.26203 18.3336 10.5008 18.3336Z" fill="#4CAF50"/>
<path id="Vector_4" d="M18.6712 8.36857H18V8.33398H10.5V11.6673H15.2096C14.8809 12.5908 14.2889 13.3978 13.5067 13.9886L13.5079 13.9877L16.0871 16.1702C15.9046 16.3361 18.8333 14.1673 18.8333 10.0007C18.8333 9.4419 18.7758 8.89648 18.6712 8.36857Z" fill="#1976D2"/>
</g>
</svg>
