<svg width="14" height="14" viewBox="0 0 14 14" fill="currentColor" xmlns="http://www.w3.org/2000/svg">
<path d="M0.0520021 2.21467L4.83676 0.164062L8.93799 2.21467L13.2463 0.36844C13.2983 0.346146 13.3551 0.337113 13.4114 0.342153C13.4678 0.347193 13.522 0.366148 13.5692 0.397316C13.6165 0.428485 13.6552 0.470891 13.682 0.520731C13.7088 0.57057 13.7228 0.626282 13.7227 0.682867V11.7842L8.93799 13.8348L4.83676 11.7842L0.528428 13.6304C0.47642 13.6527 0.41969 13.6618 0.36333 13.6567C0.30697 13.6517 0.252743 13.6327 0.205516 13.6016C0.158289 13.5704 0.119539 13.528 0.0927455 13.4781C0.0659517 13.4283 0.0519517 13.3726 0.0520021 13.316V2.21467ZM9.62152 12.0542L12.3557 10.8826V2.23723L9.62152 3.40881V12.0542ZM8.25445 11.9646V3.40129L5.5203 2.03422V10.5976L8.25445 11.9646ZM4.15322 10.5901V1.94468L1.41908 3.11626V11.7616L4.15322 10.5901Z" fill="currentColor"/>
</svg>
