<svg width="36" height="35" viewBox="0 0 36 35" fill="none" xmlns="http://www.w3.org/2000/svg">
<g id="Icon" clip-path="url(#clip0_549_2313)">
<path id="Vector" d="M25.9893 3.8866H2.50781C1.96094 3.8866 1.49382 4.08028 1.10645 4.46765C0.719076 4.85502 0.525391 5.32214 0.525391 5.86902V19.951C0.525391 20.4979 0.719076 20.965 1.10645 21.3524C1.49382 21.7398 1.96094 21.9335 2.50781 21.9335H4.01172V27.163C4.01172 27.3225 4.05729 27.4763 4.14844 27.6244C4.23958 27.7725 4.36491 27.8693 4.52441 27.9149C4.56999 27.9377 4.62126 27.9548 4.67822 27.9662C4.73519 27.9776 4.78646 27.9833 4.83203 27.9833C4.94596 27.9833 5.0542 27.9662 5.15674 27.932C5.25928 27.8978 5.34473 27.8352 5.41309 27.744L11.2578 21.9335H12.4199C12.6478 21.9335 12.8415 21.8537 13.001 21.6942C13.1605 21.5347 13.2402 21.341 13.2402 21.1132C13.2402 20.8853 13.1605 20.6859 13.001 20.515C12.8415 20.3441 12.6478 20.2587 12.4199 20.2587C12.4199 20.2587 12.1636 20.2587 11.6509 20.2587C11.1382 20.2587 10.8704 20.2701 10.8477 20.2928C10.7565 20.2928 10.6654 20.3099 10.5742 20.3441C10.4831 20.3783 10.4033 20.441 10.335 20.5321L5.68652 25.1805C5.68652 25.1805 5.68083 24.4913 5.66943 23.1127C5.65804 21.7341 5.65234 21.0334 5.65234 21.0106C5.65234 20.8055 5.57259 20.6289 5.41309 20.4808C5.25358 20.3327 5.0599 20.2587 4.83203 20.2587H2.50781C2.41667 20.2587 2.33691 20.2302 2.26855 20.1732C2.2002 20.1163 2.16602 20.0422 2.16602 19.951V5.86902C2.16602 5.77787 2.2002 5.70382 2.26855 5.64685C2.33691 5.58988 2.41667 5.5614 2.50781 5.5614H25.9893C26.0576 5.5614 26.126 5.58988 26.1943 5.64685C26.2627 5.70382 26.2969 5.77787 26.2969 5.86902V11.2694C26.2969 11.4973 26.3766 11.691 26.5361 11.8505C26.6956 12.01 26.8893 12.0897 27.1172 12.0897C27.3451 12.0897 27.5387 12.01 27.6982 11.8505C27.8577 11.691 27.9375 11.4973 27.9375 11.2694V5.86902C27.9375 5.32214 27.7438 4.85502 27.3564 4.46765C26.9691 4.08028 26.5133 3.8866 25.9893 3.8866ZM33.543 14.0038H17.1367C16.5898 14.0038 16.1227 14.1975 15.7354 14.5848C15.348 14.9722 15.1543 15.4279 15.1543 15.952V25.5907C15.1543 26.1148 15.348 26.5705 15.7354 26.9579C16.1227 27.3453 16.5898 27.5389 17.1367 27.5389H27.4248L31.5605 31.7089C31.6517 31.8 31.7485 31.8627 31.8511 31.8969C31.9536 31.931 32.0618 31.9481 32.1758 31.9481C32.2214 31.9481 32.2726 31.9424 32.3296 31.931C32.3866 31.9196 32.4378 31.9025 32.4834 31.8798C32.6429 31.8342 32.7682 31.7373 32.8594 31.5892C32.9505 31.4411 32.9961 31.2873 32.9961 31.1278V27.5389H33.543C34.0898 27.5389 34.557 27.3453 34.9443 26.9579C35.3317 26.5705 35.5254 26.1148 35.5254 25.5907V15.952C35.5254 15.4279 35.3317 14.9722 34.9443 14.5848C34.557 14.1975 34.0898 14.0038 33.543 14.0038ZM33.8848 25.5907C33.8848 25.6591 33.8506 25.7274 33.7822 25.7958C33.7139 25.8641 33.6341 25.8983 33.543 25.8983H32.1758C31.9479 25.8983 31.7542 25.9724 31.5947 26.1205C31.4352 26.2686 31.3555 26.4452 31.3555 26.6503C31.3327 26.6731 31.3213 27.0946 31.3213 27.9149C31.3213 28.7352 31.3213 29.1454 31.3213 29.1454L28.3477 26.1376C28.3477 26.1376 28.3363 26.1376 28.3135 26.1376C28.3135 26.1376 28.3135 26.1319 28.3135 26.1205C28.3135 26.1091 28.3021 26.1034 28.2793 26.1034C28.2109 26.035 28.1312 25.9838 28.04 25.9496C27.9489 25.9154 27.8577 25.8983 27.7666 25.8983H17.1367C17.0456 25.8983 16.9658 25.8641 16.8975 25.7958C16.8291 25.7274 16.7949 25.6591 16.7949 25.5907V15.952C16.7949 15.8837 16.8291 15.8153 16.8975 15.7469C16.9658 15.6786 17.0456 15.6444 17.1367 15.6444H33.543C33.6341 15.6444 33.7139 15.6786 33.7822 15.7469C33.8506 15.8153 33.8848 15.8837 33.8848 15.952V25.5907ZM25.3398 19.951C25.112 19.951 24.9183 20.0308 24.7588 20.1903C24.5993 20.3498 24.5195 20.5435 24.5195 20.7714C24.5195 20.9992 24.5993 21.1929 24.7588 21.3524C24.9183 21.5119 25.112 21.5917 25.3398 21.5917C25.5677 21.5917 25.7614 21.5119 25.9209 21.3524C26.0804 21.1929 26.1602 20.9992 26.1602 20.7714C26.1602 20.5435 26.0804 20.3498 25.9209 20.1903C25.7614 20.0308 25.5677 19.951 25.3398 19.951ZM21.751 9.35535C21.751 9.35535 20.9648 9.35535 19.3926 9.35535C17.8431 9.35535 16.1284 9.35535 14.2485 9.35535C12.3687 9.35535 10.6426 9.35535 9.07031 9.35535C7.49805 9.35535 6.71191 9.35535 6.71191 9.35535C6.48405 9.35535 6.29036 9.4351 6.13086 9.5946C5.97135 9.75411 5.8916 9.94779 5.8916 10.1757C5.8916 10.4035 5.97135 10.5972 6.13086 10.7567C6.29036 10.9162 6.48405 10.996 6.71191 10.996H21.751C21.9788 10.996 22.1725 10.9162 22.332 10.7567C22.4915 10.5972 22.5713 10.4035 22.5713 10.1757C22.5713 9.94779 22.4915 9.75411 22.332 9.5946C22.1725 9.4351 21.9788 9.35535 21.751 9.35535ZM12.4199 14.8241H6.71191C6.48405 14.8241 6.29036 14.9038 6.13086 15.0634C5.97135 15.2229 5.8916 15.4165 5.8916 15.6444C5.8916 15.8723 5.97135 16.066 6.13086 16.2255C6.29036 16.385 6.48405 16.4647 6.71191 16.4647H12.4199C12.6478 16.4647 12.8415 16.385 13.001 16.2255C13.1605 16.066 13.2402 15.8723 13.2402 15.6444C13.2402 15.4165 13.1605 15.2229 13.001 15.0634C12.8415 14.9038 12.6478 14.8241 12.4199 14.8241ZM21.5117 19.951C21.2839 19.951 21.0902 20.0308 20.9307 20.1903C20.7712 20.3498 20.6914 20.5435 20.6914 20.7714C20.6914 20.9992 20.7712 21.1929 20.9307 21.3524C21.0902 21.5119 21.2839 21.5917 21.5117 21.5917C21.7396 21.5917 21.9333 21.5119 22.0928 21.3524C22.2523 21.1929 22.332 20.9992 22.332 20.7714C22.332 20.5435 22.2523 20.3498 22.0928 20.1903C21.9333 20.0308 21.7396 19.951 21.5117 19.951ZM29.168 19.951C28.9401 19.951 28.7464 20.0308 28.5869 20.1903C28.4274 20.3498 28.3477 20.5435 28.3477 20.7714C28.3477 20.9992 28.4274 21.1929 28.5869 21.3524C28.7464 21.5119 28.9401 21.5917 29.168 21.5917C29.3958 21.5917 29.5895 21.5119 29.749 21.3524C29.9085 21.1929 29.9883 20.9992 29.9883 20.7714C29.9883 20.5435 29.9085 20.3498 29.749 20.1903C29.5895 20.0308 29.3958 19.951 29.168 19.951Z" fill="#29ABE2"/>
</g>
<defs>
<clipPath id="clip0_549_2313">
<rect width="35" height="35" fill="white" transform="matrix(1 0 0 -1 0.525391 34.9901)"/>
</clipPath>
</defs>
</svg>
