<svg width="12" height="12" viewBox="0 0 12 12" fill="none" xmlns="http://www.w3.org/2000/svg">
<path id="Vector" d="M5.4 9H6.6V5.4H5.4V9ZM6 4.2C6.17 4.2 6.3126 4.1424 6.4278 4.0272C6.543 3.912 6.6004 3.7696 6.6 3.6C6.5996 3.4304 6.542 3.288 6.4272 3.1728C6.3124 3.0576 6.17 3 6 3C5.83 3 5.6876 3.0576 5.5728 3.1728C5.458 3.288 5.4004 3.4304 5.4 3.6C5.3996 3.7696 5.4572 3.9122 5.5728 4.0278C5.6884 4.1434 5.8308 4.2008 6 4.2ZM6 12C5.17 12 4.39 11.8424 3.66 11.5272C2.93 11.212 2.295 10.7846 1.755 10.245C1.215 9.7054 0.787601 9.0704 0.472801 8.34C0.158001 7.6096 0.000400759 6.8296 7.59493e-07 6C-0.00039924 5.1704 0.157201 4.3904 0.472801 3.66C0.788401 2.9296 1.2158 2.2946 1.755 1.755C2.2942 1.2154 2.9292 0.788 3.66 0.4728C4.3908 0.1576 5.1708 0 6 0C6.8292 0 7.6092 0.1576 8.34 0.4728C9.0708 0.788 9.7058 1.2154 10.245 1.755C10.7842 2.2946 11.2118 2.9296 11.5278 3.66C11.8438 4.3904 12.0012 5.1704 12 6C11.9988 6.8296 11.8412 7.6096 11.5272 8.34C11.2132 9.0704 10.7858 9.7054 10.245 10.245C9.7042 10.7846 9.0692 11.2122 8.34 11.5278C7.6108 11.8434 6.8308 12.0008 6 12ZM6 10.8C7.34 10.8 8.475 10.335 9.405 9.405C10.335 8.475 10.8 7.34 10.8 6C10.8 4.66 10.335 3.525 9.405 2.595C8.475 1.665 7.34 1.2 6 1.2C4.66 1.2 3.525 1.665 2.595 2.595C1.665 3.525 1.2 4.66 1.2 6C1.2 7.34 1.665 8.475 2.595 9.405C3.525 10.335 4.66 10.8 6 10.8Z" fill="#FF6565"/>
</svg>
