<svg width="17" height="16" viewBox="0 0 17 16" fill="none" xmlns="http://www.w3.org/2000/svg">
<g id="star icon" clip-path="url(#clip0_645_2509)">
<path id="Vector" d="M16.0352 6.01922C15.9638 5.79146 15.8289 5.59072 15.6477 5.44229C15.4664 5.29386 15.2468 5.20439 15.0166 5.18514L10.802 4.83254L9.17478 0.751757C9.08677 0.529397 8.937 0.339196 8.74448 0.205335C8.55197 0.071474 8.32542 0 8.09363 0C7.86185 0 7.6353 0.071474 7.44278 0.205335C7.25027 0.339196 7.10049 0.529397 7.01249 0.751757L5.38667 4.8318L1.16997 5.18514C0.939362 5.20536 0.719642 5.2957 0.538334 5.44485C0.357026 5.59399 0.222192 5.7953 0.150727 6.02356C0.0792621 6.25181 0.0743434 6.49686 0.136587 6.728C0.198831 6.95915 0.325469 7.1661 0.500636 7.32294L3.71513 10.1993L2.73578 14.5001C2.68101 14.7337 2.69442 14.979 2.77431 15.2047C2.8542 15.4304 2.99697 15.6265 3.1845 15.7679C3.37202 15.9093 3.59584 15.9898 3.82755 15.9991C4.05926 16.0084 4.2884 15.9461 4.4859 15.8201L8.09328 13.5178L11.7028 15.8201C11.9004 15.9446 12.129 16.0057 12.36 15.9957C12.591 15.9857 12.814 15.9051 13.0009 15.764C13.1878 15.6228 13.3302 15.4275 13.4103 15.2026C13.4903 14.9777 13.5044 14.7332 13.4508 14.5001L12.4678 10.1985L15.6823 7.3222C15.8589 7.16562 15.9867 6.95822 16.0495 6.72626C16.1124 6.49431 16.1074 6.24824 16.0352 6.01922ZM14.9394 6.42441L11.4606 9.53555C11.3813 9.60646 11.3223 9.69862 11.29 9.80195C11.2578 9.90528 11.2535 10.0158 11.2778 10.1215L12.3407 14.7734C12.3434 14.7798 12.3437 14.7871 12.3415 14.7937C12.3392 14.8003 12.3346 14.8058 12.3286 14.8089C12.3157 14.8193 12.3121 14.8171 12.3014 14.8089L8.39258 12.3163C8.30256 12.2589 8.19895 12.2285 8.09328 12.2285C7.9876 12.2285 7.88399 12.2589 7.79397 12.3163L3.88514 14.8104C3.87443 14.8171 3.87157 14.8193 3.858 14.8104C3.85197 14.8072 3.84735 14.8018 3.84509 14.7952C3.84283 14.7885 3.84311 14.7813 3.84586 14.7749L4.90878 10.123C4.93301 10.0173 4.92876 9.90677 4.89651 9.80343C4.86426 9.7001 4.80525 9.60794 4.72591 9.53703L1.24711 6.42589C1.23854 6.41848 1.23068 6.41182 1.23783 6.38885C1.24497 6.36589 1.25069 6.36885 1.2614 6.36737L5.82741 5.98515C5.93214 5.97583 6.03236 5.93674 6.11705 5.87218C6.20175 5.80762 6.26762 5.72009 6.30745 5.61922L8.06613 1.20361C8.07185 1.19102 8.07399 1.18509 8.09113 1.18509C8.10828 1.18509 8.11042 1.19102 8.11614 1.20361L9.87911 5.61922C9.9193 5.72013 9.9856 5.80757 10.0707 5.87188C10.1558 5.93619 10.2563 5.97487 10.3613 5.98366L14.9273 6.36589C14.938 6.36589 14.9444 6.36589 14.9509 6.38737C14.9573 6.40885 14.9509 6.417 14.9394 6.42441Z" fill="#29ABE2"/>
</g>
<defs>
<clipPath id="clip0_645_2509">
<rect width="16.823" height="16" fill="white"/>
</clipPath>
</defs>
</svg>
