<svg width="24" height="24" viewBox="0 0 24 24" fill="none" xmlns="http://www.w3.org/2000/svg">
<g id="ri:heart-line">
<path id="Vector" d="M12.001 4.52857C13.1436 3.50577 14.6345 2.95944 16.1674 3.00185C17.7003 3.04425 19.1587 3.67217 20.243 4.75657C21.3264 5.83976 21.9543 7.29632 21.9982 8.82766C22.0421 10.359 21.4986 11.8491 20.479 12.9926L11.999 21.4846L3.52102 12.9926C2.50028 11.8485 1.95623 10.3571 2.00056 8.82456C2.04489 7.29198 2.67425 5.83453 3.75942 4.7514C4.84459 3.66828 6.30323 3.04168 7.83589 3.00024C9.36854 2.9588 10.8589 3.50567 12.001 4.52857ZM18.827 6.16957C18.1046 5.4477 17.1333 5.02965 16.1125 5.0012C15.0916 4.97275 14.0985 5.33606 13.337 6.01657L12.002 7.21457L10.666 6.01757C9.90406 5.33624 8.91013 4.97254 7.88837 5.00118C6.86662 5.02982 5.89462 5.44863 5.17202 6.17157C4.45628 6.88728 4.03848 7.84772 4.00285 8.85927C3.96722 9.87083 4.31641 10.8583 4.98002 11.6226L12 18.6536L19.02 11.6236C19.6844 10.859 20.0339 9.87082 19.9981 8.85855C19.9623 7.84628 19.5438 6.8853 18.827 6.16957Z" fill="white"/>
</g>
</svg>
