<svg width="22" height="22" viewBox="0 0 22 22" fill="none" xmlns="http://www.w3.org/2000/svg">
<g id="Group">
<path id="Vector" d="M11 6C11.663 6 12.2989 5.73661 12.7678 5.26777C13.2366 4.79893 13.5 4.16304 13.5 3.5C13.5 2.83696 13.2366 2.20107 12.7678 1.73223C12.2989 1.26339 11.663 1 11 1C10.337 1 9.70107 1.26339 9.23223 1.73223C8.76339 2.20107 8.5 2.83696 8.5 3.5C8.5 4.16304 8.76339 4.79893 9.23223 5.26777C9.70107 5.73661 10.337 6 11 6Z" stroke="#29ABE2" stroke-width="2" stroke-miterlimit="2"/>
<path id="Vector_2" d="M16 11H13L10 8.5L8.5 13.5L11.5 16.5L12.5 21M7.5 16L6.5 18.5L3.5 21" stroke="#29ABE2" stroke-width="2" stroke-miterlimit="2" stroke-linecap="round" stroke-linejoin="round"/>
<path id="Vector_3" d="M1.5 21H18.5L21 17.5" stroke="#29ABE2" stroke-width="2" stroke-miterlimit="2" stroke-linecap="round" stroke-linejoin="round"/>
</g>
</svg>
