<svg width="17" height="17" viewBox="0 0 17 17" fill="none" xmlns="http://www.w3.org/2000/svg">
<g id="Icon">
<path id="Vector" d="M6.84083 1.30747H9.72083V2.21414H6.84083V1.30747ZM14.4675 14.1075C14.4675 14.2141 14.4142 14.3208 14.3075 14.4275C14.2008 14.5341 14.0942 14.5875 13.9875 14.5875H12.0675V15.4941H13.9875C14.3786 15.4941 14.7075 15.3608 14.9742 15.0941C15.2408 14.8275 15.3742 14.4986 15.3742 14.1075V12.1875H14.4675V14.1075ZM13.9875 1.30747H12.0675V2.21414H13.9875C14.0942 2.21414 14.2008 2.26747 14.3075 2.37414C14.4142 2.48081 14.4675 2.58747 14.4675 2.69414V4.61414H15.3742V2.69414C15.3742 2.30303 15.2408 1.97414 14.9742 1.70747C14.7075 1.44081 14.3786 1.30747 13.9875 1.30747ZM2.09417 2.69414C2.09417 2.58747 2.1475 2.48081 2.25417 2.37414C2.36083 2.26747 2.4675 2.21414 2.57417 2.21414H4.49417V1.30747H2.57417C2.18306 1.30747 1.85417 1.44081 1.5875 1.70747C1.32083 1.97414 1.1875 2.30303 1.1875 2.69414V4.61414H2.09417V2.69414ZM14.4675 6.96081H15.3742V9.84081H14.4675V6.96081ZM12.0675 7.92081V5.09414C12.0675 4.95192 12.0231 4.83636 11.9342 4.74747C11.8453 4.65858 11.7297 4.61414 11.5875 4.61414H8.76083V5.57414H10.4675L7.96083 8.08081C7.7475 7.97414 7.53417 7.92081 7.32083 7.92081H2.57417C2.43194 7.92081 2.27194 7.95636 2.09417 8.02747V6.96081H1.1875V14.1075C1.1875 14.4986 1.32083 14.8275 1.5875 15.0941C1.85417 15.3608 2.18306 15.4941 2.57417 15.4941H9.72083V14.5875H8.65417C8.72528 14.4097 8.76083 14.2497 8.76083 14.1075V9.36081C8.76083 9.14747 8.7075 8.93414 8.60083 8.72081L11.1075 6.21414V7.92081H12.0675ZM2.57417 14.5875C2.4675 14.5875 2.36083 14.5341 2.25417 14.4275C2.1475 14.3208 2.09417 14.2141 2.09417 14.1075V9.36081C2.09417 9.21859 2.1475 9.10303 2.25417 9.01414C2.36083 8.92525 2.4675 8.88081 2.57417 8.88081H7.32083C7.46306 8.88081 7.57861 8.92525 7.6675 9.01414C7.75639 9.10303 7.80083 9.21859 7.80083 9.36081V14.1075C7.80083 14.2141 7.75639 14.3208 7.6675 14.4275C7.57861 14.5341 7.46306 14.5875 7.32083 14.5875H2.57417Z" fill="#29ABE2"/>
</g>
</svg>
