<svg width="36" height="35" viewBox="0 0 36 35" fill="none" xmlns="http://www.w3.org/2000/svg">
<g id="Icon" clip-path="url(#clip0_549_2304)">
<path id="Vector" d="M28.483 22.1044C28.1184 21.7398 27.7254 21.4607 27.3038 21.267C26.8823 21.0733 26.4436 20.9764 25.9879 20.9764C25.5322 20.9764 25.0935 21.0733 24.672 21.267C24.2504 21.4607 23.846 21.7398 23.4586 22.1044L21.1344 24.4286C21.0432 24.383 20.9464 24.3374 20.8439 24.2919C20.7413 24.2463 20.6445 24.1893 20.5533 24.121C20.4394 24.0754 20.3198 24.0184 20.1945 23.9501C20.0691 23.8817 19.9495 23.8134 19.8356 23.745C18.7418 23.0614 17.6936 22.2582 16.691 21.3353C15.6884 20.4125 14.7086 19.37 13.7516 18.2079C13.2959 17.6154 12.9085 17.0686 12.5895 16.5673C12.2705 16.066 11.997 15.5647 11.7692 15.0634C12.0654 14.7899 12.3559 14.5108 12.6407 14.226C12.9256 13.9411 13.2047 13.662 13.4781 13.3885C13.5693 13.2746 13.6718 13.1664 13.7858 13.0638C13.8997 12.9613 14.0022 12.8531 14.0934 12.7391C14.8681 11.9644 15.2555 11.1156 15.2555 10.1927C15.2555 9.2699 14.8681 8.4211 14.0934 7.64636L12.0768 5.62976C11.9628 5.51583 11.8489 5.3962 11.735 5.27087C11.621 5.14555 11.5071 5.02592 11.3932 4.91199C11.1653 4.68412 10.9375 4.45626 10.7096 4.22839C10.4817 4.00053 10.2539 3.77267 10.026 3.5448C9.66141 3.18022 9.26835 2.90678 8.8468 2.72449C8.42525 2.54219 7.98661 2.45105 7.53088 2.45105C7.07515 2.45105 6.63651 2.54219 6.21496 2.72449C5.79341 2.90678 5.40035 3.18022 5.03576 3.5448C5.03576 3.5448 5.02437 3.5448 5.00158 3.5448L2.50647 6.10828C2.02795 6.564 1.65767 7.0824 1.39563 7.66345C1.13358 8.24451 0.96838 8.86544 0.90002 9.52625C0.808874 10.5972 0.88293 11.6112 1.12219 12.5682C1.36145 13.5253 1.6064 14.3342 1.85705 14.995C2.4495 16.6128 3.20715 18.1908 4.13 19.7289C5.05285 21.267 6.17509 22.8335 7.4967 24.4286C8.31701 25.4084 9.1715 26.3199 10.0602 27.163C10.9488 28.0288 11.8774 28.8435 12.8458 29.6068C13.8142 30.3702 14.8112 31.0708 15.8365 31.7089C16.8847 32.3697 17.9671 32.9621 19.0836 33.4862C19.9267 33.8964 20.9008 34.3008 22.006 34.6996C23.1111 35.0983 24.3017 35.3433 25.5778 35.4344C25.6461 35.4344 25.7202 35.4344 25.7999 35.4344C25.8797 35.4344 25.9651 35.4344 26.0563 35.4344C26.8994 35.4344 27.6798 35.2806 28.3976 34.973C29.1154 34.6654 29.7477 34.204 30.2946 33.5887C30.3173 33.5887 30.3287 33.5887 30.3287 33.5887C30.3287 33.5887 30.3287 33.5774 30.3287 33.5546C30.5338 33.3267 30.7446 33.1045 30.9611 32.8881C31.1775 32.6716 31.3997 32.4494 31.6276 32.2216C31.7871 32.0848 31.9466 31.9367 32.1061 31.7772C32.2656 31.6177 32.4251 31.4468 32.5846 31.2645C32.9492 30.8999 33.2283 30.5012 33.422 30.0682C33.6157 29.6353 33.7125 29.191 33.7125 28.7352C33.7125 28.2795 33.6157 27.8352 33.422 27.4022C33.2283 26.9693 32.9378 26.5591 32.5504 26.1718L28.483 22.1044ZM31.149 29.8973C30.9895 30.0568 30.8357 30.205 30.6876 30.3417C30.5395 30.4784 30.3857 30.6265 30.2262 30.786C29.9983 31.0139 29.7591 31.2531 29.5084 31.5038C29.2578 31.7544 29.0185 32.0051 28.7906 32.2557C28.4261 32.6659 28.0159 32.9678 27.5602 33.1615C27.1044 33.3552 26.5918 33.452 26.0221 33.452C25.9765 33.452 25.9252 33.452 25.8683 33.452C25.8113 33.452 25.7487 33.452 25.6803 33.452C24.5865 33.3609 23.5441 33.1387 22.5529 32.7855C21.5616 32.4323 20.6901 32.0734 19.9381 31.7089C18.8899 31.2076 17.8759 30.6493 16.8961 30.0341C15.9163 29.4188 14.9707 28.758 14.0592 28.0516C13.1477 27.3453 12.2705 26.5819 11.4274 25.7616C10.5843 24.9413 9.78674 24.0754 9.03479 23.1639C7.78153 21.6372 6.72196 20.1561 5.85608 18.7206C4.99019 17.285 4.27242 15.8153 3.70275 14.3114C3.36096 13.3999 3.1274 12.5682 3.00207 11.8163C2.87675 11.0643 2.83687 10.358 2.88244 9.69714C2.92801 9.2642 3.03055 8.86544 3.19006 8.50085C3.34956 8.13627 3.58882 7.80587 3.90783 7.50964L6.40295 4.98035C6.58524 4.79806 6.77323 4.66703 6.96692 4.58728C7.1606 4.50753 7.34859 4.46765 7.53088 4.46765C7.75874 4.46765 7.96952 4.52462 8.1632 4.63855C8.35689 4.75248 8.5107 4.86642 8.62463 4.98035C8.85249 5.20821 9.07466 5.43038 9.29113 5.64685C9.5076 5.86332 9.72977 6.08549 9.95764 6.31335C10.0716 6.42729 10.1912 6.54692 10.3165 6.67224C10.4418 6.79757 10.5615 6.9172 10.6754 7.03113L12.692 9.04773C13.0794 9.4351 13.2731 9.81677 13.2731 10.1927C13.2731 10.5687 13.0794 10.9504 12.692 11.3378C12.5781 11.4517 12.4698 11.5599 12.3673 11.6625C12.2648 11.765 12.1565 11.8733 12.0426 11.9872C11.7464 12.3062 11.4445 12.6138 11.1368 12.91C10.8292 13.2063 10.5159 13.4911 10.1969 13.7645C10.1969 13.7873 10.1912 13.7987 10.1798 13.7987C10.1684 13.7987 10.1627 13.7987 10.1627 13.7987C9.84371 14.1177 9.6842 14.4253 9.6842 14.7216C9.6842 15.0178 9.71838 15.2684 9.78674 15.4735C9.78674 15.4963 9.78674 15.5134 9.78674 15.5248C9.78674 15.5362 9.79813 15.5419 9.82092 15.5419C10.0716 16.1799 10.3906 16.8122 10.778 17.4388C11.1653 18.0655 11.6324 18.732 12.1793 19.4384H12.2135C13.2161 20.6916 14.2643 21.8138 15.358 22.8051C16.4518 23.7963 17.5911 24.6678 18.776 25.4198C18.9127 25.5109 19.0608 25.5964 19.2203 25.6761C19.3798 25.7559 19.528 25.83 19.6647 25.8983C19.8014 25.9667 19.9324 26.035 20.0577 26.1034C20.1831 26.1718 20.3027 26.2401 20.4166 26.3085C20.4166 26.3085 20.428 26.3142 20.4508 26.3256C20.4736 26.337 20.485 26.3427 20.485 26.3427C20.6217 26.411 20.747 26.4623 20.861 26.4965C20.9749 26.5306 21.1002 26.5477 21.2369 26.5477C21.5332 26.5477 21.7781 26.4794 21.9718 26.3427C22.1655 26.2059 22.2851 26.1034 22.3307 26.035L24.86 23.5057C24.9967 23.369 25.1619 23.2437 25.3556 23.1298C25.5493 23.0158 25.76 22.9589 25.9879 22.9589C26.2158 22.9589 26.4209 23.0158 26.6031 23.1298C26.7854 23.2437 26.9335 23.3576 27.0475 23.4716C27.0475 23.4943 27.0475 23.5057 27.0475 23.5057C27.0475 23.5057 27.0589 23.5057 27.0817 23.5057L31.149 27.5731C31.5136 27.9605 31.6959 28.3479 31.6959 28.7352C31.6959 29.1226 31.5136 29.51 31.149 29.8973ZM19.733 8.74011C20.7128 8.9224 21.6357 9.23572 22.5016 9.68005C23.3675 10.1244 24.1536 10.6997 24.86 11.4061C25.5436 12.1125 26.1132 12.8986 26.569 13.7645C27.0247 14.6304 27.3323 15.5419 27.4918 16.4989C27.5374 16.7496 27.6513 16.9489 27.8336 17.097C28.0159 17.2452 28.2324 17.3192 28.483 17.3192C28.5058 17.3192 28.5286 17.3192 28.5514 17.3192C28.5742 17.3192 28.6084 17.3192 28.6539 17.3192C28.9274 17.2736 29.1438 17.1369 29.3033 16.9091C29.4628 16.6812 29.5198 16.4305 29.4742 16.1571C29.2692 14.995 28.8932 13.8899 28.3463 12.8417C27.7994 11.7935 27.1044 10.8479 26.2613 10.0048C25.4182 9.16166 24.4726 8.46667 23.4244 7.9198C22.3763 7.37292 21.2711 6.99695 20.109 6.79187C19.8356 6.7463 19.5849 6.80326 19.3571 6.96277C19.1292 7.12227 18.9925 7.33875 18.9469 7.61218C18.9013 7.86283 18.9526 8.10209 19.1007 8.32996C19.2488 8.55782 19.4596 8.69454 19.733 8.74011ZM35.7975 15.8837C35.638 14.9038 35.3987 13.9582 35.0797 13.0468C34.7835 12.1353 34.4132 11.2523 33.9689 10.3978C33.5245 9.54333 33.0175 8.71733 32.4479 7.9198C31.8554 7.14506 31.2174 6.4045 30.5338 5.69812C29.8274 5.01453 29.0869 4.3879 28.3121 3.81824C27.5146 3.22579 26.6886 2.71309 25.8341 2.28015C24.9796 1.84721 24.0966 1.47123 23.1852 1.15222C22.2737 0.855999 21.3395 0.616741 20.3824 0.434448C20.109 0.388874 19.8584 0.445843 19.6305 0.605347C19.4026 0.764851 19.2659 0.981323 19.2203 1.25476C19.1748 1.5282 19.2317 1.77885 19.3912 2.00671C19.5507 2.23458 19.7672 2.3713 20.0406 2.41687C21.7724 2.71309 23.4073 3.25997 24.9454 4.0575C26.4835 4.85502 27.8792 5.88041 29.1324 7.13367C30.3857 8.36414 31.4111 9.75411 32.2086 11.3036C33.0061 12.8531 33.5416 14.4823 33.8151 16.1913C33.8606 16.4419 33.9803 16.6413 34.1739 16.7894C34.3676 16.9375 34.5784 17.0116 34.8063 17.0116C34.8518 17.0116 34.886 17.0116 34.9088 17.0116C34.9316 17.0116 34.9544 17.0116 34.9772 17.0116C35.2506 16.966 35.4671 16.8293 35.6266 16.6014C35.7861 16.3736 35.8431 16.1343 35.7975 15.8837Z" fill="#29ABE2"/>
</g>
<defs>
<clipPath id="clip0_549_2304">
<rect width="35" height="35" fill="white" transform="matrix(1 0 0 -1 0.832031 34.9901)"/>
</clipPath>
</defs>
</svg>
