<svg width="161" height="35" viewBox="0 0 161 35" fill="none" xmlns="http://www.w3.org/2000/svg">
<g id="Group">
<path id="Vector" d="M159.518 23.3193C159.023 23.3193 158.62 23.722 158.62 24.2178C158.62 24.7135 159.023 25.1162 159.518 25.1162C160.014 25.1162 160.417 24.7135 160.417 24.2178C160.417 23.722 160.014 23.3193 159.518 23.3193ZM159.518 24.9737C159.1 24.9737 158.762 24.6337 158.762 24.2178C158.762 23.7999 159.102 23.4618 159.518 23.4618C159.936 23.4618 160.276 23.8018 160.276 24.2178C160.276 24.6337 159.936 24.9737 159.518 24.9737ZM159.811 24.0639C159.811 23.9005 159.695 23.8037 159.524 23.8037H159.237V24.6223H159.378V24.326H159.532L159.68 24.6223H159.832L159.668 24.2957C159.756 24.2557 159.811 24.1759 159.811 24.0639ZM159.518 24.1988H159.38V23.9272H159.518C159.613 23.9272 159.67 23.9746 159.67 24.062C159.67 24.1513 159.611 24.1988 159.518 24.1988ZM51.2634 14.2267V12.0537H47.9318V24.9813H51.2634V17.2297C51.2634 15.826 52.1638 15.1365 53.5675 15.1365H55.3909V12.0538H53.8334C52.6139 12.0537 51.5541 12.69 51.2634 14.2267ZM58.5117 6.94043C57.3721 6.94043 56.4983 7.84078 56.4983 8.98044C56.4983 10.0935 57.3721 10.9939 58.5117 10.9939C59.6514 10.9939 60.5251 10.0935 60.5251 8.98044C60.5251 7.84073 59.6514 6.94043 58.5117 6.94043ZM56.8497 24.9814H60.1738V12.0537H56.8497V24.9814ZM76.0075 18.5175C76.0075 22.2081 73.0159 25.1998 69.3252 25.1998C67.836 25.1998 66.4855 24.7116 65.4028 23.8873V28.7765H62.0788V12.0537H65.4028V13.1478C66.4855 12.3234 67.836 11.8353 69.3252 11.8353C73.0159 11.8353 76.0075 14.8269 76.0075 18.5175ZM72.6626 18.5175C72.6626 16.5136 71.0367 14.8877 69.0327 14.8877C67.0288 14.8877 65.4029 16.5136 65.4029 18.5175C65.4029 20.5214 67.0288 22.1474 69.0327 22.1474C71.0367 22.1474 72.6626 20.5234 72.6626 18.5175ZM133.781 17.3836L131.842 16.8517C130.565 16.5193 130.069 16.128 130.069 15.4537C130.069 14.7965 130.768 14.3368 131.768 14.3368C132.719 14.3368 133.466 14.9599 133.466 15.7576V15.8317H136.529V15.7576C136.529 13.4118 134.617 11.8352 131.768 11.8352C128.947 11.8352 126.897 13.4099 126.897 15.5809C126.897 17.2695 128.016 18.5421 129.969 19.0702L131.826 19.5773C133.238 19.9686 133.762 20.4017 133.762 21.1786C133.762 21.9973 133.004 22.5481 131.876 22.5481C130.7 22.5481 129.908 21.8035 129.908 20.698V20.6239H126.656V20.698C126.656 23.3497 128.791 25.2035 131.849 25.2035C134.795 25.2035 136.934 23.3934 136.934 20.9013C136.934 19.678 136.387 18.0788 133.781 17.3836ZM87.7993 12.0537H91.1232V24.9813H87.7993V23.8872C86.7165 24.7116 85.366 25.1997 83.8769 25.1997C80.1863 25.1997 77.1947 22.2081 77.1947 18.5175C77.1947 14.8268 80.1863 11.8352 83.8769 11.8352C85.366 11.8352 86.7166 12.3234 87.7993 13.1477V12.0537ZM87.7993 18.5175C87.7993 16.5117 86.1733 14.8877 84.1694 14.8877C82.1654 14.8877 80.5396 16.5136 80.5396 18.5175C80.5396 20.5214 82.1654 22.1474 84.1694 22.1474C86.1752 22.1474 87.7993 20.5234 87.7993 18.5175ZM103.126 7.45327H106.45V24.9832H103.126V23.8891C102.043 24.7135 100.693 25.2017 99.2035 25.2017C95.5128 25.2017 92.5212 22.21 92.5212 18.5194C92.5212 14.8287 95.5128 11.8371 99.2035 11.8371C100.693 11.8371 102.043 12.3253 103.126 13.1496V7.45327ZM103.126 18.5175C103.126 16.5136 101.5 14.8877 99.4959 14.8877C97.4921 14.8877 95.8661 16.5136 95.8661 18.5175C95.8661 20.5214 97.4901 22.1474 99.4959 22.1474C101.5 22.1474 103.126 20.5234 103.126 18.5175ZM121.883 24.9814H125.207V12.0537H121.883V24.9814ZM123.545 6.94043C122.405 6.94043 121.531 7.84078 121.531 8.98044C121.531 10.0935 122.405 10.9939 123.545 10.9939C124.684 10.9939 125.558 10.0935 125.558 8.98044C125.558 7.84073 124.684 6.94043 123.545 6.94043ZM151.301 18.5175C151.301 22.2081 148.31 25.1998 144.619 25.1998C140.929 25.1998 137.937 22.2082 137.937 18.5175C137.937 14.8269 140.928 11.8353 144.619 11.8353C148.31 11.8353 151.301 14.8269 151.301 18.5175ZM148.249 18.5175C148.249 16.5136 146.623 14.8877 144.619 14.8877C142.615 14.8877 140.989 16.5136 140.989 18.5175C140.989 20.5214 142.613 22.1474 144.619 22.1474C146.623 22.1474 148.249 20.5234 148.249 18.5175ZM49.5615 7.45327H36.8105V10.4183H41.5307V24.9813H44.8433V10.4183H49.5635V7.45327H49.5615ZM114.046 21.4408L111.088 12.0538H107.597L112.032 24.9814H116.033L120.494 12.0538H117.003L114.046 21.4408ZM156.172 14.2267V12.0537H152.84V24.9813H156.172V17.2297C156.172 15.826 157.072 15.1365 158.476 15.1365H160.299V12.0538H158.742C157.522 12.0537 156.464 12.69 156.172 14.2267Z" fill="#ADB5BD"/>
<path id="Vector_2" d="M17.584 34.6001C26.9728 34.6001 34.584 26.9889 34.584 17.6001C34.584 8.21126 26.9728 0.600098 17.584 0.600098C8.19514 0.600098 0.583984 8.21126 0.583984 17.6001C0.583984 26.9889 8.19514 34.6001 17.584 34.6001Z" fill="#ADB5BD"/>
<path id="Vector_3" d="M28.0849 14.2836L30.1364 12.0518H25.5872C23.3098 10.4961 20.5594 9.59009 17.5848 9.59009C14.6141 9.59009 11.8713 10.4981 9.59766 12.0518H5.03711L7.08851 14.2836C5.8311 15.4309 5.04283 17.0834 5.04283 18.9183C5.04283 22.381 7.85024 25.1883 11.3129 25.1883C12.9578 25.1883 14.4565 24.5539 15.5753 23.5168L17.5849 25.705L19.5945 23.5187C20.7133 24.5558 22.21 25.1883 23.8549 25.1883C27.3176 25.1883 30.1288 22.381 30.1288 18.9183C30.1306 17.0815 29.3424 15.429 28.0849 14.2836ZM11.3148 23.1616C8.97084 23.1616 7.07145 21.2622 7.07145 18.9183C7.07145 16.5744 8.97089 14.6749 11.3148 14.6749C13.6587 14.6749 15.5581 16.5744 15.5581 18.9183C15.5581 21.2622 13.6587 23.1616 11.3148 23.1616ZM17.5867 18.7948C17.5867 16.0026 15.5562 13.6055 12.8761 12.5817C14.3254 11.9758 15.9152 11.6396 17.5848 11.6396C19.2544 11.6396 20.8461 11.9758 22.2954 12.5817C19.6173 13.6074 17.5867 16.0027 17.5867 18.7948ZM23.8568 23.1616C21.5129 23.1616 19.6134 21.2622 19.6134 18.9183C19.6134 16.5744 21.5129 14.6749 23.8568 14.6749C26.2008 14.6749 28.1002 16.5744 28.1002 18.9183C28.1002 21.2622 26.2007 23.1616 23.8568 23.1616ZM23.8568 16.6921C22.6279 16.6921 21.6325 17.6874 21.6325 18.9164C21.6325 20.1453 22.6279 21.1406 23.8568 21.1406C25.0857 21.1406 26.0811 20.1453 26.0811 18.9164C26.081 17.6893 25.0857 16.6921 23.8568 16.6921ZM13.539 18.9183C13.539 20.1472 12.5437 21.1425 11.3148 21.1425C10.0859 21.1425 9.09054 20.1472 9.09054 18.9183C9.09054 17.6893 10.0859 16.694 11.3148 16.694C12.5437 16.6921 13.539 17.6893 13.539 18.9183Z" fill="white"/>
</g>
</svg>
