<svg width="25" height="25" viewBox="0 0 25 25" fill="none" xmlns="http://www.w3.org/2000/svg">
<g id="Media / Icon/Filled/user-group">
<g id="Icon">
<path d="M15.2996 8.61299C15.2996 10.1594 14.046 11.413 12.4996 11.413C10.9532 11.413 9.69961 10.1594 9.69961 8.61299C9.69961 7.06659 10.9532 5.81299 12.4996 5.81299C14.046 5.81299 15.2996 7.06659 15.2996 8.61299Z" fill="#29ABE2"/>
<path d="M19.9663 10.4797C19.9663 11.5106 19.1305 12.3463 18.0996 12.3463C17.0687 12.3463 16.2329 11.5106 16.2329 10.4797C16.2329 9.44872 17.0687 8.61299 18.0996 8.61299C19.1305 8.61299 19.9663 9.44872 19.9663 10.4797Z" fill="#29ABE2"/>
<path d="M16.2329 17.013C16.2329 14.9511 14.5615 13.2797 12.4996 13.2797C10.4377 13.2797 8.76628 14.9511 8.76628 17.013V19.813H16.2329V17.013Z" fill="#29ABE2"/>
<path d="M8.76628 10.4797C8.76628 11.5106 7.93054 12.3463 6.89961 12.3463C5.86868 12.3463 5.03294 11.5106 5.03294 10.4797C5.03294 9.44872 5.86868 8.61299 6.89961 8.61299C7.93054 8.61299 8.76628 9.44872 8.76628 10.4797Z" fill="#29ABE2"/>
<path d="M18.0996 19.813V17.013C18.0996 16.0291 17.8459 15.1045 17.4003 14.301C17.6238 14.2436 17.8581 14.213 18.0996 14.213C19.646 14.213 20.8996 15.4666 20.8996 17.013V19.813H18.0996Z" fill="#29ABE2"/>
<path d="M7.59892 14.301C7.15333 15.1045 6.89961 16.0291 6.89961 17.013V19.813H4.09961V17.013C4.09961 15.4666 5.35321 14.213 6.89961 14.213C7.14107 14.213 7.37539 14.2436 7.59892 14.301Z" fill="#29ABE2"/>
</g>
</g>
</svg>
