<svg width="107" height="35" viewBox="0 0 107 35" fill="none" xmlns="http://www.w3.org/2000/svg">
<g id="vrbo.com logo" clip-path="url(#clip0_583_2289)">
<path id="Vector" d="M93.4996 11.5903V11.6413C100.07 12.1938 102 16.8603 101.906 19.5718C101.753 27.4258 95.6671 33.7498 85.8496 34.5233V34.5658C96.6361 33.9198 102.952 28.3438 103.088 20.3538C103.071 17.4128 100.929 12.0238 93.4996 11.5903Z" fill="#ADB5BD"/>
<path id="Vector_2" d="M85.8496 34.4299C89.8555 34.1614 93.6161 32.4043 96.3922 29.5039C99.1684 26.6036 100.759 22.7697 100.852 18.7559C100.852 16.2739 99.1521 12.1939 93.4401 11.7349V11.7774C98.1661 12.2789 99.8321 15.7214 99.7981 17.9739C99.6621 25.5474 93.7886 33.5714 85.9006 34.3789L85.8496 34.4299Z" fill="#ADB5BD"/>
<path id="Vector_3" d="M85.918 34.2854C92.8965 33.5629 98.515 24.5868 98.668 17.1493C98.668 15.1348 97.3845 12.3213 93.398 11.8708V11.9218C96.5345 12.3978 97.648 14.5823 97.648 16.3758C97.5205 23.6603 92.0465 33.4354 86.037 34.2259L85.918 34.2854Z" fill="#ADB5BD"/>
<path id="Vector_4" d="M86.0124 34.0898V34.1493C91.1124 33.4098 96.3739 22.6913 96.5014 15.5513C96.5366 14.6661 96.225 13.8022 95.6328 13.1434C95.0407 12.4846 94.2148 12.0829 93.3309 12.0238V12.0748C93.9538 12.1794 94.5136 12.5168 94.8971 13.0187C95.2806 13.5205 95.4591 14.1493 95.3964 14.7778C95.2009 21.7563 90.1009 33.3333 86.0124 34.0898ZM82.8079 31.3188C82.9269 24.6038 88.2224 12.8058 92.1579 12.0068V11.9473C87.2279 12.6783 81.7794 23.5838 81.6519 30.5028C81.6185 30.9484 81.6748 31.3963 81.8176 31.8198C81.9604 32.2433 82.1867 32.6339 82.4831 32.9684C82.7795 33.3028 83.1401 33.5744 83.5433 33.7671C83.9466 33.9597 84.3845 34.0694 84.8309 34.0898V34.0388C84.5186 33.9951 84.218 33.8899 83.9466 33.729C83.6753 33.5682 83.4386 33.3551 83.2504 33.102C83.0622 32.8489 82.9261 32.5609 82.8502 32.2548C82.7742 31.9487 82.7599 31.6305 82.8079 31.3188Z" fill="#ADB5BD"/>
<path id="Vector_5" d="M80.6396 29.7208C80.7671 22.6233 86.4706 12.6613 92.2676 11.8708V11.8198C85.4676 12.5423 79.6621 21.6543 79.5176 28.9048C79.5176 30.9278 80.8436 33.9198 84.7876 34.2428V34.1918C81.7106 33.7923 80.6056 31.5143 80.6396 29.7208Z" fill="#ADB5BD"/>
<path id="Vector_6" d="M78.4716 28.1227C78.5991 20.6852 84.6596 12.5252 92.3351 11.7177V11.6667C88.3622 12.0007 84.6478 13.773 81.8887 16.6509C79.1297 19.5289 77.5157 23.3148 77.3496 27.2982C77.3496 29.7802 79.0496 33.9962 84.7701 34.3702V34.3192C79.8401 33.8772 78.4376 30.3497 78.4716 28.1227Z" fill="#ADB5BD"/>
<path id="Vector_7" d="M76.3052 26.5248C76.4412 18.7133 83.1732 12.3213 92.4042 11.5818V11.5308C82.0682 12.1683 75.3022 17.7443 75.1662 25.7003C75.1067 28.6413 77.2572 34.0813 84.6777 34.5063C78.2007 33.9963 76.2627 29.2363 76.3052 26.5248ZM71.0522 11.7008C67.4907 11.2163 63.1897 13.3073 60.7672 16.9793L60.8097 17.0388C63.1047 13.7408 66.9807 11.7773 70.1597 12.2193C72.3017 12.5083 73.7722 14.1318 73.4747 17.3193C72.7182 25.4368 65.8757 34.5573 54.9277 34.5318V34.5913C59.8114 34.7791 64.5834 33.1009 68.2745 29.8976C71.9656 26.6943 74.299 22.2062 74.8007 17.3448C75.0982 13.8258 73.4662 12.0323 71.0522 11.7008Z" fill="#ADB5BD"/>
<path id="Vector_8" d="M72.1904 17.2854C72.4539 14.4889 71.2044 13.0354 69.2409 12.7719C66.4104 12.3894 62.9679 14.1149 60.8854 17.1494L60.9279 17.2004C62.8404 14.5824 65.9004 12.9504 68.3569 13.2904C70.0569 13.5199 71.1789 14.7949 70.9069 17.2599C70.2524 24.2469 63.5884 33.8519 54.9609 34.3874C64.5999 34.3789 71.4764 24.9014 72.1904 17.2854Z" fill="#ADB5BD"/>
<path id="Vector_9" d="M55.0801 34.2173V34.2683C63.1126 33.3078 69.0626 23.5498 69.7001 17.2258C69.8871 15.1518 68.9351 14.0468 67.5156 13.8258C65.3736 13.5283 62.7046 14.9733 61.0556 17.2853V17.3363C62.6281 15.3048 64.8211 14.0978 66.5551 14.3358C67.7791 14.5058 68.5271 15.4323 68.3656 17.1238C67.8301 22.8868 62.3646 32.6958 55.0801 34.2173Z" fill="#ADB5BD"/>
<path id="Vector_10" d="M55.1725 34.0219V34.0984C61.1225 32.5004 66.639 22.1984 67.0725 17.0984C67.1915 15.7979 66.6135 15.0329 65.6615 14.9054C64.242 14.7099 62.44 15.7554 61.1225 17.4554V17.5064C62.219 16.1974 63.6725 15.2709 64.735 15.4154C65.4235 15.5089 65.874 16.1124 65.7805 17.0729C65.449 21.5269 60.349 31.8119 55.1725 34.0219ZM54.2375 28.2334C53.6051 29.6204 53.1537 31.0831 52.8945 32.5854C52.9034 32.8692 52.9866 33.1457 53.1357 33.3873C53.2849 33.6289 53.4948 33.8272 53.7445 33.9624C53.8264 34.0036 53.9118 34.0377 53.9995 34.0644V33.9879C53.8789 33.8709 53.7893 33.7257 53.7389 33.5654C53.6884 33.4052 53.6787 33.2348 53.7105 33.0699C54.0619 31.5452 54.5777 30.0632 55.249 28.6499L66.299 0.599854L64.7435 0.905854C64.8285 1.26285 61.845 8.59835 61.726 8.96385L54.2375 28.2334Z" fill="#ADB5BD"/>
<path id="Vector_11" d="M52.2067 27.3579C51.645 28.7038 51.24 30.1099 50.9997 31.5484C50.8637 33.0869 52.2067 33.9199 54.0087 34.1919V34.1409C52.7762 33.9199 51.8242 33.2909 51.9347 32.1009C52.2178 30.6435 52.6508 29.2193 53.2267 27.8509L60.5877 8.91291C60.7662 8.41141 63.5627 1.64541 63.1377 1.21191L61.6247 1.51791V1.60291C61.6842 3.25191 59.7717 7.76541 59.3807 8.82791L52.2067 27.3579Z" fill="#ADB5BD"/>
<path id="Vector_12" d="M57.0853 8.73447L50.1493 26.491C49.5949 27.7426 49.2008 29.0591 48.9763 30.4095C48.7893 32.577 50.5658 34.073 53.8893 34.3025C53.2044 34.2269 52.531 34.07 51.8833 33.835C51.2759 33.6875 50.7438 33.3221 50.3881 32.8081C50.0324 32.2941 49.8778 31.6674 49.9538 31.047C50.1938 29.6346 50.6107 28.2581 51.1948 26.95L58.2668 8.77698C58.6238 7.81647 60.6468 3.22647 60.1623 1.82397L58.7003 2.11297V2.19797C59.4993 3.29447 57.5528 7.54447 57.0853 8.73447Z" fill="#ADB5BD"/>
<path id="Vector_13" d="M54.5695 9.09988L48.1605 25.6239C47.6315 26.797 47.271 28.0389 47.0895 29.3129C46.86 32.0244 49.2145 34.2429 53.8895 34.4129C49.971 34.1919 47.8375 32.3389 48.05 29.8909C48.2467 28.5814 48.6243 27.3055 49.172 26.0999L55.7935 9.09988C56.3885 7.54438 58.148 3.72788 57.196 2.45288L55.6915 2.75888V2.84388C56.7115 4.24638 55.2495 7.39988 54.5695 9.09988Z" fill="#ADB5BD"/>
<path id="Vector_14" d="M53.8227 34.5148C48.5442 34.2853 45.8837 31.7098 46.1727 28.7178C46.33 27.5218 46.6563 26.3541 47.1417 25.2498L53.2532 9.45681C54.0182 7.48481 55.4462 4.50981 54.3242 3.03931L52.9387 3.32831V3.41331C54.1202 4.73931 53.0237 6.91531 52.2162 9.11681L46.1302 24.7568C45.6393 25.8336 45.3209 26.981 45.1867 28.1568C44.8977 31.4123 47.7962 34.3618 53.8057 34.5403L53.8227 34.5148ZM46.8697 14.6078C46.7592 12.5083 45.5182 11.5478 44.0137 11.5478C41.2767 11.5478 38.9137 13.7068 37.4262 16.6478V15.6108C37.3072 13.3243 35.7262 11.5478 32.9127 11.5478C26.9627 11.5478 24.0302 15.4663 23.0527 19.9033H23.1037C24.1407 15.7468 26.9117 11.9983 32.2582 11.9983C32.7701 11.9527 33.2859 12.0131 33.7735 12.1756C34.261 12.3382 34.7098 12.5996 35.0919 12.9433C35.4739 13.2871 35.781 13.7059 35.994 14.1736C36.207 14.6413 36.3213 15.1479 36.3297 15.6618C36.4742 18.3563 35.5817 20.4558 34.6297 22.8783L30.2947 34.2088H31.4507L35.7857 22.9718C36.0747 22.1983 36.3467 21.4758 36.5932 20.7788C37.4432 18.9938 38.5057 17.1663 39.0582 17.1663C39.4662 17.1663 39.5937 17.5148 39.6192 17.8293C39.624 19.5209 39.1812 21.1837 38.3357 22.6488L38.3867 22.6998C39.7054 21.2123 40.4918 19.3284 40.6222 17.3448C40.6222 16.7583 40.3332 16.3418 39.7722 16.3418C38.8457 16.3418 37.6642 18.2458 36.7972 20.2603C36.8992 19.9373 36.9842 19.6143 37.0692 19.2998C37.9957 17.2853 39.2792 15.5683 40.4692 15.5683C41.2002 15.5683 41.6422 16.0698 41.6847 16.8943C41.7867 18.9003 39.9847 21.8243 38.4717 22.7848L38.5227 22.8358C40.5797 21.9178 42.8407 18.9003 42.7132 16.4353C42.6537 15.3388 42.0757 14.7353 41.1577 14.7353C39.6447 14.7353 38.1827 16.4948 37.1712 18.6708C37.1712 18.5008 37.2392 18.3308 37.2647 18.1523C38.3952 15.8148 40.0527 13.9618 41.8972 13.9618C42.9002 13.9618 43.6652 14.6418 43.7332 15.9678C43.8947 18.8918 41.1322 22.0028 38.6332 22.9123L38.6842 22.9633C41.7527 22.1813 44.9572 18.8918 44.7787 15.5088C44.6937 13.9108 43.7842 13.1373 42.6027 13.1373C40.4777 13.1458 38.5822 15.0498 37.4007 17.5998V17.1833C38.7522 14.4463 40.8857 12.3723 43.3507 12.3723C44.6767 12.3723 45.7732 13.2223 45.9007 15.0753C46.1047 18.9598 42.5007 22.2493 38.8287 23.0738L38.8797 23.1163C43.1297 22.4703 47.0992 18.9513 46.8697 14.6078Z" fill="#ADB5BD"/>
<path id="Vector_15" d="M35.266 15.7467C35.258 15.2845 35.1558 14.8287 34.9656 14.4073C34.7754 13.9859 34.5013 13.6077 34.16 13.2958C33.8187 12.9839 33.4174 12.7449 32.9805 12.5935C32.5437 12.442 32.0806 12.3812 31.6195 12.4147C26.8765 12.4147 24.148 15.9422 23.1875 19.9032H23.247C24.301 16.2142 26.715 12.8737 30.9565 12.8737C31.3635 12.8359 31.774 12.8834 32.1616 13.0131C32.5493 13.1428 32.9057 13.3519 33.208 13.627C33.5103 13.9022 33.752 14.2373 33.9175 14.611C34.0831 14.9848 34.1689 15.389 34.1695 15.7977C34.2885 18.0332 33.2345 20.4982 32.393 22.7422L27.922 34.2087H29.112L33.4895 22.8357C34.4245 20.4982 35.3935 18.1692 35.266 15.7467Z" fill="#ADB5BD"/>
<path id="Vector_16" d="M33.15 15.8404C33.1516 15.4846 33.0786 15.1323 32.9358 14.8063C32.7931 14.4803 32.5836 14.1878 32.321 13.9476C32.0584 13.7075 31.7485 13.5249 31.4111 13.4117C31.0737 13.2985 30.7163 13.2572 30.362 13.2904C26.639 13.2904 24.361 16.5034 23.375 19.9119H23.426C24.4715 16.7414 26.6135 13.7494 29.7075 13.7494C30.0037 13.7285 30.3011 13.7685 30.5813 13.8669C30.8615 13.9652 31.1186 14.1199 31.3368 14.3213C31.5549 14.5228 31.7296 14.7668 31.8499 15.0383C31.9703 15.3097 32.0338 15.603 32.0365 15.8999C32.13 17.6764 30.906 20.5579 30.0985 22.5724L25.5 34.2089H26.7325L31.246 22.6489C32.045 20.5494 33.235 17.8974 33.15 15.8404Z" fill="#ADB5BD"/>
<path id="Vector_17" d="M30.9829 15.9763C30.985 15.7299 30.9356 15.4858 30.8379 15.2597C30.7401 15.0336 30.5962 14.8303 30.4154 14.6631C30.2345 14.4958 30.0207 14.3682 29.7876 14.2884C29.5545 14.2086 29.3073 14.1784 29.0619 14.1998C26.5119 14.1998 24.4804 16.9708 23.5114 19.9033H23.5709C24.5824 17.2853 26.3164 14.6503 28.3989 14.6503C28.5902 14.628 28.784 14.6475 28.9671 14.7072C29.1502 14.767 29.3181 14.8657 29.4595 14.9965C29.6008 15.1274 29.7121 15.2872 29.7858 15.4651C29.8595 15.6431 29.8938 15.8348 29.8864 16.0273C29.9629 17.4383 28.5349 20.6428 27.8549 22.4193L23.1289 34.2088H24.3104L28.9514 22.5128C29.7504 20.6428 31.0679 17.5998 30.9829 15.9763Z" fill="#ADB5BD"/>
<path id="Vector_18" d="M28.8411 16.1124C28.854 15.9704 28.8356 15.8272 28.7873 15.6931C28.739 15.5589 28.662 15.4369 28.5616 15.3357C28.4611 15.2344 28.3398 15.1564 28.206 15.107C28.0722 15.0576 27.9292 15.0381 27.7871 15.0499C26.2826 15.0499 24.6591 17.4214 23.6816 19.8864H23.7411C24.7271 17.6934 26.2486 15.5004 27.1411 15.5004C27.5066 15.5004 27.7446 15.6874 27.7701 16.1464C27.8211 17.1069 26.2231 20.7109 25.5771 22.2664L20.7661 34.1664H21.9561L26.7246 22.3344C27.3961 20.6854 28.9006 17.2599 28.8411 16.1124ZM15.8446 26.2019L16.6096 24.5954L14.0171 11.3694C13.2946 7.64639 14.1616 6.02289 17.0856 5.46189V5.41089H14.3826C13.6006 5.80189 11.9431 6.97489 12.8696 11.3609L15.8446 26.2019Z" fill="#ADB5BD"/>
<path id="Vector_19" d="M14.314 29.3979L15.0705 27.7999L11.6705 11.2844C11.033 8.07989 11.305 6.41389 12.3675 5.46189V5.41089H10.5315C9.9705 6.60939 9.8005 7.80789 10.4465 10.9784L14.314 29.3979ZM12.75 32.5854L13.5065 31.0044L9.2565 10.9359C8.5085 7.81639 8.6785 6.38839 8.9845 5.41089H7.361C7.34405 7.09875 7.56146 8.7808 8.007 10.4089L12.75 32.5854ZM5.8735 5.41089H3.961V5.46189C4.811 6.49889 5.066 7.76539 5.746 10.5619L10.846 34.2174H11.9935L6.8935 10.4854C6.45289 8.81568 6.11228 7.12117 5.8735 5.41089ZM2.0485 5.41089H0V5.46189C1.87 6.20139 2.788 7.62089 3.5275 10.9444L8.568 34.2089H9.7155L4.641 10.7999C3.7655 6.73689 2.8475 5.98889 2.0485 5.41089ZM28.1095 5.41089C25.6955 6.82189 24.259 9.43139 21.25 15.8999L21.3265 15.9424C24.803 9.43139 26.7835 6.83889 31.2715 5.48739V5.41089H28.1095ZM21.08 15.7724L21.1565 15.8234C24.0125 9.09989 24.7605 7.22139 25.925 5.46189V5.41089H23.613V5.47889C23.851 8.17339 22.95 10.6554 21.08 15.7724Z" fill="#ADB5BD"/>
<path id="Vector_20" d="M20.9278 15.6704L21.0043 15.7214C22.8148 9.69489 23.4013 7.03439 21.8033 5.41089H19.5508V5.46189C22.1008 6.36289 22.6278 8.93839 20.9278 15.6704ZM103.701 13.1459V14.2934H103.531V13.1459H103.038V12.9844H104.211V13.1459H103.701ZM105.656 14.2934V13.1799L105.248 14.2764H105.052L104.687 13.1799V14.2934H104.525L104.576 12.9844H104.874L105.214 14.0809L105.605 12.9844H105.877L105.928 14.2934H105.656Z" fill="#ADB5BD"/>
</g>
<defs>
<clipPath id="clip0_583_2289">
<rect width="106.25" height="34" fill="white" transform="translate(0 0.599854)"/>
</clipPath>
</defs>
</svg>
