<svg width="24" height="24" viewBox="0 0 24 24" fill="none" xmlns="http://www.w3.org/2000/svg">
<g id="waterfront">
<path id="Vector" d="M22 8.78635C20.412 8.43435 19.596 7.57035 18.92 6.60835C18.496 6.00635 17.565 6.04335 17.105 6.62135C16.055 7.94335 14.485 9.00035 12 9.00035C9.493 9.00035 7.918 7.65535 6.867 6.38935C6.427 5.85935 5.587 5.86735 5.202 6.43235C4.5 7.46235 3.684 8.41235 2 8.78635M22 18.7863C20.412 18.4343 19.596 17.5703 18.92 16.6083C18.496 16.0063 17.565 16.0423 17.105 16.6213C16.055 17.9433 14.485 19.0003 12 19.0003C9.493 19.0003 7.918 17.6553 6.867 16.3893C6.427 15.8593 5.587 15.8673 5.202 16.4323C4.501 17.4623 3.684 18.4123 2 18.7863M22 13.7863C20.412 13.4343 19.596 12.5703 18.92 11.6083C18.496 11.0063 17.565 11.0423 17.105 11.6213C16.055 12.9433 14.485 14.0003 12 14.0003C9.493 14.0003 7.918 12.6553 6.867 11.3893C6.427 10.8593 5.587 10.8673 5.202 11.4323C4.501 12.4623 3.684 13.4123 2 13.7863" stroke="#29ABE2" stroke-width="2" stroke-linecap="round" stroke-linejoin="round"/>
</g>
</svg>
